<svg width="155" height="78" viewBox="0 0 155 78" fill="none" xmlns="http://www.w3.org/2000/svg">
<g filter="url(#filter0_d_340_2852)">
<rect x="12.8496" y="10.708" width="51.3987" height="51.3987" rx="25.6994" fill="#F4F4F4" shape-rendering="crispEdges"/>
<rect x="13.9204" y="11.7788" width="49.2571" height="49.2571" rx="24.6286" stroke="white" stroke-width="2.14161" shape-rendering="crispEdges"/>
<g clip-path="url(#clip0_340_2852)">
<path d="M45.1196 32.0132V28.9524C45.9193 28.5787 46.475 27.768 46.475 26.8322V26.7609C46.475 25.4704 45.4221 24.4111 44.13 24.4111H44.0587C42.7619 24.4111 41.7089 25.4704 41.7089 26.7609V26.8322C41.7089 27.768 42.2647 28.5787 43.0643 28.9524V32.0132C41.8735 32.1969 40.7905 32.6894 39.8958 33.4051L31.5115 26.8734C31.5653 26.6612 31.6065 26.4411 31.6065 26.2162C31.6065 24.7484 30.422 23.5576 28.9589 23.5576C27.4958 23.5576 26.3067 24.742 26.3067 26.2051C26.3003 27.673 27.4848 28.8638 28.9526 28.8638C29.4276 28.8638 29.871 28.7276 30.2558 28.5075L38.5055 34.9331C37.8057 35.9924 37.3908 37.2655 37.3908 38.6336C37.3908 40.0603 37.8468 41.3872 38.6116 42.4767L36.1003 44.988C35.8992 44.9278 35.6981 44.8867 35.4796 44.8867C34.2762 44.8867 33.2992 45.8637 33.2992 47.0655C33.2992 48.2673 34.2762 49.2459 35.4796 49.2459C36.6814 49.2459 37.6584 48.2673 37.6584 47.0655C37.6584 46.847 37.6172 46.6395 37.5507 46.4448L40.0383 43.9572C41.1642 44.8217 42.5671 45.3364 44.0951 45.3364C47.7909 45.3364 50.7931 42.3341 50.7931 38.6336C50.7931 35.2767 48.3293 32.5104 45.1196 32.0132ZM44.0951 42.0681C42.1934 42.0681 40.6606 40.529 40.6606 38.6336C40.6606 36.7335 42.1934 35.1928 44.0951 35.1928C45.9905 35.1928 47.5296 36.7335 47.5296 38.6336C47.5296 40.529 45.9905 42.0681 44.0951 42.0681Z" fill="#FF5C35"/>
</g>
</g>
<g filter="url(#filter1_d_340_2852)">
<rect x="48.4512" y="10.708" width="51.3987" height="51.3987" rx="25.6994" fill="#F4F4F4" shape-rendering="crispEdges"/>
<rect x="49.522" y="11.7788" width="49.2571" height="49.2571" rx="24.6286" stroke="white" stroke-width="2.14161" shape-rendering="crispEdges"/>
<g clip-path="url(#clip1_340_2852)">
<path fill-rule="evenodd" clip-rule="evenodd" d="M71.9901 29.3814C72.8183 28.519 73.9721 27.9836 75.2474 27.9836C76.943 27.9836 78.4226 28.9288 79.2103 30.3319C79.386 30.2535 79.5655 30.1845 79.7483 30.1249C79.9313 30.0654 80.117 30.0155 80.3052 29.9756C80.4933 29.9356 80.6834 29.9056 80.8747 29.8856C81.0659 29.8657 81.2581 29.8558 81.4504 29.8559C84.5086 29.8559 86.9875 32.3557 86.9875 35.4398C86.9875 38.5239 84.5086 41.0237 81.4504 41.0237C81.0765 41.0237 80.7118 40.9864 80.3592 40.9153C79.6657 42.1517 78.3431 42.9874 76.8258 42.9874C76.1907 42.9874 75.5897 42.8413 75.0551 42.58C74.3516 44.2339 72.7129 45.3931 70.8036 45.3931C68.8151 45.3931 67.1199 44.1351 66.4696 42.3713C66.3972 42.3866 66.3244 42.3999 66.2514 42.4114C66.1783 42.423 66.1049 42.4325 66.0314 42.4402C65.9578 42.4478 65.884 42.4537 65.8101 42.4574C65.7362 42.4613 65.6624 42.4632 65.5883 42.4631C63.2204 42.4634 61.3008 40.5247 61.3008 38.1331C61.3 37.7557 61.3484 37.3799 61.4448 37.0151C61.5412 36.6503 61.6849 36.2996 61.8721 35.9718C62.0594 35.6442 62.2887 35.3424 62.5541 35.0741C62.8195 34.8057 63.1189 34.5732 63.4446 34.3823C63.3769 34.2266 63.3173 34.0675 63.2662 33.9057C63.2149 33.7438 63.1718 33.5795 63.1374 33.4133C63.103 33.247 63.0772 33.079 63.06 32.9101C63.0428 32.7413 63.0342 32.5715 63.0345 32.4018C63.0345 29.651 65.268 27.4214 68.0234 27.4214C68.4059 27.4209 68.7872 27.4646 69.1598 27.5513C69.5322 27.6381 69.8936 27.7675 70.2365 27.937C70.5794 28.1063 70.9016 28.3148 71.1968 28.5578C71.4921 28.801 71.7581 29.0773 71.9901 29.3814Z" fill="#00A1E0"/>
<path fill-rule="evenodd" clip-rule="evenodd" d="M65.0197 36.7412L65.1236 36.4529C65.1401 36.4036 65.1775 36.4198 65.1927 36.4291C65.2216 36.4461 65.2424 36.4617 65.2797 36.4834C65.5859 36.677 65.8697 36.6789 65.9582 36.6789C66.1874 36.6789 66.3296 36.5576 66.3296 36.394V36.3855C66.3296 36.2075 66.1105 36.1401 65.8574 36.0626L65.8012 36.0446C65.4536 35.9458 65.082 35.8029 65.082 35.3631V35.3542C65.082 34.9368 65.4189 34.6457 65.9009 34.6457L65.9538 34.645C66.2369 34.645 66.5105 34.7273 66.7089 34.8475C66.7269 34.8588 66.7443 34.8795 66.7342 34.9071L66.6274 35.1954C66.6085 35.2446 66.5572 35.212 66.5572 35.212C66.5056 35.1852 66.4527 35.1613 66.3983 35.1405C66.3441 35.1197 66.2887 35.1022 66.2324 35.0878C66.1762 35.0733 66.1191 35.0621 66.0616 35.0542C66.004 35.0464 65.946 35.0417 65.8881 35.0405C65.6835 35.0405 65.552 35.1488 65.552 35.296V35.3053C65.552 35.4769 65.7773 35.5501 66.0386 35.6352L66.0835 35.6493C66.43 35.7587 66.7996 35.9104 66.7996 36.3274V36.336C66.7996 36.7869 66.472 37.0668 65.9454 37.0668C65.6866 37.0668 65.439 37.0268 65.1773 36.8878C65.1278 36.8593 65.0789 36.8346 65.0305 36.7994C65.0255 36.7921 65.0034 36.7835 65.0193 36.7412H65.0197ZM72.8373 36.4529C72.8525 36.4057 72.8967 36.4232 72.9061 36.4291C72.9348 36.4468 72.9561 36.4617 72.9933 36.4834C73.3 36.677 73.5833 36.6789 73.6725 36.6789C73.901 36.6789 74.0433 36.5576 74.0433 36.394V36.3855C74.0433 36.2075 73.8245 36.1401 73.5714 36.0626L73.5152 36.0446C73.1672 35.9458 72.7956 35.8029 72.7956 35.3631V35.3542C72.7956 34.9368 73.1326 34.6457 73.6148 34.6457L73.6672 34.645C73.9503 34.645 74.2244 34.7273 74.4229 34.8475C74.4403 34.8588 74.458 34.8795 74.4482 34.9071C74.4383 34.9326 74.3507 35.1684 74.3414 35.1954C74.3221 35.2446 74.2713 35.212 74.2713 35.212C74.2197 35.1852 74.1666 35.1613 74.1123 35.1405C74.0581 35.1197 74.0026 35.1022 73.9464 35.0878C73.8901 35.0733 73.8329 35.0621 73.7755 35.0542C73.7178 35.0464 73.6599 35.0417 73.6018 35.0405C73.3972 35.0405 73.2657 35.1488 73.2657 35.296V35.3053C73.2657 35.4769 73.4907 35.5501 73.7523 35.6352L73.7972 35.6493C74.1437 35.7587 74.513 35.9104 74.513 36.3274V36.336C74.513 36.7869 74.1859 37.0668 73.6591 37.0668C73.4 37.0668 73.1526 37.0268 72.891 36.8878C72.8415 36.8593 72.7926 36.8346 72.7441 36.7994C72.7391 36.7921 72.7168 36.7835 72.7331 36.7412L72.8373 36.4529ZM78.4389 35.3853C78.482 35.5301 78.5035 35.6894 78.5035 35.8576C78.5035 36.0261 78.482 36.1847 78.4389 36.3297C78.429 36.3644 78.4173 36.3987 78.404 36.4323C78.3905 36.4659 78.3755 36.4989 78.3587 36.531C78.3419 36.563 78.3236 36.5943 78.3036 36.6245C78.2837 36.6547 78.2622 36.6838 78.2393 36.7119C78.2164 36.739 78.1919 36.7648 78.1661 36.7893C78.1401 36.8137 78.113 36.8367 78.0846 36.8581C78.056 36.8794 78.0265 36.8992 77.9958 36.9172C77.9651 36.9354 77.9336 36.9516 77.9012 36.9663C77.7663 37.028 77.6078 37.059 77.4297 37.059C77.2516 37.059 77.0925 37.028 76.9583 36.9663C76.9258 36.9516 76.8941 36.9354 76.8635 36.9172C76.8329 36.8992 76.8032 36.8794 76.7748 36.8581C76.7464 36.8367 76.7191 36.8137 76.6933 36.7893C76.6675 36.7648 76.643 36.739 76.6201 36.7119C76.5972 36.6838 76.5756 36.6547 76.5558 36.6245C76.5358 36.5943 76.5175 36.5632 76.5006 36.531C76.4839 36.499 76.4688 36.4661 76.4553 36.4325C76.442 36.399 76.4303 36.3648 76.4203 36.3299C76.4092 36.2916 76.3996 36.2529 76.3914 36.2139C76.3832 36.1748 76.3764 36.1355 76.3709 36.0961C76.3655 36.0566 76.3616 36.0169 76.359 35.9771C76.3565 35.9373 76.3553 35.8975 76.3556 35.8576C76.3556 35.6891 76.3774 35.5301 76.4203 35.3853C76.4636 35.2392 76.5306 35.1106 76.6198 35.0033C76.6428 34.9761 76.6673 34.9501 76.6932 34.9256C76.7191 34.9009 76.7462 34.8778 76.7748 34.8563C76.8032 34.8347 76.8328 34.8147 76.8635 34.7963C76.8941 34.7782 76.9258 34.7614 76.9583 34.7467C77.0929 34.6838 77.251 34.652 77.4297 34.652C77.6083 34.652 77.7666 34.6838 77.9012 34.7467C78.0354 34.8093 78.1494 34.8955 78.2393 35.0033C78.3286 35.1106 78.3962 35.2392 78.4389 35.3853ZM77.8583 35.2623C77.7656 35.123 77.6252 35.0556 77.4297 35.0556C77.2341 35.0556 77.0948 35.123 77.0032 35.2623C76.9113 35.4027 76.8644 35.6029 76.8644 35.8576C76.8644 36.112 76.9113 36.3136 77.0037 36.4552C77.0948 36.5961 77.2341 36.6643 77.4297 36.6643C77.6252 36.6643 77.7656 36.5958 77.8583 36.4552C77.9517 36.3136 77.9994 36.112 77.9994 35.8576C77.9994 35.6029 77.9521 35.4027 77.8583 35.2623ZM82.0509 36.5961L82.1589 36.8943C82.1728 36.9309 82.1412 36.9468 82.1412 36.9468C81.9746 37.0114 81.7434 37.0575 81.5184 37.0575C81.1369 37.0575 80.8447 36.9478 80.6497 36.7309C80.4558 36.5146 80.357 36.2206 80.357 35.856C80.357 35.6871 80.3815 35.5274 80.4292 35.3827C80.477 35.2368 80.5485 35.108 80.643 35.0009C80.6674 34.9735 80.6932 34.9473 80.7205 34.9227C80.7477 34.898 80.7763 34.8748 80.806 34.8532C80.8359 34.8317 80.8667 34.8118 80.8987 34.7936C80.9305 34.7752 80.9635 34.7588 80.9973 34.7442C81.1377 34.6816 81.3028 34.6501 81.4872 34.6501C81.6116 34.6501 81.7223 34.6577 81.8173 34.6718C81.9186 34.6874 82.0538 34.7239 82.1108 34.7462C82.1212 34.7501 82.1501 34.7642 82.1384 34.7981C82.0968 34.9152 82.0684 34.9916 82.03 35.0983C82.0131 35.1438 81.9788 35.1287 81.9788 35.1287C81.8342 35.0832 81.6954 35.0624 81.5142 35.0624C81.2965 35.0624 81.1328 35.1348 81.0262 35.2766C80.9182 35.4196 80.8578 35.6068 80.857 35.856C80.8562 36.1292 80.9247 36.3317 81.0461 36.4568C81.1672 36.5818 81.3362 36.645 81.5492 36.645C81.6355 36.645 81.717 36.6393 81.7903 36.6279C81.8627 36.6164 81.9308 36.5938 81.9947 36.5688C81.9947 36.5688 82.0361 36.5534 82.0509 36.5961ZM84.3453 35.9433C84.3416 35.9815 84.3023 35.982 84.3023 35.982L82.8138 35.9808C82.823 36.207 82.8772 36.367 82.9868 36.4757C83.0943 36.5822 83.2651 36.6503 83.4964 36.6507C83.8497 36.6515 84.0007 36.5804 84.1077 36.5408C84.1077 36.5408 84.1484 36.5261 84.1638 36.5666L84.2607 36.8393C84.2804 36.8851 84.2646 36.9012 84.2481 36.9104C84.1549 36.9617 83.9288 37.0578 83.4984 37.059C83.2896 37.0598 83.1078 37.0299 82.9581 36.9718C82.9227 36.9588 82.888 36.9435 82.8543 36.9265C82.8207 36.9094 82.7879 36.8904 82.7565 36.8695C82.725 36.8487 82.6948 36.826 82.6659 36.8016C82.637 36.7773 82.6095 36.7513 82.5836 36.7239C82.5589 36.6969 82.5357 36.6685 82.5141 36.639C82.4925 36.6094 82.4725 36.5787 82.4543 36.5469C82.4361 36.5151 82.4199 36.4823 82.4053 36.4487C82.3908 36.4151 82.3782 36.3807 82.3676 36.3456C82.3561 36.3071 82.346 36.2683 82.3374 36.229C82.3288 36.1899 82.3217 36.1503 82.3162 36.1105C82.3105 36.0709 82.3064 36.031 82.3038 35.9909C82.3012 35.9508 82.3001 35.9107 82.3004 35.8706C82.3004 35.7021 82.322 35.542 82.3657 35.3957C82.4092 35.2483 82.4769 35.1183 82.567 35.009C82.5904 34.9813 82.615 34.9548 82.6413 34.9298C82.6675 34.9048 82.6951 34.8813 82.724 34.8593C82.7527 34.8373 82.7828 34.817 82.8139 34.7985C82.8449 34.7798 82.8771 34.7629 82.91 34.7478C83.0466 34.6835 83.2157 34.652 83.4016 34.652C83.561 34.652 83.7065 34.6863 83.8276 34.7386C83.9208 34.7785 84.0146 34.8506 84.1107 34.954C84.1715 35.0191 84.2638 35.1618 84.3012 35.3024C84.397 35.6378 84.347 35.9272 84.3453 35.9433ZM83.8826 35.6133C83.8716 35.4769 83.845 35.3543 83.7838 35.2623C83.6904 35.123 83.5619 35.0464 83.3665 35.0464C83.1711 35.0464 83.0323 35.123 82.9404 35.2623C82.8803 35.3543 82.8415 35.4717 82.8204 35.6133H83.8826ZM72.4218 35.9433C72.4179 35.9815 72.3786 35.982 72.3786 35.982L70.8896 35.9808C70.8992 36.207 70.9531 36.367 71.063 36.4757C71.1706 36.5822 71.3411 36.6503 71.5723 36.6507C71.9257 36.6515 72.0772 36.5804 72.1838 36.5408C72.1838 36.5408 72.2246 36.5261 72.2398 36.5666L72.3371 36.8393C72.3567 36.8851 72.341 36.9012 72.3246 36.9104C72.2308 36.9617 72.0044 37.0578 71.5746 37.059C71.3656 37.0598 71.1838 37.0299 71.0343 36.9718C70.9989 36.9588 70.9643 36.9435 70.9305 36.9265C70.8969 36.9093 70.8641 36.8903 70.8326 36.8695C70.8011 36.8486 70.7708 36.826 70.7419 36.8016C70.713 36.7773 70.6855 36.7513 70.6596 36.7239C70.6349 36.6969 70.6117 36.6685 70.5902 36.639C70.5687 36.6094 70.5488 36.5786 70.5307 36.5468C70.5125 36.5151 70.4962 36.4823 70.4818 36.4487C70.4674 36.4151 70.4547 36.3807 70.4441 36.3456C70.4324 36.3071 70.4224 36.2683 70.4138 36.229C70.4052 36.1899 70.3979 36.1503 70.3923 36.1107C70.3867 36.0709 70.3824 36.031 70.3798 35.9909C70.3771 35.9508 70.376 35.9107 70.3764 35.8706C70.3764 35.7021 70.3984 35.542 70.4415 35.3957C70.4516 35.3605 70.4635 35.3259 70.4771 35.2918C70.4907 35.2579 70.506 35.2246 70.5229 35.1921C70.5398 35.1597 70.5584 35.1282 70.5784 35.0975C70.5985 35.067 70.6203 35.0374 70.6433 35.009C70.6665 34.9813 70.6914 34.9548 70.7175 34.9298C70.7438 34.9048 70.7713 34.8813 70.8002 34.8593C70.8289 34.8374 70.8589 34.8171 70.8899 34.7985C70.9211 34.7798 70.9531 34.7629 70.986 34.7478C71.1231 34.6835 71.2922 34.652 71.4776 34.652C71.5142 34.652 71.5507 34.6538 71.5871 34.6574C71.6234 34.6609 71.6595 34.6665 71.6953 34.6736C71.7311 34.6809 71.7664 34.69 71.8013 34.7009C71.8363 34.7116 71.8705 34.7243 71.9041 34.7386C71.9973 34.7785 72.0911 34.8506 72.1869 34.954C72.2476 35.0191 72.3402 35.1618 72.3772 35.3024C72.4726 35.6378 72.4235 35.9272 72.4218 35.9433ZM71.9588 35.6133C71.9476 35.4769 71.921 35.3543 71.86 35.2623C71.7673 35.123 71.638 35.0464 71.4429 35.0464C71.2473 35.0464 71.1083 35.123 71.0169 35.2623C70.9562 35.3543 70.9177 35.4717 70.8961 35.6133H71.9588ZM68.5164 35.5712V35.5082C68.5164 35.3097 68.475 35.2162 68.3939 35.1537C68.3107 35.0902 68.1866 35.0572 68.0258 35.0572C68.0258 35.0572 67.6635 35.0529 67.3769 35.2084C67.3638 35.2162 67.3527 35.2207 67.3527 35.2207C67.3527 35.2207 67.3169 35.2334 67.3039 35.1965L67.1985 34.9136C67.1823 34.8728 67.2117 34.8543 67.2117 34.8543C67.3458 34.7498 67.6705 34.6866 67.6705 34.6866C67.7034 34.6809 67.7365 34.6757 67.7696 34.6713C67.8028 34.667 67.836 34.6631 67.8693 34.66C67.9026 34.6571 67.9361 34.6546 67.9695 34.6528C68.0028 34.6512 68.0362 34.6502 68.0697 34.6499C68.3669 34.6499 68.597 34.7189 68.7535 34.8556C68.9103 34.9929 68.99 35.2142 68.99 35.5125L68.9908 36.8739C68.9908 36.8739 68.9939 36.9132 68.9566 36.9221C68.9566 36.9221 68.9018 36.9374 68.8527 36.9489C68.803 36.9603 68.6238 36.9968 68.4773 37.0216C68.44 37.0278 68.4025 37.0333 68.365 37.038C68.3273 37.0427 68.2896 37.0466 68.252 37.0497C68.2142 37.053 68.1765 37.0552 68.1387 37.0569C68.1008 37.0583 68.0628 37.0591 68.025 37.0591C67.8804 37.0591 67.7477 37.0456 67.6308 37.019C67.6037 37.0133 67.5769 37.0064 67.5505 36.9979C67.524 36.9895 67.498 36.9797 67.4727 36.9687C67.4472 36.9577 67.4224 36.9453 67.3982 36.9318C67.374 36.9184 67.3505 36.9036 67.3277 36.8875C67.3071 36.8726 67.2875 36.8564 67.2688 36.839C67.2501 36.8214 67.2326 36.8029 67.2164 36.7833C67.2 36.7637 67.1849 36.743 67.1711 36.7216C67.1573 36.7002 67.1449 36.6778 67.1339 36.6549C67.0881 36.5614 67.0651 36.4471 67.0651 36.3151C67.0651 36.1855 67.0923 36.0701 67.1449 35.9719C67.1977 35.8742 67.2701 35.7914 67.3612 35.7264C67.3846 35.71 67.4088 35.6944 67.4336 35.6802C67.4584 35.6659 67.4839 35.6526 67.5099 35.6405C67.536 35.6285 67.5625 35.6175 67.5894 35.6079C67.6164 35.5982 67.6438 35.5897 67.6716 35.5824C67.7877 35.5516 67.9111 35.5355 68.0385 35.5355C68.132 35.5355 68.2101 35.5375 68.2708 35.5423C68.2708 35.5423 68.3883 35.5527 68.5164 35.5712ZM68.115 36.6747C68.3278 36.6619 68.5166 36.6214 68.5166 36.6214V35.9446C68.5166 35.9446 68.3262 35.9134 68.1124 35.9104C67.8093 35.9068 67.68 36.0182 67.6808 36.018C67.5916 36.0815 67.548 36.1755 67.548 36.3058C67.548 36.3891 67.563 36.4544 67.593 36.4998C67.6118 36.5299 67.62 36.5411 67.6784 36.588C67.6776 36.5877 67.8119 36.6934 68.115 36.6747ZM80.167 35.0876C80.1575 35.1134 80.1417 35.1311 80.1128 35.128C80.1128 35.128 80.0274 35.1084 79.9493 35.1084C79.8958 35.1084 79.819 35.1152 79.7498 35.1365C79.7326 35.1418 79.7157 35.1481 79.6993 35.1555C79.6828 35.1628 79.6667 35.1712 79.6513 35.1805C79.6358 35.1897 79.6209 35.1999 79.6068 35.2111C79.5925 35.2222 79.5789 35.234 79.5662 35.2469C79.5116 35.2993 79.4675 35.3732 79.4355 35.4659C79.4029 35.559 79.3862 35.7074 79.3862 35.8561V36.9648C79.3862 36.9708 79.385 36.9767 79.3827 36.9822C79.3805 36.9875 79.3772 36.9926 79.373 36.9968C79.3688 37.001 79.3639 37.0042 79.3584 37.0065C79.3529 37.0088 79.347 37.0101 79.3412 37.0101H78.9504C78.9444 37.0101 78.9384 37.009 78.9329 37.0068C78.9274 37.0046 78.9223 37.0013 78.9179 36.9971C78.9137 36.9929 78.9103 36.988 78.908 36.9825C78.9056 36.977 78.9043 36.9711 78.9043 36.9651V34.7454C78.9043 34.7204 78.9225 34.7004 78.9475 34.7004H79.3288C79.354 34.7004 79.372 34.7204 79.372 34.7454V34.9267C79.429 34.8504 79.5313 34.7829 79.6238 34.7413C79.7165 34.6993 79.8201 34.6684 80.0074 34.6796C80.105 34.6855 80.2316 34.7123 80.2573 34.722C80.2622 34.7239 80.2667 34.727 80.2706 34.7308C80.2745 34.7345 80.2774 34.739 80.2795 34.7441C80.2817 34.7489 80.2826 34.7543 80.2826 34.7597C80.2826 34.765 80.2815 34.7704 80.2794 34.7754C80.2654 34.8162 80.1932 35.0199 80.167 35.0876ZM76.6352 33.7984L76.5209 34.1109C76.5113 34.1346 76.5052 34.1486 76.4566 34.134C76.4405 34.1289 76.4243 34.1246 76.4079 34.1207C76.3915 34.1169 76.375 34.1137 76.3584 34.1111C76.3418 34.1085 76.3251 34.1065 76.3084 34.1052C76.2915 34.1039 76.2748 34.1031 76.2579 34.1031C76.199 34.1031 76.1456 34.1108 76.0983 34.1263C76.0866 34.1302 76.0751 34.1346 76.0639 34.1398C76.0527 34.145 76.0418 34.1509 76.0313 34.1574C76.0209 34.1637 76.0107 34.1708 76.0011 34.1786C75.9915 34.1862 75.9822 34.1945 75.9736 34.2033C75.9621 34.2145 75.9512 34.2262 75.941 34.2385C75.9308 34.2509 75.9214 34.2637 75.9126 34.277C75.9038 34.2903 75.8957 34.3043 75.8886 34.3184C75.8813 34.3327 75.8748 34.3473 75.8691 34.3622C75.8144 34.5195 75.7933 34.6872 75.7905 34.6978H76.2663C76.3066 34.6978 76.3191 34.7165 76.3152 34.7459L76.2597 35.0553C76.2506 35.1003 76.2099 35.0986 76.2099 35.0986H75.7194L75.3843 36.9956C75.377 37.0382 75.3689 37.0806 75.3598 37.1228C75.3507 37.1648 75.3408 37.2069 75.3298 37.2486C75.3189 37.2903 75.307 37.3317 75.2944 37.3729C75.2816 37.414 75.2679 37.4549 75.2533 37.4955C75.2009 37.6329 75.1466 37.7332 75.0595 37.8288C75.041 37.8502 75.0212 37.8704 75.0002 37.8892C74.9793 37.908 74.957 37.9256 74.934 37.9418C74.9108 37.9579 74.8866 37.9726 74.8616 37.9856C74.8367 37.9988 74.8109 38.0105 74.7845 38.0204C74.6814 38.0584 74.556 38.0777 74.4192 38.0777C74.3541 38.0777 74.2838 38.0762 74.201 38.0566C74.1895 38.054 74.1779 38.0512 74.1664 38.0481C74.155 38.0452 74.1437 38.042 74.1323 38.0387C74.1209 38.0355 74.1096 38.0319 74.0984 38.0282C74.087 38.0246 74.0758 38.0207 74.0648 38.0168C74.0464 38.0103 74.0315 37.9869 74.0422 37.9572C74.0524 37.9277 74.1406 37.6864 74.1524 37.6548C74.1675 37.6166 74.2063 37.6312 74.2063 37.6312C74.2326 37.6424 74.2513 37.6497 74.2864 37.6567C74.3221 37.6637 74.3698 37.6699 74.406 37.6699C74.471 37.6699 74.5299 37.6621 74.5814 37.6447C74.6432 37.6247 74.6797 37.5885 74.7172 37.5402C74.7567 37.4893 74.7887 37.4205 74.8215 37.3281C74.8544 37.2346 74.8845 37.1111 74.9103 36.9614L75.2441 35.0988H74.9153C74.876 35.0988 74.8625 35.0803 74.8671 35.0506L74.9221 34.7411C74.9309 34.6962 74.9726 34.6978 74.9726 34.6978H75.3101L75.3283 34.5973C75.379 34.2986 75.4791 34.0713 75.6275 33.9223C75.7767 33.7721 75.9887 33.6963 76.2579 33.6963C76.3349 33.6963 76.4029 33.7013 76.4605 33.7117C76.517 33.7223 76.5599 33.7322 76.6078 33.7468C76.6182 33.751 76.6464 33.7648 76.6352 33.7984ZM69.9138 37.0101H69.5191C69.4938 37.0101 69.4766 36.9898 69.4766 36.9651V33.7883C69.4766 33.7638 69.4941 33.7437 69.5188 33.7437H69.9138C69.9391 33.7437 69.9564 33.7638 69.9564 33.7887V36.9648C69.9564 36.9901 69.9391 37.0101 69.9138 37.0101Z" fill="white"/>
</g>
</g>
<path d="M117.194 33.4475H113.588C113.522 32.9809 113.388 32.5665 113.184 32.2041C112.981 31.8364 112.721 31.5235 112.402 31.2654C112.084 31.0074 111.716 30.8098 111.299 30.6726C110.887 30.5353 110.44 30.4667 109.957 30.4667C109.084 30.4667 108.324 30.6836 107.676 31.1172C107.028 31.5454 106.526 32.1712 106.169 32.9946C105.812 33.8126 105.634 34.8062 105.634 35.9754C105.634 37.1776 105.812 38.1877 106.169 39.0056C106.531 39.8235 107.036 40.4411 107.684 40.8583C108.332 41.2755 109.081 41.4841 109.932 41.4841C110.41 41.4841 110.851 41.421 111.258 41.2947C111.669 41.1684 112.034 40.9845 112.353 40.743C112.671 40.496 112.935 40.1968 113.143 39.8455C113.357 39.4942 113.506 39.0934 113.588 38.6433L117.194 38.6598C117.101 39.4338 116.868 40.1803 116.495 40.8995C116.127 41.6131 115.63 42.2526 115.004 42.818C114.384 43.378 113.643 43.8226 112.781 44.152C111.925 44.4758 110.956 44.6378 109.874 44.6378C108.37 44.6378 107.025 44.2974 105.84 43.6167C104.659 42.936 103.726 41.9507 103.04 40.6607C102.359 39.3706 102.019 37.8089 102.019 35.9754C102.019 34.1364 102.365 32.5719 103.056 31.2819C103.748 29.9919 104.687 29.0093 105.872 28.3341C107.058 27.6534 108.392 27.313 109.874 27.313C110.851 27.313 111.757 27.4503 112.592 27.7247C113.431 27.9992 114.175 28.3999 114.823 28.9269C115.471 29.4484 115.998 30.088 116.404 30.8455C116.816 31.603 117.079 32.4704 117.194 33.4475ZM119.751 44.4072V27.5436H126.404C127.678 27.5436 128.765 27.7714 129.665 28.227C130.571 28.6772 131.26 29.3167 131.732 30.1456C132.21 30.969 132.448 31.9379 132.448 33.0523C132.448 34.1721 132.207 35.1355 131.724 35.9425C131.241 36.7439 130.541 37.3588 129.624 37.7869C128.713 38.2151 127.609 38.4292 126.314 38.4292H121.859V35.5637H125.737C126.418 35.5637 126.984 35.4704 127.434 35.2837C127.884 35.0971 128.219 34.8171 128.438 34.4438C128.663 34.0706 128.776 33.6067 128.776 33.0523C128.776 32.4923 128.663 32.0202 128.438 31.636C128.219 31.2517 127.881 30.9608 127.425 30.7632C126.975 30.5601 126.407 30.4585 125.721 30.4585H123.317V44.4072H119.751ZM128.858 36.733L133.049 44.4072H129.113L125.013 36.733H128.858ZM134.968 27.5436H139.365L144.009 38.8738H144.207L148.851 27.5436H153.248V44.4072H149.79V33.431H149.65L145.285 44.3249H142.93L138.566 33.3899H138.426V44.4072H134.968V27.5436Z" fill="black"/>
<defs>
<filter id="filter0_d_340_2852" x="-7.43866e-05" y="-6.22272e-05" width="77.0978" height="77.0983" filterUnits="userSpaceOnUse" color-interpolation-filters="sRGB">
<feFlood flood-opacity="0" result="BackgroundImageFix"/>
<feColorMatrix in="SourceAlpha" type="matrix" values="0 0 0 0 0 0 0 0 0 0 0 0 0 0 0 0 0 0 127 0" result="hardAlpha"/>
<feOffset dy="2.14161"/>
<feGaussianBlur stdDeviation="6.42484"/>
<feComposite in2="hardAlpha" operator="out"/>
<feColorMatrix type="matrix" values="0 0 0 0 0 0 0 0 0 0 0 0 0 0 0 0 0 0 0.1 0"/>
<feBlend mode="normal" in2="BackgroundImageFix" result="effect1_dropShadow_340_2852"/>
<feBlend mode="normal" in="SourceGraphic" in2="effect1_dropShadow_340_2852" result="shape"/>
</filter>
<filter id="filter1_d_340_2852" x="35.6015" y="-6.22272e-05" width="77.0978" height="77.0983" filterUnits="userSpaceOnUse" color-interpolation-filters="sRGB">
<feFlood flood-opacity="0" result="BackgroundImageFix"/>
<feColorMatrix in="SourceAlpha" type="matrix" values="0 0 0 0 0 0 0 0 0 0 0 0 0 0 0 0 0 0 127 0" result="hardAlpha"/>
<feOffset dy="2.14161"/>
<feGaussianBlur stdDeviation="6.42484"/>
<feComposite in2="hardAlpha" operator="out"/>
<feColorMatrix type="matrix" values="0 0 0 0 0 0 0 0 0 0 0 0 0 0 0 0 0 0 0.1 0"/>
<feBlend mode="normal" in2="BackgroundImageFix" result="effect1_dropShadow_340_2852"/>
<feBlend mode="normal" in="SourceGraphic" in2="effect1_dropShadow_340_2852" result="shape"/>
</filter>
<clipPath id="clip0_340_2852">
<rect width="25.6994" height="25.6994" fill="white" transform="translate(25.6992 23.5576)"/>
</clipPath>
<clipPath id="clip1_340_2852">
<rect width="25.6994" height="25.6994" fill="white" transform="translate(61.3008 23.5576)"/>
</clipPath>
</defs>
</svg>
