<svg width="139" height="44" viewBox="0 0 139 44" fill="none" xmlns="http://www.w3.org/2000/svg">
<g clip-path="url(#clip0_340_2839)">
<path d="M30.005 6.7876C34.205 6.7876 37.6098 10.193 37.6098 14.3938C37.6098 18.5947 34.205 22.0001 30.005 22.0001H17.178L7.30078 6.7876H30.005Z" fill="#202020"/>
<path d="M27.0548 37.2125H16.6272L6.75 22H17.1779L27.0548 37.2125Z" fill="#202020"/>
</g>
<path d="M49.5211 33V11.0896H57.6989C60.2088 11.0896 62.1633 11.6966 63.5623 12.9104C64.9612 14.1036 65.6607 15.77 65.6607 17.9096C65.6607 19.3292 65.3418 20.5636 64.7041 21.6128C64.0663 22.6414 63.1508 23.4335 61.9576 23.989C60.7849 24.5239 59.3653 24.7913 57.6989 24.7913H52.854V33H49.5211ZM52.854 21.7671H57.6063C59.1082 21.7671 60.25 21.4482 61.0318 20.8104C61.8135 20.1521 62.2044 19.1852 62.2044 17.9096C62.2044 16.6547 61.8135 15.7186 61.0318 15.1014C60.25 14.4636 59.1082 14.1448 57.6063 14.1448H52.854V21.7671ZM72.2717 33C71.2019 33 70.3378 32.7223 69.6795 32.1668C69.0211 31.6113 68.6919 30.7267 68.6919 29.5129V11.0896H71.9631V29.2043C71.9631 29.5746 72.0557 29.8523 72.2408 30.0375C72.4465 30.2226 72.7346 30.3152 73.1049 30.3152H74.401V33H72.2717ZM81.7591 33.3703C80.1132 33.3703 78.7966 32.8251 77.809 31.7348C76.8421 30.6238 76.3586 29.0911 76.3586 27.1367V16.5827H79.6298V26.3035C79.6298 27.7847 79.8869 28.8751 80.4013 29.5746C80.9156 30.2741 81.6974 30.6238 82.7466 30.6238C83.9398 30.6238 84.8656 30.2432 85.524 29.482C86.2029 28.7002 86.5423 27.6098 86.5423 26.2109V16.5827H89.8135V33H86.7583L86.6966 28.7105L87.1595 28.8957C86.8715 30.3358 86.2646 31.4467 85.3388 32.2285C84.413 32.9897 83.2198 33.3703 81.7591 33.3703ZM100.126 33.3703C98.5623 33.3703 97.1942 33.0206 96.0215 32.3211C94.8489 31.6216 93.9437 30.6238 93.3059 29.3277C92.6681 28.0316 92.3492 26.5195 92.3492 24.7913C92.3492 23.0632 92.6681 21.5614 93.3059 20.2858C93.9437 18.9897 94.8489 17.9919 96.0215 17.2924C97.1942 16.5724 98.5623 16.2124 100.126 16.2124C101.463 16.2124 102.646 16.4489 103.675 16.9221C104.724 17.3747 105.567 18.0434 106.205 18.928C106.864 19.8126 107.285 20.8927 107.47 22.1683L104.045 22.3534C103.88 21.2836 103.448 20.471 102.749 19.9155C102.049 19.3395 101.175 19.0514 100.126 19.0514C98.7475 19.0514 97.6674 19.5658 96.8856 20.5944C96.1244 21.6025 95.7438 23.0015 95.7438 24.7913C95.7438 26.5812 96.1244 27.9905 96.8856 29.0191C97.6674 30.0272 98.7475 30.5312 100.126 30.5312C101.175 30.5312 102.049 30.2432 102.749 29.6672C103.448 29.0705 103.88 28.1756 104.045 26.9824L107.47 27.1675C107.285 28.4225 106.864 29.5129 106.205 30.4386C105.567 31.3644 104.724 32.0845 103.675 32.5988C102.646 33.1132 101.463 33.3703 100.126 33.3703ZM109.683 33V16.5827H112.955V33H109.683ZM109.622 14.2065V10.9354H113.016V14.2065H109.622ZM121.104 33.3703C119.397 33.3703 118.029 32.9794 117 32.1976C115.992 31.4159 115.488 30.3152 115.488 28.8957C115.488 27.4761 115.91 26.3755 116.753 25.5937C117.617 24.7913 118.944 24.2153 120.734 23.8655L126.381 22.7855C126.381 21.5099 126.083 20.5636 125.486 19.9464C124.89 19.3086 124.005 18.9897 122.833 18.9897C121.783 18.9897 120.96 19.2263 120.364 19.6995C119.767 20.1521 119.356 20.831 119.129 21.7362L115.766 21.5202C116.074 19.8744 116.835 18.5783 118.049 17.6319C119.284 16.6855 120.878 16.2124 122.833 16.2124C125.054 16.2124 126.741 16.809 127.894 18.0022C129.066 19.1749 129.653 20.831 129.653 22.9706V29.3586C129.653 29.7495 129.714 30.0272 129.838 30.1918C129.982 30.3358 130.208 30.4078 130.517 30.4078H131.103V33C131 33.0206 130.835 33.0411 130.609 33.0617C130.383 33.0823 130.146 33.0926 129.899 33.0926C129.2 33.0926 128.593 32.9794 128.079 32.7531C127.585 32.5268 127.215 32.1565 126.968 31.6422C126.721 31.1073 126.597 30.3975 126.597 29.5129L126.937 29.6672C126.772 30.3872 126.412 31.025 125.857 31.5805C125.322 32.1359 124.633 32.5783 123.789 32.9074C122.966 33.216 122.071 33.3703 121.104 33.3703ZM121.629 30.7781C122.617 30.7781 123.46 30.5929 124.16 30.2226C124.859 29.8317 125.404 29.2968 125.795 28.6179C126.186 27.939 126.381 27.1675 126.381 26.3035V25.2542L121.567 26.18C120.58 26.3652 119.88 26.6635 119.469 27.0749C119.078 27.4658 118.883 27.9699 118.883 28.5871C118.883 29.2866 119.119 29.8317 119.592 30.2226C120.086 30.5929 120.765 30.7781 121.629 30.7781Z" fill="#202020"/>
<defs>
<clipPath id="clip0_340_2839">
<rect width="30.8596" height="30.8596" fill="white" transform="translate(6.75 6.57031)"/>
</clipPath>
</defs>
</svg>
