<svg width="155" height="40" viewBox="0 0 155 40" fill="none" xmlns="http://www.w3.org/2000/svg">
<path d="M12.2841 4.40738C13.3843 4.33781 15.146 4.38687 16.2736 4.38747L23.8826 4.39237L29.6188 4.39043C30.9148 4.39002 32.1052 4.37422 33.4323 4.49704C35.2926 4.66919 37.2949 6.44642 37.5872 8.30049C37.776 9.49751 37.6907 11.333 37.6914 12.601L37.6941 19.4959L37.6938 26.4808C37.6932 28.531 38.0382 31.202 36.6939 32.8591C35.6368 34.162 34.6998 34.6 33.0361 34.8104C28.4762 34.889 23.7312 34.8222 19.166 34.8302L14.437 34.8314C13.4863 34.8291 12.4942 34.8548 11.5522 34.7486C9.34269 34.478 7.58666 32.5335 7.41499 30.3373C7.29955 28.8601 7.33581 27.4472 7.33838 25.9753L7.33797 18.9703L7.33605 12.5652C7.33505 9.59386 6.959 6.46306 10.203 4.90895C10.8793 4.58499 11.5461 4.49158 12.2841 4.40738Z" fill="#0A0B0C"/>
<path d="M32.8658 9.25439L32.9012 9.2883C32.8755 9.70842 21.003 27.5609 19.7877 29.9836L15.3927 29.9781C15.8957 29.4442 16.5203 28.2818 16.9618 27.6178C18.2841 25.6287 19.5368 23.4078 20.8868 21.459C22.6398 18.6188 24.5069 15.7338 26.3119 12.9231C21.721 13.0881 16.782 12.8252 12.1406 12.9574C12.9555 11.7404 13.6582 10.5499 14.5109 9.33164C16.6525 9.23476 19.3837 9.30823 21.5664 9.30876C25.333 9.31707 29.0995 9.29894 32.8658 9.25439Z" fill="#C6FE3D"/>
<path d="M12.1826 15.2556C15.3292 15.1684 18.8618 15.2295 22.0249 15.2483C21.3051 16.5523 20.4435 17.7073 19.6893 18.9961C19.2348 19.8045 18.7073 20.3471 18.2872 21.2714C16.4368 19.3058 14.1288 17.2235 12.1826 15.2556Z" fill="#C6FE3D"/>
<path d="M88.8542 12.3087C89.785 12.2873 90.7166 12.2871 91.6474 12.3081C91.528 16.8612 91.658 21.8879 91.6315 26.4907C90.7687 26.4401 89.7412 26.4557 88.8678 26.4509L88.901 24.5957C87.4745 26.4445 86.818 26.8915 84.3987 26.3857C83.4014 25.9176 82.726 25.3984 82.1933 24.3971C80.9021 22.0439 81.1635 17.56 83.8079 16.1992C85.872 15.1371 87.7994 15.7924 88.8572 17.7964C88.8798 15.9863 88.8557 14.1231 88.8542 12.3087ZM86.6676 24.3592C88.864 23.9385 89.133 21.871 88.8239 19.9897C88.635 18.8435 87.841 17.981 86.6314 17.996C85.999 18.044 85.4074 18.1838 85.0221 18.7323C83.7747 20.5049 84.0217 24.1021 86.6676 24.3592Z" fill="#0A0B0C"/>
<path d="M51.0495 12.1037C53.9473 11.8734 56.6822 13.1309 57.0007 16.3151C56.0729 16.3277 55.145 16.3259 54.2173 16.3096C54.1691 16.0027 54.0681 15.678 53.9822 15.3769C53.0764 14.6457 52.6916 14.6348 51.5993 14.6221C50.5782 14.6102 49.3162 15.0864 49.4229 16.3181C49.5656 17.9655 52.7216 18.0575 53.899 18.5359C54.7288 18.873 55.4063 19.1401 56.0669 19.7635C57.5984 21.173 57.5191 23.6776 56.0916 25.1338C54.8743 26.3755 53.3726 26.5705 51.7307 26.6198C48.6317 26.5175 46.385 25.4691 46.1504 22.0458C47.045 21.9793 47.9722 21.9928 48.8712 21.9914C48.8817 22.0621 48.8931 22.1327 48.9055 22.2031C49.4177 25.0949 54.6054 24.7395 54.2542 22.1045C54.0821 20.8119 50.8486 20.367 49.693 20.0023C48.3888 19.5907 46.8784 18.7554 46.5675 17.2078C46.0892 13.9971 48.36 12.5939 51.0495 12.1037Z" fill="#0A0B0C"/>
<path d="M63.1668 15.7359C64.3758 15.5624 66.2022 16.1788 67.0347 17.0558C68.3262 18.4161 68.4392 20.0874 68.4242 21.8522C66.1 21.7913 63.5163 21.8527 61.1609 21.8506C61.1793 22.0108 61.2003 22.1708 61.2241 22.3303C61.5051 24.1886 63.4199 25.1338 65.0508 24.0983C65.3976 23.8781 65.6189 23.5475 65.8567 23.217C66.4067 23.3601 66.7172 23.434 67.2795 23.5014C67.53 23.5507 67.9856 23.6989 68.246 23.775C67.4091 25.767 66.371 26.3298 64.2654 26.5913C58.8882 27.2592 56.888 21.1485 59.7189 17.339C60.5014 16.286 61.8689 15.8549 63.1668 15.7359ZM61.1633 20.0384C61.9743 20.061 62.7858 20.0707 63.5972 20.0674C64.2898 20.0641 65.1418 20.0838 65.8215 20.0493C65.4346 18.7278 64.9992 17.7627 63.3784 17.8313C61.8485 18.1637 61.5784 18.6052 61.1633 20.0384Z" fill="#0A0B0C"/>
<path d="M75.8972 15.73C75.9901 15.7259 76.0838 15.7239 76.1767 15.7241C79.965 15.7419 79.7293 19.2112 79.727 21.8684C79.7285 23.4038 79.7202 24.9392 79.7036 26.4745C78.8324 26.4506 77.8782 26.4667 77.0003 26.4644C77.0078 24.3665 77.1294 21.5935 76.8831 19.5292C76.6784 17.8125 74.1007 17.4561 73.1169 19.2343C72.7895 20.3001 72.9118 25.0422 72.906 26.4722C71.9949 26.4835 71.0835 26.4749 70.1727 26.4462C70.1429 22.9506 70.186 19.4437 70.1289 15.9505C70.9648 15.8227 71.9085 15.8712 72.7588 15.8952L72.7797 18.0809C73.5514 16.6436 74.1633 15.8827 75.8972 15.73Z" fill="#0A0B0C"/>
<path d="M130.59 15.7372C131.561 15.5783 133.097 16.1785 133.763 16.8755C135.131 18.3067 135.244 19.688 135.236 21.5691C132.965 21.449 129.725 21.5475 127.381 21.5369C127.488 22.5518 127.577 23.3216 128.227 24.1593C129.555 25.8699 131.665 25.8489 133.279 24.635C133.417 24.5008 133.758 24.0375 133.892 23.8626C134.294 23.9671 134.759 23.9835 134.86 24.4127C134.763 24.7343 134.455 25.0453 134.238 25.3015C132.758 27.0514 129.537 27.0142 127.908 25.5161C124.857 22.7097 125.85 15.9886 130.59 15.7372ZM127.395 20.3457C128.688 20.3322 129.982 20.3269 131.275 20.3298C132.149 20.3294 133.172 20.3535 134.034 20.322C133.651 18.058 132.802 16.693 130.297 16.8547C128.453 17.1793 127.642 18.6088 127.395 20.3457Z" fill="#0A0B0C"/>
<path d="M109.872 15.7359C109.97 15.7227 110.069 15.7155 110.168 15.7145C111.885 15.6991 113.389 16.6005 114.081 18.1809C114.594 19.3561 114.619 20.301 114.617 21.5644C112.066 21.5033 109.394 21.5476 106.83 21.53C106.86 22.4707 107.04 23.3623 107.606 24.1412C108.126 24.8478 108.908 25.3166 109.777 25.4429C110.87 25.6112 111.676 25.3716 112.542 24.7361C112.844 24.4608 113.083 24.1251 113.331 23.801C113.647 23.9402 114.095 24.0917 114.427 24.2154C114.205 24.5678 113.97 24.9481 113.701 25.266C112.194 27.01 109.086 27.0358 107.388 25.5888C105.072 23.6144 105.028 19.2804 107.034 17.0648C107.769 16.2666 108.788 15.7892 109.872 15.7359ZM106.821 20.3453C108.147 20.3319 109.474 20.3269 110.8 20.3302C111.621 20.3297 112.67 20.3569 113.472 20.3193C113.057 18.0524 112.167 16.6743 109.661 16.854C107.887 17.1368 107.006 18.697 106.821 20.3453Z" fill="#0A0B0C"/>
<path d="M98.0335 12.1022C100.666 11.9089 102.924 13.0315 103.376 15.8541L102.13 15.8527C101.665 13.7021 100.043 13.2059 98.0705 13.3718C96.6168 13.4941 95.2659 14.5976 95.4374 16.1447C95.6603 18.1565 98.3372 18.3646 99.8422 18.9221C101.892 19.5852 103.853 20.643 103.486 23.1684C103.145 25.5185 101.216 26.4248 99.0746 26.6189C96.2368 26.6965 94.3578 25.857 93.7881 22.8485L95.0604 22.8115C95.3067 23.7189 95.5024 24.3381 96.3547 24.8498C98.4226 26.1682 102.961 25.2032 102.206 22.0635C101.711 20.001 97.4789 19.9341 95.9504 18.8469C94.6388 17.914 94.1356 17.4045 94.2157 15.7307C94.3223 13.5145 96.1212 12.5431 98.0335 12.1022Z" fill="#0A0B0C"/>
<path d="M141.829 15.728C141.896 15.7219 141.963 15.7188 142.03 15.7188C145.919 15.7177 145.688 18.7955 145.682 21.6018L145.659 26.4668C145.339 26.4399 144.912 26.4408 144.584 26.4314C144.624 25.1234 144.578 23.7169 144.594 22.3943C144.556 21.2676 144.681 20.0607 144.494 18.9487C144.158 16.9378 141.652 16.2303 140.106 17.3228C139.945 17.4643 139.787 17.6098 139.634 17.7591C138.8 18.5701 138.817 19.4509 138.809 20.5553C138.796 22.5177 138.825 24.478 138.798 26.4408C138.406 26.4404 138.008 26.414 137.616 26.3927C137.705 25.3538 137.621 22.6 137.625 21.4131C137.628 20.2111 137.699 16.9371 137.56 15.9435C137.961 15.9306 138.425 15.943 138.832 15.9449C138.794 16.6935 138.788 17.2004 138.824 17.9477C139.503 16.5146 140.241 15.9316 141.829 15.728Z" fill="#0A0B0C"/>
<path d="M123.766 15.9321L125.102 15.9396L124.673 16.9517C123.578 19.3947 122.737 22.3066 121.693 24.8014C121.457 25.3652 121.301 25.906 121.027 26.4664C120.676 26.4846 120.216 26.4643 119.858 26.459C119.484 25.9348 118.636 23.4532 118.35 22.7035L115.73 15.9444L117.052 15.9334C117.561 16.9621 118.279 19.2425 118.713 20.3867C119.344 22.0459 119.923 23.7126 120.435 25.413C120.533 25.154 120.612 24.8252 120.694 24.5562C121.567 21.6786 122.758 18.7499 123.766 15.9321Z" fill="#0A0B0C" fill-opacity="0.988235"/>
</svg>
