<svg preserveAspectRatio="none" width="100%" height="100%" overflow="visible" style="display: block;" viewBox="0 0 15.1181 15.1181" fill="none" xmlns="http://www.w3.org/2000/svg">
<g id="add-team-02">
<path id="Vector" d="M1.89062 12.5998V11.3214C1.89062 10.5388 2.24292 9.77143 2.95499 9.44683C3.82354 9.05093 4.86519 8.82031 5.98511 8.82031C6.76924 8.82031 7.515 8.93338 8.18984 9.13704" stroke="var(--stroke-0, black)" stroke-width="0.944882" stroke-linecap="round" stroke-linejoin="round"/>
<path id="Vector_2" d="M5.98597 6.93289C7.20361 6.93289 8.1907 5.9458 8.1907 4.72816C8.1907 3.51053 7.20361 2.52344 5.98597 2.52344C4.76834 2.52344 3.78125 3.51053 3.78125 4.72816C3.78125 5.9458 4.76834 6.93289 5.98597 6.93289Z" stroke="var(--stroke-0, black)" stroke-width="0.944882" stroke-linecap="round" stroke-linejoin="round"/>
<path id="Vector_3" d="M9.13281 2.60938C10.0435 2.88042 10.7076 3.72405 10.7076 4.7228C10.7076 5.72155 10.0435 6.5652 9.13281 6.83625" stroke="var(--stroke-0, black)" stroke-width="0.944882" stroke-linecap="round" stroke-linejoin="round"/>
<path id="Vector_4" d="M11.339 8.82031V12.5998M9.44922 10.7101H13.2287" stroke="var(--stroke-0, black)" stroke-width="0.944882" stroke-linecap="round" stroke-linejoin="round"/>
</g>
</svg>
