<svg preserveAspectRatio="none" width="100%" height="100%" overflow="visible" style="display: block;" viewBox="0 0 18.5232 18.5232" fill="none" xmlns="http://www.w3.org/2000/svg">
<g id="ai-magic">
<path id="Vector" d="M7.71511 5.40625L7.31698 6.48218C6.79492 7.89299 6.53389 8.59842 6.01929 9.11306C5.50469 9.62762 4.79928 9.88864 3.38843 10.4108L2.3125 10.8089L3.38843 11.207C4.79928 11.7291 5.50469 11.9901 6.01929 12.5047C6.53389 13.0193 6.79492 13.7247 7.31698 15.1355L7.71511 16.2115L8.11321 15.1355C8.63533 13.7247 8.89635 13.0193 9.41091 12.5047C9.92555 11.9901 10.631 11.7291 12.0418 11.207L13.1177 10.8089L12.0418 10.4108C10.631 9.88864 9.92555 9.62762 9.41091 9.11306C8.89635 8.59842 8.63533 7.89299 8.11321 6.48218L7.71511 5.40625Z" stroke="var(--stroke-0, white)" stroke-width="1.1577" stroke-linejoin="round"/>
<path id="Vector_2" d="M13.8935 2.3125L13.7229 2.77361C13.4991 3.37826 13.3873 3.68059 13.1667 3.90112C12.9462 4.12166 12.6439 4.23354 12.0393 4.45728L11.5781 4.6279L12.0393 4.79853C12.6439 5.02227 12.9462 5.13415 13.1667 5.35469C13.3873 5.57522 13.4991 5.87755 13.7229 6.4822L13.8935 6.94331L14.0642 6.4822C14.2879 5.87755 14.3998 5.57522 14.6203 5.35468C14.8408 5.13415 15.1432 5.02227 15.7478 4.79853L16.2089 4.6279L15.7478 4.45728C15.1432 4.23354 14.8408 4.12166 14.6203 3.90112C14.3998 3.68059 14.2879 3.37826 14.0642 2.77361L13.8935 2.3125Z" stroke="var(--stroke-0, white)" stroke-width="1.1577" stroke-linejoin="round"/>
</g>
</svg>
