<svg preserveAspectRatio="none" width="100%" height="100%" overflow="visible" style="display: block;" viewBox="0 0 52.8115 49.5108" fill="none" xmlns="http://www.w3.org/2000/svg">
<g id="Group">
<path id="Vector" fill-rule="evenodd" clip-rule="evenodd" d="M51.3541 0.627318C47.7101 25.5695 25.3304 37.6846 1.96712 40.4394C1.56593 40.4874 1.27748 40.8517 1.32555 41.2529C1.37362 41.654 1.73781 41.9425 2.139 41.8944C26.1568 39.0639 49.0579 26.4791 52.8035 0.838062C52.8627 0.438721 52.5854 0.0671136 52.1842 0.00795195C51.7848 -0.0512097 51.4133 0.226128 51.3541 0.627318Z" fill="var(--fill-0, black)"/>
<path id="Vector_2" fill-rule="evenodd" clip-rule="evenodd" d="M2.49222 41.1165C3.53125 40.3566 4.84575 39.4174 4.99181 39.3065C8.95009 36.3004 12.2299 32.8413 15.1177 28.7831C15.3525 28.4541 15.2748 27.9955 14.9457 27.7608C14.6166 27.526 14.1582 27.6036 13.9234 27.9327C11.1243 31.8688 7.94438 35.2244 4.10442 38.1399C3.88071 38.31 0.924434 40.4195 0.358701 40.8909C0.125752 41.0832 0.0536995 41.2644 0.0407579 41.3088C-0.0368917 41.5417 0.00931381 41.7247 0.072173 41.8579C0.144276 42.0076 0.323563 42.2258 0.671137 42.3367C1.03535 42.4513 1.84516 42.5031 2.04853 42.5327C5.11569 42.9875 8.57851 43.2278 11.7307 44.1005C14.7369 44.9324 17.4638 46.3412 19.2128 49.1643C19.4254 49.5082 19.8783 49.6136 20.2222 49.401C20.5661 49.1884 20.6715 48.7354 20.4589 48.3915C18.5029 45.2356 15.4819 43.6179 12.1226 42.688C8.98888 41.8209 5.55754 41.5583 2.49222 41.1165Z" fill="var(--fill-0, black)"/>
</g>
</svg>
