<svg preserveAspectRatio="none" width="100%" height="100%" overflow="visible" style="display: block;" viewBox="0 0 15.7809 15.7809" fill="none" xmlns="http://www.w3.org/2000/svg">
<g id="shopping-basket-check-in-01">
<path id="Vector" d="M9.20556 14.4724H6.57542C4.40566 14.4724 3.32077 14.4724 2.64672 13.7984C1.97266 13.1243 1.97266 12.0394 1.97266 9.86967V7.23952C1.97266 5.99966 1.97266 5.37973 2.35783 4.99455C2.74301 4.60938 3.36294 4.60938 4.6028 4.60938H9.8631C11.103 4.60938 11.7229 4.60938 12.1081 4.99455C12.4932 5.37973 12.4932 5.99966 12.4932 7.23952V7.89706" stroke="var(--stroke-0, white)" stroke-width="0.986306" stroke-linecap="round" stroke-linejoin="round"/>
<path id="Vector_2" d="M9.86577 6.25184C9.86577 3.70981 8.68818 1.32031 7.23562 1.32031C5.78303 1.32031 4.60547 3.70981 4.60547 6.25184" stroke="var(--stroke-0, white)" stroke-width="0.986306" stroke-linecap="round" stroke-linejoin="round"/>
<path id="Vector_3" d="M13.8085 11.8398C13.8085 11.8398 12.3557 9.86719 11.8359 9.86719C11.316 9.86719 9.86328 11.8398 9.86328 11.8398M11.8359 10.196V14.4699" stroke="var(--stroke-0, white)" stroke-width="0.986306" stroke-linecap="round" stroke-linejoin="round"/>
</g>
</svg>
