<svg preserveAspectRatio="none" width="100%" height="100%" overflow="visible" style="display: block;" viewBox="0 0 15.8114 15.8114" fill="none" xmlns="http://www.w3.org/2000/svg">
<g id="call-done">
<path id="Vector" d="M3.23611 6.94482L4.97565 5.2053C5.33049 4.85046 5.45327 4.32614 5.30976 3.84528C5.19754 3.46927 5.0711 3.01724 4.98706 2.6307C4.90932 2.2732 4.59562 1.97656 4.22976 1.97656H3.23611C2.5044 1.97656 1.90351 2.57202 1.98377 3.29931C2.59393 8.82789 6.98376 13.2177 12.5123 13.8279C13.2397 13.9081 13.8351 13.3073 13.8351 12.5755V11.5819C13.8351 11.2161 13.5372 10.9159 13.1773 10.8504C12.7802 10.7782 12.3601 10.6599 12.0086 10.5478C11.5036 10.3868 10.9423 10.5 10.5676 10.8747L8.86683 12.5755" stroke="var(--stroke-0, #141B34)" stroke-width="0.98821" stroke-linecap="round" stroke-linejoin="round"/>
<path id="Vector_2" d="M8.5625 5.9321C8.5625 5.9321 9.31545 5.9321 10.0683 7.24972C10.0683 7.24972 11.7071 3.95568 13.833 3.29688" stroke="var(--stroke-0, #141B34)" stroke-width="0.98821" stroke-linecap="round" stroke-linejoin="round"/>
</g>
</svg>
