<svg preserveAspectRatio="none" width="100%" height="100%" overflow="visible" style="display: block;" viewBox="0 0 34.3789 34.3789" fill="none" xmlns="http://www.w3.org/2000/svg">
<g id="call-spark-02">
<path id="Vector" d="M13.1183 8.18202L12.5415 6.88425C12.1644 6.0357 11.9758 5.61141 11.6938 5.28672C11.3404 4.8798 10.8797 4.58042 10.3643 4.42272C9.95305 4.29688 9.48874 4.29688 8.56016 4.29688C7.20176 4.29688 6.52256 4.29688 5.9524 4.558C5.28078 4.86559 4.67424 5.53348 4.43257 6.23155C4.22741 6.82414 4.28618 7.43313 4.4037 8.65111C5.65471 21.6155 12.7624 28.7232 25.7268 29.9742C26.9448 30.0918 27.5539 30.1505 28.1463 29.9454C28.8445 29.7037 29.5123 29.0971 29.82 28.4256C30.081 27.8553 30.081 27.1762 30.081 25.8178C30.081 24.8891 30.081 24.4249 29.9552 24.0136C29.7975 23.4982 29.4981 23.0375 29.0912 22.6841C28.7666 22.4021 28.3423 22.2136 27.4937 21.8364L26.1959 21.2596C25.277 20.8512 24.8174 20.6471 24.3506 20.6026C23.9037 20.5601 23.4532 20.6228 23.0349 20.7857C22.5979 20.9559 22.2117 21.2778 21.439 21.9215C20.6701 22.5624 20.2856 22.8828 19.8157 23.0544C19.3992 23.2066 18.8485 23.263 18.4099 23.1983C17.915 23.1253 17.5361 22.9229 16.7782 22.5178C14.4204 21.2579 13.1201 19.9576 11.86 17.5997C11.455 16.8419 11.2526 16.4629 11.1796 15.9681C11.115 15.5293 11.1713 14.9787 11.3235 14.5623C11.4951 14.0924 11.8156 13.7079 12.4564 12.9389C13.1002 12.1663 13.4221 11.78 13.5923 11.343C13.7552 10.9248 13.8179 10.4742 13.7754 10.0274C13.7309 9.56046 13.5267 9.10098 13.1183 8.18202Z" stroke="var(--stroke-0, #292929)" stroke-width="2" stroke-linecap="round"/>
<path id="Vector_2" d="M25.0242 4.33277C25.0341 4.28491 25.1024 4.28491 25.1122 4.33277C25.62 6.81716 27.5615 8.75869 30.046 9.26649C30.0938 9.27627 30.0938 9.34466 30.046 9.35444C27.5615 9.86223 25.62 11.8038 25.1122 14.2882C25.1024 14.3361 25.0341 14.3361 25.0242 14.2882C24.5166 11.8038 22.575 9.86223 20.0906 9.35444C20.0427 9.34466 20.0427 9.27627 20.0906 9.26649C22.575 8.75869 24.5166 6.81716 25.0242 4.33277Z" stroke="var(--stroke-0, #292929)" stroke-width="2" stroke-linejoin="round"/>
</g>
</svg>
