<svg preserveAspectRatio="none" width="100%" height="100%" overflow="visible" style="display: block;" viewBox="0 0 15.1181 15.1181" fill="none" xmlns="http://www.w3.org/2000/svg">
<g id="calling">
<path id="Vector" d="M3.09495 6.64105L4.75821 4.97779C5.0975 4.63851 5.2149 4.13719 5.07768 3.67741C4.97038 3.31788 4.84948 2.88567 4.76912 2.51609C4.6948 2.17426 4.39485 1.89062 4.04503 1.89062H3.09495C2.39532 1.89062 1.82078 2.45997 1.89752 3.15538C2.48092 8.44155 6.67828 12.6389 11.9645 13.2223C12.6599 13.2991 13.2292 12.7245 13.2292 12.0249V11.0748C13.2292 10.725 12.9444 10.438 12.6002 10.3754C12.2206 10.3064 11.8189 10.1932 11.4828 10.0861C11 9.93214 10.4633 10.0404 10.105 10.3987L8.47878 12.0249" stroke="var(--stroke-0, black)" stroke-width="0.944882" stroke-linecap="round" stroke-linejoin="round"/>
<path id="Vector_2" d="M8.1875 2.52344C10.6228 2.52344 12.5969 4.49762 12.5969 6.93289M8.1875 5.04312C9.23122 5.04312 10.0773 5.8892 10.0773 6.93289" stroke="var(--stroke-0, black)" stroke-width="0.944882" stroke-linecap="round" stroke-linejoin="round"/>
</g>
</svg>
