<svg preserveAspectRatio="none" width="100%" height="100%" overflow="visible" style="display: block;" viewBox="0 0 24.8921 24.8921" fill="none" xmlns="http://www.w3.org/2000/svg">
<g id="call-02">
<path id="Vector" d="M9.49654 5.93023L9.07891 4.99058C8.80585 4.37619 8.66931 4.06898 8.46513 3.83388C8.20922 3.53925 7.87566 3.32249 7.5025 3.2083C7.20473 3.11719 6.86856 3.11719 6.19621 3.11719C5.21266 3.11719 4.72089 3.11719 4.30806 3.30625C3.82177 3.52897 3.3826 4.01256 3.20762 4.51799C3.05908 4.94706 3.10163 5.388 3.18672 6.26988C4.09252 15.6568 9.23887 20.8031 18.6257 21.709C19.5076 21.794 19.9486 21.8365 20.3776 21.688C20.8831 21.513 21.3667 21.0739 21.5894 20.5876C21.7784 20.1748 21.7784 19.6829 21.7784 18.6994C21.7784 18.0271 21.7784 17.691 21.6873 17.3932C21.5732 17.02 21.3564 16.6865 21.0617 16.4305C20.8267 16.2264 20.5195 16.0898 19.9051 15.8167L18.9654 15.3991C18.3 15.1034 17.9673 14.9555 17.6293 14.9234C17.3057 14.8926 16.9795 14.938 16.6767 15.0559C16.3602 15.1791 16.0806 15.4122 15.5212 15.8784C14.9644 16.3423 14.686 16.5743 14.3458 16.6986C14.0442 16.8088 13.6455 16.8496 13.328 16.8028C12.9696 16.75 12.6953 16.6034 12.1465 16.3102C10.4393 15.3978 9.49786 14.4563 8.5855 12.7491C8.29226 12.2004 8.14565 11.926 8.09284 11.5677C8.04604 11.2501 8.08684 10.8514 8.19701 10.5498C8.32128 10.2097 8.55329 9.93126 9.01729 9.37444C9.48343 8.81507 9.7165 8.53539 9.83973 8.21894C9.95766 7.91612 10.0031 7.58988 9.97228 7.26637C9.94012 6.92829 9.79226 6.59561 9.49654 5.93023Z" fill="var(--fill-0, #34C759)" stroke="var(--stroke-0, #34C759)" stroke-width="1.55576" stroke-linecap="round"/>
</g>
</svg>
