<svg preserveAspectRatio="none" width="100%" height="100%" overflow="visible" style="display: block;" viewBox="0 0 12.3982 12.3982" fill="none" xmlns="http://www.w3.org/2000/svg">
<g id="call-done">
<path id="Vector" d="M2.53844 5.44266L3.90246 4.07863C4.18071 3.80039 4.27699 3.38926 4.16445 3.0122C4.07646 2.71736 3.97731 2.36291 3.91141 2.05981C3.85046 1.77948 3.60447 1.54688 3.31759 1.54688H2.53844C1.96468 1.54688 1.4935 2.01379 1.55643 2.58409C2.03488 6.91923 5.4771 10.3614 9.81224 10.8399C10.3826 10.9028 10.8495 10.4317 10.8495 9.85787V9.07875C10.8495 8.79188 10.6159 8.55652 10.3336 8.50517C10.0223 8.44856 9.69285 8.35577 9.41725 8.2679C9.02128 8.14165 8.58115 8.2304 8.28731 8.52424L6.95367 9.85787" stroke="var(--stroke-0, #141B34)" stroke-width="0.774889" stroke-linecap="round" stroke-linejoin="round"/>
<path id="Vector_2" d="M6.71484 4.65231C6.71484 4.65231 7.30526 4.65231 7.89562 5.68549C7.89562 5.68549 9.18059 3.10253 10.8476 2.58594" stroke="var(--stroke-0, #141B34)" stroke-width="0.774889" stroke-linecap="round" stroke-linejoin="round"/>
</g>
</svg>
