<svg preserveAspectRatio="none" width="100%" height="100%" overflow="visible" style="display: block;" viewBox="0 0 18.3302 18.3302" fill="none" xmlns="http://www.w3.org/2000/svg">
<g id="SVG" clip-path="url(#clip0_2877_46736)">
<path id="Vector" d="M13.852 6.03101V3.84787C14.4224 3.58134 14.8188 3.00308 14.8188 2.3356V2.28478C14.8188 1.36432 14.0678 0.608748 13.1462 0.608748H13.0953C12.1704 0.608748 11.4193 1.36432 11.4193 2.28478V2.3356C11.4193 3.00308 11.8157 3.58134 12.3861 3.84787V6.03101C11.5368 6.16202 10.7643 6.51326 10.1261 7.02375L4.14596 2.36497C4.18436 2.21363 4.21372 2.05664 4.21372 1.89627C4.21372 0.849311 3.36893 0 2.32536 0C1.28179 0 0.433612 0.844793 0.433612 1.88836C0.429094 2.93532 1.27389 3.78463 2.32084 3.78463C2.65966 3.78463 2.9759 3.6875 3.25034 3.53051L9.13453 8.11363C8.63533 8.8692 8.33943 9.77724 8.33943 10.753C8.33943 11.7706 8.6647 12.7171 9.2102 13.4941L7.41897 15.2853C7.27553 15.2424 7.1321 15.2131 6.97624 15.2131C6.11789 15.2131 5.42105 15.9099 5.42105 16.7671C5.42105 17.6243 6.11789 18.3223 6.97624 18.3223C7.83346 18.3223 8.5303 17.6243 8.5303 16.7671C8.5303 16.6113 8.50093 16.4633 8.4535 16.3244L10.2278 14.5501C11.0308 15.1667 12.0314 15.5338 13.1213 15.5338C15.7573 15.5338 17.8987 13.3925 17.8987 10.753C17.8987 8.35871 16.1413 6.38564 13.852 6.03101ZM13.1213 13.2027C11.7649 13.2027 10.6716 12.1049 10.6716 10.753C10.6716 9.39776 11.7649 8.29885 13.1213 8.29885C14.4732 8.29885 15.571 9.39776 15.571 10.753C15.571 12.1049 14.4732 13.2027 13.1213 13.2027Z" fill="var(--fill-0, #FF5C35)"/>
</g>
<defs>
<clipPath id="clip0_2877_46736">
<rect width="18.3302" height="18.3302" fill="white"/>
</clipPath>
</defs>
</svg>
