<svg preserveAspectRatio="none" width="100%" height="100%" overflow="visible" style="display: block;" viewBox="0 0 18.3302 18.3302" fill="none" xmlns="http://www.w3.org/2000/svg">
<g id="SVG">
<g id="Vector" filter="url(#filter0_f_2877_46749)">
<path d="M5.71439 14.4546L5.94776 14.5929C6.9279 15.1746 8.05171 15.4823 9.19777 15.4828H9.20017C12.7197 15.4828 15.584 12.6191 15.5854 9.0994C15.5861 7.39379 14.9225 5.78987 13.7169 4.58336C13.1256 3.98834 12.4222 3.51652 11.6473 3.1952C10.8724 2.87388 10.0415 2.70944 9.20268 2.71141C5.68046 2.71141 2.81605 5.57478 2.8148 9.09428C2.81306 10.2961 3.15149 11.4739 3.79097 12.4914L3.94289 12.7328L3.29771 15.0882L5.71439 14.4546ZM1.45312 16.913L2.54311 12.9333C1.87089 11.7687 1.51724 10.4474 1.51765 9.09376C1.51943 4.85912 4.96553 1.41406 9.20027 1.41406C11.2553 1.41511 13.1841 2.21482 14.6347 3.6665C16.0854 5.11817 16.8835 7.04775 16.8828 9.09992C16.8809 13.3342 13.4343 16.7799 9.20017 16.7799H9.19683C7.91117 16.7794 6.64786 16.4569 5.52571 15.845L1.45312 16.913Z" fill="var(--fill-0, #B3B3B3)"/>
</g>
<path id="Vector_2" d="M1.37109 16.8348L2.46108 12.8552C1.7877 11.6877 1.434 10.3634 1.43562 9.01563C1.4374 4.78099 4.8835 1.33594 9.11824 1.33594C11.1732 1.33698 13.1021 2.13669 14.5527 3.58837C16.0033 5.04005 16.8015 6.96963 16.8008 9.02179C16.7989 13.2561 13.3523 16.7018 9.11814 16.7018H9.1148C7.82914 16.7013 6.56583 16.3787 5.44368 15.7669L1.37109 16.8348Z" fill="var(--fill-0, white)"/>
<g id="Vector_3">
</g>
<path id="Vector_4" d="M9.12226 2.63283C5.60004 2.63283 2.73563 5.49619 2.73438 9.0157C2.73265 10.2175 3.07108 11.3953 3.71055 12.4128L3.86248 12.6543L3.2173 15.0097L5.63408 14.376L5.86745 14.5143C6.84759 15.096 7.9714 15.4036 9.11746 15.4042H9.11986C12.6394 15.4042 15.5038 12.5405 15.5051 9.02081C15.5078 8.1819 15.344 7.3508 15.0233 6.57562C14.7025 5.80043 14.2312 5.09657 13.6366 4.50478C13.0453 3.90975 12.3419 3.43791 11.567 3.11659C10.7921 2.79527 9.96113 2.63084 9.12226 2.63283Z" fill="url(#paint0_linear_2877_46749)"/>
<path id="Vector_5" fill-rule="evenodd" clip-rule="evenodd" d="M7.19851 5.80486C7.05463 5.48525 6.90323 5.47877 6.76655 5.47324L6.39859 5.46875C6.27058 5.46875 6.06259 5.51678 5.88675 5.7089C5.71092 5.90103 5.21484 6.36536 5.21484 7.30979C5.21484 8.25422 5.90273 9.1668 5.99858 9.29502C6.09443 9.42325 7.32653 11.4231 9.27772 12.1925C10.8992 12.832 11.2291 12.7048 11.5812 12.6728C11.9333 12.6409 12.7169 12.2085 12.8768 11.7603C13.0367 11.312 13.0368 10.928 12.9888 10.8477C12.9409 10.7674 12.8129 10.7197 12.6208 10.6236C12.4286 10.5275 11.485 10.0632 11.3091 9.99909C11.1332 9.93498 11.0053 9.90314 10.8771 10.0953C10.749 10.2874 10.3816 10.7196 10.2696 10.8477C10.1575 10.9758 10.0457 10.9919 9.85357 10.8959C9.66145 10.8 9.04331 10.5972 8.3099 9.94323C7.73928 9.43442 7.35409 8.80605 7.24195 8.61403C7.12981 8.42201 7.23005 8.31802 7.32632 8.22237C7.41246 8.13634 7.51823 7.9982 7.6144 7.88616C7.71056 7.77412 7.7422 7.69404 7.8061 7.56613C7.87 7.43822 7.83816 7.32587 7.79013 7.22991C7.7421 7.13395 7.36913 6.18451 7.19851 5.80486Z" fill="var(--fill-0, white)"/>
</g>
<defs>
<filter id="filter0_f_2877_46749" x="0.715749" y="0.676686" width="16.9044" height="16.9736" filterUnits="userSpaceOnUse" color-interpolation-filters="sRGB">
<feFlood flood-opacity="0" result="BackgroundImageFix"/>
<feBlend mode="normal" in="SourceGraphic" in2="BackgroundImageFix" result="shape"/>
<feGaussianBlur stdDeviation="0.368688" result="effect1_foregroundBlur_2877_46749"/>
</filter>
<linearGradient id="paint0_linear_2877_46749" x1="8.98976" y1="3.39923" x2="9.0545" y2="14.3132" gradientUnits="userSpaceOnUse">
<stop stop-color="#57D163"/>
<stop offset="1" stop-color="#23B33A"/>
</linearGradient>
</defs>
</svg>
