<svg preserveAspectRatio="none" width="100%" height="100%" overflow="visible" style="display: block;" viewBox="0 0 18.3302 18.3302" fill="none" xmlns="http://www.w3.org/2000/svg">
<g id="SVG" clip-path="url(#clip0_2877_46756)">
<path id="Vector" d="M1.24979 16.0386H4.16596V8.9565L0 5.83203V14.7888C0 15.4804 0.560321 16.0386 1.24979 16.0386Z" fill="var(--fill-0, #4285F4)"/>
<path id="Vector_2" d="M14.1641 16.0386H17.0802C17.7718 16.0386 18.33 15.4783 18.33 14.7888V5.83203L14.1641 8.9565" fill="var(--fill-0, #34A853)"/>
<path id="Vector_3" d="M14.1641 3.54239V8.95814L18.33 5.83367V4.16729C18.33 2.62172 16.5657 1.74062 15.3305 2.66754" fill="var(--fill-0, #FBBC04)"/>
<path id="Vector_4" d="M4.16406 8.9548V3.53906L9.16321 7.28842L14.1624 3.53906V8.9548L9.16321 12.7042" fill="var(--fill-0, #EA4335)"/>
<path id="Vector_5" d="M0 4.16729V5.83367L4.16596 8.95814V3.54239L2.99949 2.66754C1.7622 1.74062 0 2.62172 0 4.16729Z" fill="var(--fill-0, #C5221F)"/>
</g>
<defs>
<clipPath id="clip0_2877_46756">
<rect width="18.3302" height="18.3302" fill="white"/>
</clipPath>
</defs>
</svg>
