<svg preserveAspectRatio="none" width="100%" height="100%" overflow="visible" style="display: block;" viewBox="0 0 30.0983 30.0983" fill="none" xmlns="http://www.w3.org/2000/svg">
<g id="Group">
<path id="Vector" fill-rule="evenodd" clip-rule="evenodd" d="M3.34425 30.0983H26.754C28.601 30.0983 30.0983 28.601 30.0983 26.754V3.34425C30.0983 1.49727 28.601 0 26.754 0H3.34425C1.49727 0 0 1.49727 0 3.34425V26.754C0 28.601 1.49727 30.0983 3.34425 30.0983Z" fill="var(--fill-0, #007EBB)"/>
<path id="Vector_2" fill-rule="evenodd" clip-rule="evenodd" d="M25.9173 25.9173H21.4509V18.31C21.4509 16.2243 20.6584 15.0588 19.0076 15.0588C17.2117 15.0588 16.2734 16.2717 16.2734 18.31V25.9173H11.969V11.4256H16.2734V13.3776C16.2734 13.3776 17.5676 10.9828 20.6428 10.9828C23.7167 10.9828 25.9173 12.8599 25.9173 16.742V25.9173ZM6.83392 9.52799C5.36776 9.52799 4.17969 8.3306 4.17969 6.85384C4.17969 5.37708 5.36776 4.17969 6.83392 4.17969C8.30007 4.17969 9.48744 5.37708 9.48744 6.85384C9.48744 8.3306 8.30007 9.52799 6.83392 9.52799ZM4.61133 25.9173H9.09967V11.4256H4.61133V25.9173Z" fill="var(--fill-0, white)"/>
</g>
</svg>
