<svg preserveAspectRatio="none" width="100%" height="100%" overflow="visible" style="display: block;" viewBox="0 0 18.3212 12.8184" fill="none" xmlns="http://www.w3.org/2000/svg">
<g id="Layer">
<path id="Layer_2" fill-rule="evenodd" clip-rule="evenodd" d="M7.62424 1.39798C8.2149 0.782887 9.03785 0.400998 9.94753 0.400998C11.1569 0.400998 12.2122 1.07515 12.7741 2.07596C12.8994 2.02003 13.0274 1.97082 13.1578 1.92832C13.2883 1.88583 13.4208 1.85028 13.555 1.82179C13.6892 1.79331 13.8248 1.77188 13.9612 1.75764C14.0976 1.7434 14.2347 1.73634 14.3718 1.73645C16.5531 1.73645 18.3212 3.51945 18.3212 5.71919C18.3212 7.91893 16.5531 9.70192 14.3718 9.70192C14.1051 9.70192 13.845 9.67529 13.5935 9.62457C13.0989 10.5065 12.1555 11.1026 11.0733 11.1026C10.6203 11.1026 10.1916 10.9984 9.81031 10.8119C9.30858 11.9916 8.13975 12.8184 6.7779 12.8184C5.35965 12.8184 4.15053 11.9211 3.68666 10.6631C3.63501 10.674 3.58314 10.6835 3.53103 10.6917C3.47892 10.7 3.42659 10.7068 3.37413 10.7122C3.32168 10.7177 3.26899 10.7218 3.2163 10.7245C3.16362 10.7273 3.11093 10.7287 3.05813 10.7286C1.36916 10.7288 7.16593e-06 9.34597 7.16593e-06 7.64021C-0.000571804 7.37099 0.0339348 7.10293 0.102717 6.84274C0.171498 6.58255 0.273976 6.33243 0.407486 6.09865C0.541113 5.86497 0.704614 5.64971 0.893937 5.4583C1.08326 5.2669 1.29679 5.10108 1.52907 4.96491C1.48078 4.85386 1.43829 4.74038 1.40181 4.62493C1.36522 4.50949 1.33453 4.3923 1.30999 4.27373C1.28544 4.15516 1.26703 4.03531 1.25475 3.91488C1.24248 3.79446 1.23634 3.67334 1.23657 3.55233C1.23657 1.59032 2.82967 2.8737e-06 4.79492 2.8737e-06C5.06773 -0.000344509 5.33973 0.0308041 5.60548 0.0926381C5.87111 0.154588 6.12887 0.246876 6.37343 0.367765C6.61799 0.488538 6.84784 0.637218 7.05835 0.810561C7.26898 0.984021 7.45877 1.1811 7.62424 1.39798Z" fill="var(--fill-0, #00A1E0)"/>
<path id="Layer_3" fill-rule="evenodd" clip-rule="evenodd" d="M2.65272 6.6484L2.72682 6.44275C2.73863 6.40754 2.76527 6.41912 2.77615 6.42572C2.79676 6.43788 2.81159 6.449 2.83822 6.46452C3.05661 6.60254 3.25901 6.60393 3.32212 6.60393C3.48562 6.60393 3.58706 6.51743 3.58706 6.40071V6.39469C3.58706 6.26767 3.43074 6.21961 3.25021 6.16438L3.21015 6.15152C2.96223 6.08101 2.69718 5.97911 2.69718 5.66542V5.65905C2.69718 5.36135 2.93745 5.15373 3.28125 5.15373L3.31899 5.15326C3.52094 5.15326 3.71605 5.21197 3.85755 5.29766C3.87041 5.30576 3.8828 5.32047 3.87562 5.34015L3.79942 5.54581C3.78599 5.58089 3.7494 5.55762 3.7494 5.55762C3.71258 5.53851 3.67483 5.52149 3.63604 5.50667C3.59736 5.49185 3.55788 5.47934 3.5177 5.46903C3.47763 5.45873 3.43687 5.45074 3.39588 5.44506C3.35477 5.43951 3.31344 5.43615 3.2721 5.43534C3.1262 5.43534 3.0324 5.51257 3.0324 5.6176V5.6242C3.0324 5.74659 3.19313 5.79882 3.37944 5.85949L3.41151 5.86957C3.65862 5.94761 3.92228 6.05576 3.92228 6.35324V6.35937C3.92228 6.68093 3.68861 6.88056 3.31297 6.88056C3.1284 6.88056 2.95181 6.85208 2.76515 6.75296C2.72983 6.73258 2.69498 6.71498 2.66047 6.68985C2.65688 6.68464 2.64114 6.6785 2.65248 6.6484H2.65272ZM8.22866 6.44275C8.23955 6.40905 8.27104 6.42156 8.27776 6.42572C8.29826 6.43835 8.31342 6.449 8.33994 6.46452C8.55868 6.60254 8.76074 6.60393 8.82442 6.60393C8.98735 6.60393 9.0889 6.51743 9.0889 6.40071V6.39469C9.0889 6.26767 8.93281 6.21961 8.75228 6.16438L8.71222 6.15152C8.46396 6.08101 8.1989 5.97911 8.1989 5.66542V5.65905C8.1989 5.36135 8.43929 5.15373 8.7832 5.15373L8.8206 5.15326C9.02255 5.15326 9.21801 5.21197 9.35962 5.29766C9.37201 5.30576 9.38464 5.32047 9.37769 5.34015C9.37062 5.35833 9.3081 5.52658 9.30149 5.54581C9.28772 5.58089 9.25147 5.55762 9.25147 5.55762C9.21465 5.53851 9.17678 5.52149 9.13811 5.50667C9.09943 5.49185 9.05983 5.47934 9.01977 5.46903C8.97959 5.45873 8.93883 5.45074 8.89784 5.44506C8.85673 5.43951 8.81539 5.43615 8.77394 5.43534C8.62804 5.43534 8.53424 5.51257 8.53424 5.6176V5.6242C8.53424 5.74659 8.69473 5.79882 8.88128 5.85949L8.91335 5.86957C9.16046 5.94761 9.42389 6.05576 9.42389 6.35324V6.35937C9.42389 6.68093 9.19056 6.88056 8.81481 6.88056C8.63001 6.88056 8.45354 6.85208 8.26699 6.75296C8.23167 6.73258 8.19682 6.71498 8.1622 6.68985C8.15861 6.68464 8.14274 6.6785 8.15432 6.6484L8.22866 6.44275ZM12.224 5.68128C12.2548 5.78457 12.2701 5.89817 12.2701 6.01813C12.2701 6.13832 12.2548 6.25145 12.224 6.35486C12.217 6.37964 12.2086 6.40407 12.1991 6.42804C12.1895 6.45201 12.1789 6.47552 12.1668 6.49844C12.1549 6.52125 12.1418 6.5436 12.1276 6.56514C12.1133 6.58668 12.098 6.60741 12.0817 6.62744C12.0654 6.64678 12.0479 6.66519 12.0295 6.68267C12.011 6.70004 11.9916 6.71648 11.9714 6.73177C11.951 6.74694 11.9299 6.76106 11.908 6.77392C11.8861 6.78689 11.8637 6.79847 11.8405 6.80889C11.7443 6.85289 11.6313 6.87501 11.5042 6.87501C11.3772 6.87501 11.2637 6.85289 11.168 6.80889C11.1448 6.79847 11.1222 6.78689 11.1004 6.77392C11.0786 6.76106 11.0574 6.74694 11.0371 6.73177C11.0169 6.71648 10.9974 6.70004 10.979 6.68267C10.9606 6.66519 10.9431 6.64678 10.9268 6.62744C10.9105 6.60741 10.8951 6.58668 10.8809 6.56514C10.8667 6.5436 10.8536 6.52137 10.8416 6.49844C10.8296 6.47563 10.8189 6.45213 10.8092 6.42816C10.7998 6.4043 10.7914 6.37987 10.7842 6.35497C10.7764 6.32765 10.7695 6.30009 10.7636 6.2723C10.7578 6.24439 10.753 6.21637 10.749 6.18823C10.7452 6.16009 10.7424 6.13172 10.7406 6.10335C10.7387 6.07498 10.7379 6.04661 10.7382 6.01813C10.7382 5.89794 10.7537 5.78457 10.7842 5.68128C10.8152 5.57707 10.863 5.48536 10.9265 5.40882C10.943 5.38937 10.9605 5.37084 10.9789 5.35336C10.9974 5.33575 11.0168 5.31931 11.0371 5.30391C11.0574 5.28851 11.0785 5.27427 11.1004 5.26118C11.1222 5.24821 11.1448 5.23629 11.168 5.22575C11.264 5.18094 11.3768 5.15824 11.5042 5.15824C11.6316 5.15824 11.7445 5.18094 11.8405 5.22575C11.9363 5.27045 12.0176 5.33193 12.0817 5.40882C12.1454 5.48536 12.1936 5.57707 12.224 5.68128ZM11.8099 5.59351C11.7438 5.49416 11.6437 5.44611 11.5042 5.44611C11.3647 5.44611 11.2654 5.49416 11.2001 5.59351C11.1345 5.69367 11.1011 5.83645 11.1011 6.01813C11.1011 6.19958 11.1345 6.3434 11.2004 6.44437C11.2654 6.54488 11.3647 6.59351 11.5042 6.59351C11.6437 6.59351 11.7438 6.54465 11.8099 6.44437C11.8765 6.3434 11.9106 6.19958 11.9106 6.01813C11.9106 5.83645 11.8769 5.69367 11.8099 5.59351ZM14.8003 6.54488L14.8773 6.75759C14.8873 6.78364 14.8647 6.79499 14.8647 6.79499C14.7459 6.84108 14.581 6.87396 14.4205 6.87396C14.1484 6.87396 13.94 6.79569 13.8009 6.64099C13.6626 6.48675 13.5921 6.27704 13.5921 6.01697C13.5921 5.89655 13.6096 5.7826 13.6437 5.67943C13.6777 5.57533 13.7288 5.48351 13.7962 5.40708C13.8135 5.38751 13.8319 5.36887 13.8514 5.35127C13.8708 5.33367 13.8912 5.31711 13.9124 5.30171C13.9337 5.28643 13.9557 5.27218 13.9785 5.25921C14.0012 5.24613 14.0247 5.23443 14.0488 5.22401C14.149 5.17932 14.2667 5.15685 14.3983 5.15685C14.487 5.15685 14.566 5.1623 14.6337 5.17237C14.706 5.18349 14.8024 5.20954 14.8431 5.2254C14.8505 5.22818 14.8711 5.23826 14.8627 5.26246C14.8331 5.34594 14.8128 5.40048 14.7854 5.47656C14.7733 5.50898 14.7489 5.49821 14.7489 5.49821C14.6457 5.46579 14.5467 5.45097 14.4175 5.45097C14.2622 5.45097 14.1455 5.50261 14.0694 5.6037C13.9924 5.70572 13.9494 5.83923 13.9488 6.01697C13.9482 6.21185 13.9971 6.35625 14.0837 6.44553C14.1701 6.53469 14.2906 6.57973 14.4425 6.57973C14.504 6.57973 14.5621 6.57568 14.6145 6.56757C14.6661 6.55935 14.7146 6.54326 14.7603 6.52542C14.7603 6.52542 14.7898 6.51442 14.8003 6.54488ZM16.4368 6.07927C16.4342 6.10648 16.4062 6.10683 16.4062 6.10683L15.3444 6.10602C15.351 6.26732 15.3897 6.38149 15.4679 6.45896C15.5445 6.53492 15.6663 6.58355 15.8314 6.58378C16.0833 6.58436 16.191 6.53364 16.2673 6.50539C16.2673 6.50539 16.2964 6.49497 16.3074 6.5238L16.3765 6.71834C16.3905 6.75099 16.3793 6.76245 16.3675 6.76905C16.301 6.80564 16.1397 6.8742 15.8327 6.87501C15.6838 6.87558 15.5541 6.85428 15.4474 6.81282C15.4221 6.80356 15.3974 6.79268 15.3734 6.78052C15.3494 6.76836 15.326 6.75481 15.3036 6.73987C15.2811 6.72505 15.2596 6.70884 15.239 6.69147C15.2183 6.6741 15.1988 6.65558 15.1802 6.63601C15.1626 6.61678 15.1461 6.59652 15.1307 6.57545C15.1153 6.55437 15.101 6.53249 15.0881 6.50979C15.0751 6.4871 15.0635 6.4637 15.0531 6.43974C15.0428 6.41577 15.0338 6.39122 15.0262 6.36621C15.018 6.33876 15.0108 6.31109 15.0047 6.28307C14.9986 6.25516 14.9935 6.22691 14.9895 6.19854C14.9855 6.17028 14.9826 6.1418 14.9807 6.1132C14.9789 6.08459 14.9781 6.05599 14.9783 6.02739C14.9783 5.9072 14.9937 5.79303 15.0248 5.6887C15.0559 5.58355 15.1042 5.4908 15.1684 5.41287C15.1851 5.39307 15.2027 5.3742 15.2215 5.35637C15.2401 5.33853 15.2598 5.32174 15.2804 5.30611C15.3009 5.29036 15.3223 5.27589 15.3446 5.26269C15.3667 5.24937 15.3896 5.23733 15.4131 5.22656C15.5105 5.18071 15.6311 5.15824 15.7637 5.15824C15.8774 5.15824 15.9812 5.18267 16.0676 5.21996C16.134 5.24845 16.201 5.29986 16.2695 5.37362C16.3128 5.42005 16.3787 5.52184 16.4053 5.62211C16.4737 5.86134 16.438 6.0678 16.4368 6.07927ZM16.1068 5.84386C16.099 5.74659 16.08 5.65917 16.0363 5.59351C15.9697 5.49416 15.878 5.43951 15.7387 5.43951C15.5993 5.43951 15.5003 5.49416 15.4348 5.59351C15.3919 5.65917 15.3642 5.74289 15.3492 5.84386H16.1068ZM7.93235 6.07927C7.92957 6.10648 7.90154 6.10683 7.90154 6.10683L6.83948 6.10602C6.84631 6.26732 6.88476 6.38149 6.96315 6.45896C7.03992 6.53492 7.1615 6.58355 7.3264 6.58378C7.57848 6.58436 7.68651 6.53364 7.76259 6.50539C7.76259 6.50539 7.79166 6.49497 7.80254 6.5238L7.8719 6.71834C7.88591 6.75099 7.87468 6.76245 7.86299 6.76905C7.79606 6.80564 7.63464 6.8742 7.32802 6.87501C7.17899 6.87558 7.0493 6.85428 6.94265 6.81282C6.91741 6.80356 6.89275 6.79268 6.86866 6.78052C6.84469 6.76824 6.8213 6.7547 6.79884 6.73987C6.77637 6.72494 6.75472 6.70884 6.73411 6.69147C6.7135 6.6741 6.69393 6.65558 6.6754 6.63601C6.6578 6.61678 6.64124 6.59652 6.62596 6.57545C6.61056 6.55437 6.59643 6.53237 6.58346 6.50967C6.57049 6.4871 6.55891 6.4637 6.54861 6.43974C6.5383 6.41577 6.52927 6.39122 6.52174 6.36621C6.51341 6.33876 6.50623 6.31109 6.50009 6.28307C6.49395 6.25516 6.48874 6.22691 6.4848 6.19865C6.48075 6.17028 6.47774 6.1418 6.47589 6.1132C6.47392 6.08459 6.47311 6.05599 6.47346 6.02739C6.47346 5.9072 6.48909 5.79303 6.51989 5.6887C6.52707 5.66357 6.53552 5.6389 6.54525 5.61459C6.55498 5.59039 6.56586 5.56665 6.5779 5.54349C6.58995 5.52033 6.60326 5.49787 6.6175 5.47598C6.63186 5.45421 6.64738 5.43314 6.66382 5.41287C6.68038 5.39307 6.6981 5.3742 6.71674 5.35637C6.7355 5.33853 6.75507 5.32174 6.77568 5.30611C6.79617 5.29048 6.8176 5.27601 6.83971 5.26269C6.86195 5.24937 6.88476 5.23733 6.90826 5.22656C7.00599 5.18071 7.12665 5.15824 7.25889 5.15824C7.28494 5.15824 7.311 5.15952 7.33693 5.16206C7.36287 5.16461 7.38858 5.16855 7.41417 5.17364C7.43964 5.17885 7.46488 5.18534 7.48978 5.1931C7.51468 5.20074 7.53911 5.20977 7.56308 5.21996C7.62954 5.24845 7.69647 5.29986 7.76479 5.37362C7.8081 5.42005 7.8741 5.52184 7.9005 5.62211C7.96859 5.86134 7.9335 6.0678 7.93235 6.07927ZM7.6021 5.84386C7.59411 5.74659 7.57512 5.65917 7.53158 5.59351C7.46546 5.49416 7.37329 5.43951 7.23411 5.43951C7.09458 5.43951 6.99546 5.49416 6.93026 5.59351C6.88696 5.65917 6.85951 5.74289 6.84411 5.84386H7.6021ZM5.1468 5.81387V5.76894C5.1468 5.62732 5.11728 5.56063 5.05938 5.51605C5.00009 5.47077 4.91151 5.44726 4.79687 5.44726C4.79687 5.44726 4.53842 5.44414 4.33405 5.55507C4.32467 5.56063 4.31679 5.56387 4.31679 5.56387C4.31679 5.56387 4.2912 5.5729 4.28194 5.54662L4.20679 5.34479C4.19521 5.31572 4.21617 5.30252 4.21617 5.30252C4.31181 5.22795 4.5434 5.18291 4.5434 5.18291C4.56691 5.17885 4.59053 5.17515 4.61415 5.17202C4.63777 5.1689 4.66151 5.16612 4.68525 5.16392C4.70899 5.16183 4.73284 5.1601 4.75669 5.15882C4.78043 5.15766 4.80428 5.15697 4.82814 5.15674C5.04016 5.15674 5.20424 5.20595 5.31586 5.30345C5.42772 5.40141 5.48458 5.55924 5.48458 5.77195L5.48515 6.743C5.48515 6.743 5.48735 6.77102 5.46072 6.77739C5.46072 6.77739 5.4217 6.78828 5.38661 6.7965C5.35118 6.8046 5.22334 6.83066 5.1189 6.84837C5.09226 6.85277 5.06552 6.85671 5.03877 6.86007C5.0119 6.86343 4.98504 6.86621 4.95818 6.86841C4.9312 6.87072 4.90433 6.87234 4.87735 6.8735C4.85037 6.87454 4.82328 6.87512 4.7963 6.87512C4.69312 6.87512 4.59852 6.86551 4.51515 6.84652C4.49581 6.84247 4.4767 6.83749 4.45783 6.83147C4.43895 6.82545 4.42043 6.8185 4.40236 6.81062C4.38418 6.80275 4.36647 6.79395 4.34921 6.78434C4.33196 6.77473 4.31517 6.76419 4.29896 6.75273C4.28425 6.74207 4.27024 6.73049 4.25693 6.7181C4.24361 6.7056 4.2311 6.6924 4.21952 6.67839C4.20783 6.66438 4.19706 6.64967 4.18722 6.63439C4.17738 6.6191 4.16858 6.60312 4.1607 6.58679C4.12805 6.5201 4.11161 6.43858 4.11161 6.34444C4.11161 6.25203 4.13106 6.1697 4.16858 6.09965C4.20621 6.02994 4.25785 5.97089 4.32281 5.92457C4.33949 5.91287 4.35674 5.90176 4.37446 5.89157C4.39217 5.88138 4.41035 5.87188 4.42888 5.86331C4.44752 5.85474 4.4664 5.84687 4.48562 5.84004C4.50484 5.83309 4.52441 5.82707 4.54421 5.82186C4.627 5.79986 4.71501 5.78839 4.80591 5.78839C4.8726 5.78839 4.9283 5.78978 4.97161 5.79326C4.97161 5.79326 5.05544 5.80067 5.1468 5.81387ZM4.86045 6.60092C5.01225 6.59177 5.14692 6.56294 5.14692 6.56294V6.08019C5.14692 6.08019 5.01109 6.05796 4.85859 6.05576C4.6424 6.05322 4.55023 6.13265 4.55081 6.13253C4.48713 6.17781 4.45609 6.24485 4.45609 6.33784C4.45609 6.39724 4.46675 6.44379 4.48817 6.47621C4.5016 6.49763 4.50739 6.50562 4.54908 6.53909C4.5485 6.53886 4.64426 6.61424 4.86045 6.60092ZM13.4566 5.46892C13.4498 5.48733 13.4386 5.49995 13.418 5.49775C13.418 5.49775 13.3571 5.48374 13.3014 5.48374C13.2632 5.48374 13.2084 5.4886 13.1591 5.50377C13.1468 5.50759 13.1347 5.51211 13.123 5.51732C13.1112 5.52253 13.0998 5.52855 13.0888 5.53515C13.0778 5.54175 13.0671 5.54905 13.057 5.55704C13.0469 5.56491 13.0371 5.57336 13.0281 5.58251C12.9892 5.61991 12.9577 5.6726 12.9349 5.73872C12.9116 5.80518 12.8997 5.91102 12.8997 6.01709V6.80784C12.8997 6.81213 12.8989 6.8163 12.8972 6.82023C12.8956 6.82406 12.8933 6.82765 12.8903 6.83066C12.8873 6.83367 12.8838 6.83598 12.8799 6.8376C12.8759 6.83922 12.8718 6.84015 12.8676 6.84015H12.5889C12.5846 6.84015 12.5803 6.83934 12.5764 6.83784C12.5724 6.83621 12.5689 6.8339 12.5657 6.83089C12.5627 6.82788 12.5603 6.8244 12.5587 6.82047C12.5569 6.81653 12.556 6.81236 12.556 6.80808V5.22482C12.556 5.20699 12.569 5.19275 12.5868 5.19275H12.8588C12.8768 5.19275 12.8896 5.20699 12.8896 5.22482V5.35417C12.9302 5.29974 13.0032 5.25157 13.0692 5.22193C13.1353 5.19194 13.2092 5.16994 13.3428 5.17793C13.4124 5.1821 13.5027 5.2012 13.521 5.20815C13.5245 5.20954 13.5277 5.21174 13.5305 5.2144C13.5333 5.21707 13.5354 5.22031 13.5369 5.2239C13.5384 5.22737 13.5391 5.23119 13.5391 5.23501C13.5391 5.23883 13.5383 5.24266 13.5368 5.24625C13.5268 5.27531 13.4753 5.42063 13.4566 5.46892ZM10.9375 4.5494L10.856 4.7723C10.8492 4.78921 10.8448 4.79917 10.8102 4.78874C10.7987 4.78515 10.7871 4.78203 10.7754 4.77925C10.7637 4.77659 10.7519 4.77427 10.7401 4.77242C10.7283 4.77056 10.7164 4.76917 10.7045 4.76825C10.6924 4.76732 10.6805 4.76674 10.6684 4.76674C10.6264 4.76674 10.5883 4.77219 10.5546 4.7833C10.5463 4.78608 10.5381 4.78921 10.5301 4.79291C10.5221 4.79662 10.5143 4.80079 10.5068 4.80542C10.4994 4.80993 10.4921 4.81503 10.4853 4.82059C10.4784 4.82603 10.4718 4.83193 10.4657 4.83819C10.4575 4.84618 10.4497 4.85451 10.4424 4.86332C10.4351 4.87212 10.4284 4.88126 10.4222 4.89076C10.4159 4.90025 10.4101 4.91021 10.405 4.92029C10.3998 4.93048 10.3952 4.9409 10.3911 4.95155C10.3521 5.06375 10.337 5.18337 10.3351 5.1909H10.6745C10.7032 5.1909 10.7121 5.20421 10.7093 5.22517L10.6697 5.44588C10.6632 5.47795 10.6342 5.47679 10.6342 5.47679H10.2844L10.0454 6.82985C10.0401 6.86018 10.0344 6.89041 10.0279 6.92051C10.0214 6.9505 10.0143 6.98049 10.0064 7.01025C9.99869 7.04001 9.99024 7.06954 9.98121 7.09895C9.97206 7.12825 9.96233 7.15743 9.95191 7.18638C9.91451 7.28434 9.87583 7.3559 9.81365 7.4241C9.80045 7.43939 9.78632 7.45374 9.77139 7.46718C9.75645 7.48061 9.74059 7.49311 9.72414 7.50469C9.70758 7.51616 9.69033 7.52669 9.6725 7.53596C9.65478 7.54534 9.63637 7.55367 9.6175 7.56074C9.54397 7.58783 9.45457 7.60161 9.35696 7.60161C9.31053 7.60161 9.26039 7.60057 9.20133 7.58656C9.19311 7.58471 9.18489 7.58274 9.17667 7.58054C9.16856 7.57845 9.16046 7.57614 9.15235 7.57382C9.14425 7.57151 9.13614 7.56896 9.12815 7.5663C9.12005 7.56375 9.11206 7.56097 9.10418 7.55819C9.0911 7.55356 9.08044 7.53688 9.08809 7.51569C9.09538 7.49462 9.15826 7.32255 9.16671 7.29997C9.17748 7.27276 9.20515 7.28318 9.20515 7.28318C9.22391 7.29117 9.23723 7.29638 9.26224 7.30136C9.28772 7.30634 9.32176 7.31074 9.34758 7.31074C9.3939 7.31074 9.43593 7.30518 9.47264 7.29279C9.51676 7.27855 9.54281 7.25273 9.56956 7.21822C9.5977 7.18198 9.62051 7.13288 9.6439 7.06699C9.6674 7.00029 9.68883 6.91218 9.70724 6.80541L9.94531 5.47691H9.71083C9.6828 5.47691 9.67319 5.46371 9.67644 5.44252L9.71569 5.22181C9.72194 5.18974 9.7517 5.1909 9.7517 5.1909H9.99244L10.0054 5.11922C10.0415 4.90616 10.113 4.74405 10.2188 4.63775C10.3252 4.53064 10.4765 4.47656 10.6684 4.47656C10.7233 4.47656 10.7718 4.48015 10.813 4.48756C10.8533 4.49509 10.8838 4.50215 10.918 4.51257C10.9254 4.51559 10.9455 4.52543 10.9375 4.5494ZM6.14344 6.84015H5.86195C5.84388 6.84015 5.83161 6.82568 5.83161 6.80808V4.54222C5.83161 4.52473 5.84412 4.51037 5.86172 4.51037H6.14344C6.16151 4.51037 6.1739 4.52473 6.1739 4.54245V6.80784C6.1739 6.82591 6.16151 6.84015 6.14344 6.84015Z" fill="var(--fill-0, white)"/>
</g>
</svg>
