<svg preserveAspectRatio="none" width="100%" height="100%" overflow="visible" style="display: block;" viewBox="0 0 18.3302 18.3302" fill="none" xmlns="http://www.w3.org/2000/svg">
<g id="Group">
<path id="Vector" fill-rule="evenodd" clip-rule="evenodd" d="M2.03669 18.3302H16.2935C17.4183 18.3302 18.3302 17.4183 18.3302 16.2935V2.03669C18.3302 0.911857 17.4183 0 16.2935 0H2.03669C0.911857 0 0 0.911857 0 2.03669V16.2935C0 17.4183 0.911857 18.3302 2.03669 18.3302Z" fill="var(--fill-0, #007EBB)"/>
<path id="Vector_2" fill-rule="evenodd" clip-rule="evenodd" d="M15.7854 15.7854H13.0653V11.1524C13.0653 9.8822 12.5826 9.17236 11.5772 9.17236C10.4835 9.17236 9.91207 9.91106 9.91207 11.1524V15.7854H7.29066V6.9597H9.91207V8.14852C9.91207 8.14852 10.7003 6.69006 12.5731 6.69006C14.4451 6.69006 15.7854 7.83322 15.7854 10.1975V15.7854ZM4.16333 5.80405C3.27042 5.80405 2.54688 5.07483 2.54688 4.17546C2.54688 3.2761 3.27042 2.54688 4.16333 2.54688C5.05624 2.54688 5.77936 3.2761 5.77936 4.17546C5.77936 5.07483 5.05624 5.80405 4.16333 5.80405ZM2.80975 15.7854H5.5432V6.9597H2.80975V15.7854Z" fill="var(--fill-0, white)"/>
</g>
</svg>
