<svg preserveAspectRatio="none" width="100%" height="100%" overflow="visible" style="display: block;" viewBox="0 0 30.0983 30.0983" fill="none" xmlns="http://www.w3.org/2000/svg">
<g id="SVG" clip-path="url(#clip0_2877_46915)">
<path id="Vector" d="M2.05215 26.3335H6.84052V14.7046L0 9.57422V24.2813C0 25.4169 0.920049 26.3335 2.05215 26.3335Z" fill="var(--fill-0, #4285F4)"/>
<path id="Vector_2" d="M23.2578 26.3335H28.0462C29.1817 26.3335 30.0983 25.4134 30.0983 24.2813V9.57422L23.2578 14.7046" fill="var(--fill-0, #34A853)"/>
<path id="Vector_3" d="M23.2578 5.81188V14.7046L30.0983 9.57417V6.83796C30.0983 4.30013 27.2014 2.85336 25.1732 4.37537" fill="var(--fill-0, #FBBC04)"/>
<path id="Vector_4" d="M6.83984 14.7052V5.8125L15.0485 11.969L23.2571 5.8125V14.7052L15.0485 20.8616" fill="var(--fill-0, #EA4335)"/>
<path id="Vector_5" d="M0 6.83796V9.57417L6.84052 14.7046V5.81188L4.92517 4.37537C2.89354 2.85336 0 4.30013 0 6.83796Z" fill="var(--fill-0, #C5221F)"/>
</g>
<defs>
<clipPath id="clip0_2877_46915">
<rect width="30.0983" height="30.0983" fill="white"/>
</clipPath>
</defs>
</svg>
