<svg preserveAspectRatio="none" width="100%" height="100%" overflow="visible" style="display: block;" viewBox="0 0 30.0983 30.0983" fill="none" xmlns="http://www.w3.org/2000/svg">
<g id="SVG" clip-path="url(#clip0_2877_46857)">
<path id="Vector" d="M22.7441 9.90294V6.31823C23.6806 5.88057 24.3315 4.93107 24.3315 3.83507V3.75162C24.3315 2.24022 23.0983 0.999567 21.585 0.999567H21.5016C19.9828 0.999567 18.7495 2.24022 18.7495 3.75162V3.83507C18.7495 4.93107 19.4005 5.88057 20.337 6.31823V9.90294C18.9424 10.1181 17.6739 10.6948 16.6261 11.533L6.80666 3.88329C6.86971 3.63479 6.91792 3.37701 6.91792 3.11368C6.91792 1.39457 5.53077 0 3.81723 0C2.10368 0 0.710967 1.38715 0.710967 3.1007C0.703549 4.8198 2.0907 6.21437 3.80981 6.21437C4.36615 6.21437 4.88541 6.05489 5.33605 5.79712L14.9979 13.3226C14.1782 14.5633 13.6924 16.0543 13.6924 17.6565C13.6924 19.3274 14.2264 20.8815 15.1222 22.1574L12.181 25.0986C11.9454 25.0281 11.7099 24.9799 11.454 24.9799C10.0446 24.9799 8.90037 26.1241 8.90037 27.5317C8.90037 28.9392 10.0446 30.0853 11.454 30.0853C12.8615 30.0853 14.0058 28.9392 14.0058 27.5317C14.0058 27.2757 13.9575 27.0328 13.8797 26.8047L16.7931 23.8913C18.1116 24.9039 19.7547 25.5066 21.5442 25.5066C25.8726 25.5066 29.3887 21.9905 29.3887 17.6565C29.3887 13.725 26.5031 10.4853 22.7441 9.90294ZM21.5442 21.6789C19.317 21.6789 17.5219 19.8764 17.5219 17.6565C17.5219 15.4312 19.317 13.6267 21.5442 13.6267C23.7641 13.6267 25.5666 15.4312 25.5666 17.6565C25.5666 19.8764 23.7641 21.6789 21.5442 21.6789Z" fill="var(--fill-0, #FF5C35)"/>
</g>
<defs>
<clipPath id="clip0_2877_46857">
<rect width="30.0983" height="30.0983" fill="white"/>
</clipPath>
</defs>
</svg>
