<svg preserveAspectRatio="none" width="100%" height="100%" overflow="visible" style="display: block;" viewBox="0 0 30.0983 30.0983" fill="none" xmlns="http://www.w3.org/2000/svg">
<g id="SVG">
<g id="Vector" filter="url(#filter0_f_2877_46862)">
<path d="M9.37983 23.7369L9.76302 23.9639C11.3724 24.919 13.2177 25.4243 15.0996 25.4251H15.1035C20.8825 25.4251 25.5857 20.723 25.5881 14.9436C25.5892 12.1429 24.4996 9.50932 22.52 7.52822C21.5491 6.5512 20.3941 5.77646 19.1217 5.24885C17.8494 4.72124 16.485 4.45124 15.1076 4.45448C9.32411 4.45448 4.62074 9.15613 4.61868 14.9352C4.61583 16.9085 5.17154 18.8424 6.22156 20.5133L6.47102 20.9097L5.41164 24.7772L9.37983 23.7369ZM2.38281 27.7735L4.17257 21.2388C3.06878 19.3265 2.48808 17.157 2.48877 14.9343C2.49168 7.98102 8.1502 2.32422 15.1037 2.32422C18.478 2.32593 21.6451 3.63906 24.0271 6.02272C26.409 8.40638 27.7196 11.5748 27.7184 14.9444C27.7153 21.8972 22.0559 27.555 15.1035 27.555H15.098C12.987 27.5542 10.9126 27.0246 9.07002 26.0199L2.38281 27.7735Z" fill="var(--fill-0, #B3B3B3)"/>
</g>
<path id="Vector_2" d="M2.25 27.6407L4.03976 21.106C2.93407 19.1891 2.35328 17.0145 2.35596 14.8015C2.35887 7.8482 8.01738 2.19141 14.9709 2.19141C18.3451 2.19312 21.5123 3.50625 23.8943 5.88991C26.2762 8.27357 27.5868 11.442 27.5856 14.8116C27.5825 21.7644 21.9231 27.4222 14.9707 27.4222H14.9652C12.8541 27.4214 10.7798 26.8918 8.93721 25.8871L2.25 27.6407Z" fill="var(--fill-0, white)"/>
<g id="Vector_3">
</g>
<path id="Vector_4" d="M14.9733 4.32425C9.18981 4.32425 4.48644 9.0259 4.48439 14.8049C4.48154 16.7783 5.03725 18.7122 6.08727 20.383L6.33672 20.7796L5.27734 24.6472L9.2457 23.6066L9.62889 23.8336C11.2383 24.7888 13.0836 25.2939 14.9654 25.2949H14.9694C20.7484 25.2949 25.4518 20.5927 25.454 14.8133C25.4584 13.4359 25.1894 12.0712 24.6628 10.7983C24.1362 9.52546 23.3623 8.36972 22.3859 7.39799C21.415 6.42095 20.2599 5.6462 18.9875 5.11859C17.7151 4.59098 16.3507 4.32099 14.9733 4.32425Z" fill="url(#paint0_linear_2877_46862)"/>
<path id="Vector_5" fill-rule="evenodd" clip-rule="evenodd" d="M11.8197 9.53236C11.5834 9.00756 11.3348 8.99693 11.1104 8.98784L10.5062 8.98047C10.296 8.98047 9.9545 9.05934 9.66578 9.3748C9.37706 9.69027 8.5625 10.4527 8.5625 12.0035C8.5625 13.5542 9.69201 15.0527 9.8494 15.2632C10.0068 15.4738 12.0299 18.7575 15.2338 20.0209C17.8962 21.0709 18.438 20.8621 19.0161 20.8096C19.5942 20.7571 20.881 20.0472 21.1435 19.3111C21.4059 18.5751 21.4061 17.9445 21.3274 17.8127C21.2487 17.6808 21.0385 17.6025 20.7231 17.4447C20.4076 17.287 18.8582 16.5246 18.5693 16.4193C18.2804 16.314 18.0704 16.2617 17.86 16.5772C17.6497 16.8927 17.0463 17.6023 16.8624 17.8127C16.6784 18.023 16.4948 18.0495 16.1793 17.8919C15.8638 17.7343 14.8489 17.4014 13.6446 16.3276C12.7076 15.4921 12.0752 14.4603 11.891 14.145C11.7069 13.8297 11.8715 13.659 12.0295 13.5019C12.171 13.3607 12.3447 13.1338 12.5026 12.9499C12.6605 12.7659 12.7124 12.6344 12.8174 12.4244C12.9223 12.2143 12.87 12.0299 12.7911 11.8723C12.7123 11.7147 12.0998 10.1558 11.8197 9.53236Z" fill="var(--fill-0, white)"/>
</g>
<defs>
<filter id="filter0_f_2877_46862" x="1.17204" y="1.11344" width="27.7571" height="27.8708" filterUnits="userSpaceOnUse" color-interpolation-filters="sRGB">
<feFlood flood-opacity="0" result="BackgroundImageFix"/>
<feBlend mode="normal" in="SourceGraphic" in2="BackgroundImageFix" result="shape"/>
<feGaussianBlur stdDeviation="0.605387" result="effect1_foregroundBlur_2877_46862"/>
</filter>
<linearGradient id="paint0_linear_2877_46862" x1="14.7557" y1="5.58269" x2="14.862" y2="23.5034" gradientUnits="userSpaceOnUse">
<stop stop-color="#57D163"/>
<stop offset="1" stop-color="#23B33A"/>
</linearGradient>
</defs>
</svg>
