<svg preserveAspectRatio="none" width="100%" height="100%" overflow="visible" style="display: block;" viewBox="0 0 30.0835 21.0479" fill="none" xmlns="http://www.w3.org/2000/svg">
<g id="Layer">
<path id="Layer_2" fill-rule="evenodd" clip-rule="evenodd" d="M12.519 2.2955C13.4889 1.2855 14.8402 0.65844 16.3339 0.65844C18.3196 0.65844 20.0525 1.7654 20.9751 3.40873C21.1808 3.3169 21.3911 3.23609 21.6052 3.16631C21.8195 3.09653 22.037 3.03816 22.2573 2.99139C22.4777 2.94462 22.7003 2.90944 22.9243 2.88605C23.1483 2.86267 23.3734 2.85107 23.5985 2.85126C27.1803 2.85126 30.0835 5.77895 30.0835 9.39093C30.0835 13.0029 27.1803 15.9306 23.5985 15.9306C23.1607 15.9306 22.7336 15.8869 22.3206 15.8036C21.5084 17.2517 19.9594 18.2305 18.1824 18.2305C17.4386 18.2305 16.7347 18.0593 16.1086 17.7532C15.2847 19.6903 13.3655 21.0479 11.1293 21.0479C8.80057 21.0479 6.81519 19.5745 6.05351 17.5089C5.96871 17.5268 5.88353 17.5424 5.79797 17.5559C5.71241 17.5694 5.62647 17.5806 5.54034 17.5895C5.45421 17.5985 5.3677 17.6053 5.28118 17.6097C5.19467 17.6142 5.10816 17.6165 5.02146 17.6163C2.24816 17.6167 1.17665e-05 15.3461 1.17665e-05 12.5453C-0.000938905 12.1032 0.0557211 11.663 0.168661 11.2358C0.281601 10.8086 0.44987 10.3979 0.669095 10.014C0.88851 9.63031 1.15698 9.27685 1.46785 8.96256C1.77872 8.64827 2.12933 8.37599 2.51074 8.1524C2.43145 7.97006 2.36167 7.78373 2.30178 7.59416C2.2417 7.4046 2.19131 7.21218 2.151 7.01748C2.11069 6.82279 2.08046 6.626 2.06031 6.42826C2.04015 6.23052 2.03008 6.03164 2.03046 5.83295C2.03046 2.61131 4.64632 4.71863e-06 7.87329 4.71863e-06C8.32124 -0.000565685 8.76787 0.0505805 9.20423 0.152112C9.64039 0.253834 10.0636 0.405371 10.4652 0.603872C10.8668 0.802182 11.2442 1.04631 11.5898 1.33095C11.9357 1.61577 12.2473 1.93938 12.519 2.2955Z" fill="var(--fill-0, #00A1E0)"/>
<path id="Layer_3" fill-rule="evenodd" clip-rule="evenodd" d="M4.35468 10.9177L4.47637 10.58C4.49576 10.5222 4.53949 10.5413 4.55736 10.5521C4.59121 10.5721 4.61555 10.5903 4.65928 10.6158C5.01787 10.8424 5.35022 10.8447 5.45385 10.8447C5.72232 10.8447 5.88887 10.7027 5.88887 10.511V10.5011C5.88887 10.2926 5.63219 10.2137 5.33577 10.123L5.26999 10.1019C4.86291 9.98606 4.42769 9.81875 4.42769 9.30367V9.29322C4.42769 8.80438 4.82222 8.46347 5.38673 8.46347L5.44871 8.46271C5.78031 8.46271 6.10068 8.55911 6.33303 8.69981C6.35413 8.71311 6.37448 8.73726 6.36269 8.76959L6.23758 9.10726C6.21553 9.16487 6.15544 9.12666 6.15544 9.12666C6.09498 9.09529 6.033 9.06734 5.9693 9.043C5.9058 9.01866 5.84096 8.99813 5.77498 8.9812C5.7092 8.96428 5.64227 8.95116 5.57496 8.94185C5.50747 8.93272 5.43959 8.92721 5.37171 8.92588C5.13214 8.92588 4.97813 9.05269 4.97813 9.22515V9.23598C4.97813 9.43696 5.24204 9.52271 5.54796 9.62234L5.60063 9.63888C6.00638 9.76703 6.43931 9.94462 6.43931 10.4331V10.4431C6.43931 10.9712 6.05562 11.2989 5.43883 11.2989C5.13575 11.2989 4.8458 11.2522 4.5393 11.0894C4.48131 11.056 4.42408 11.027 4.36742 10.9858C4.36153 10.9772 4.33567 10.9672 4.3543 10.9177H4.35468ZM13.5104 10.58C13.5283 10.5247 13.58 10.5452 13.591 10.5521C13.6247 10.5728 13.6496 10.5903 13.6931 10.6158C14.0523 10.8424 14.3841 10.8447 14.4887 10.8447C14.7562 10.8447 14.9229 10.7027 14.9229 10.511V10.5011C14.9229 10.2926 14.6666 10.2137 14.3702 10.123L14.3044 10.1019C13.8968 9.98606 13.4615 9.81875 13.4615 9.30367V9.29322C13.4615 8.80438 13.8563 8.46347 14.421 8.46347L14.4824 8.46271C14.814 8.46271 15.1349 8.55911 15.3675 8.69981C15.3878 8.71311 15.4085 8.73726 15.3971 8.76959C15.3855 8.79944 15.2828 9.0757 15.272 9.10726C15.2494 9.16487 15.1899 9.12666 15.1899 9.12666C15.1294 9.09529 15.0672 9.06734 15.0037 9.043C14.9402 9.01866 14.8752 8.99813 14.8094 8.9812C14.7434 8.96428 14.6765 8.95116 14.6092 8.94185C14.5417 8.93272 14.4738 8.92721 14.4058 8.92588C14.1662 8.92588 14.0122 9.05269 14.0122 9.22515V9.23598C14.0122 9.43696 14.2757 9.52271 14.582 9.62234L14.6347 9.63888C15.0404 9.76703 15.473 9.94462 15.473 10.4331V10.4431C15.473 10.9712 15.0899 11.2989 14.4729 11.2989C14.1694 11.2989 13.8797 11.2522 13.5733 11.0894C13.5154 11.056 13.4581 11.027 13.4013 10.9858C13.3954 10.9772 13.3693 10.9672 13.3883 10.9177L13.5104 10.58ZM20.0708 9.32972C20.1214 9.49932 20.1465 9.68584 20.1465 9.88282C20.1465 10.0802 20.1214 10.2659 20.0708 10.4357C20.0592 10.4764 20.0455 10.5165 20.0299 10.5559C20.0141 10.5953 19.9967 10.6339 19.9769 10.6715C19.9573 10.709 19.9358 10.7457 19.9124 10.781C19.889 10.8164 19.8639 10.8504 19.8371 10.8833C19.8103 10.9151 19.7816 10.9453 19.7514 10.974C19.721 11.0025 19.6892 11.0295 19.6559 11.0546C19.6225 11.0795 19.5879 11.1027 19.5519 11.1238C19.516 11.1451 19.4791 11.1641 19.4411 11.1812C19.2831 11.2535 19.0975 11.2898 18.8889 11.2898C18.6804 11.2898 18.494 11.2535 18.3368 11.1812C18.2988 11.1641 18.2617 11.1451 18.2257 11.1238C18.19 11.1027 18.1552 11.0795 18.1219 11.0546C18.0887 11.0295 18.0567 11.0025 18.0265 10.974C17.9962 10.9453 17.9675 10.9151 17.9407 10.8833C17.9139 10.8504 17.8886 10.8164 17.8654 10.781C17.8421 10.7457 17.8206 10.7091 17.8008 10.6715C17.7812 10.634 17.7635 10.5954 17.7477 10.5561C17.7322 10.5169 17.7185 10.4768 17.7067 10.4359C17.6937 10.3911 17.6825 10.3458 17.6728 10.3002C17.6633 10.2543 17.6553 10.2083 17.6489 10.1621C17.6426 10.1159 17.638 10.0693 17.635 10.0228C17.632 9.97618 17.6306 9.9296 17.631 9.88282C17.631 9.68546 17.6565 9.49932 17.7067 9.32972C17.7574 9.1586 17.836 9.00801 17.9404 8.88233C17.9673 8.85039 17.9961 8.81997 18.0263 8.79126C18.0567 8.76236 18.0885 8.73536 18.1219 8.71007C18.1552 8.68479 18.1898 8.6614 18.2257 8.63991C18.2617 8.61862 18.2988 8.59903 18.3368 8.58173C18.4944 8.50815 18.6796 8.47088 18.8889 8.47088C19.0981 8.47088 19.2835 8.50815 19.4411 8.58173C19.5983 8.65512 19.7318 8.75609 19.8371 8.88233C19.9417 9.00801 20.0208 9.1586 20.0708 9.32972ZM19.3909 9.1856C19.2823 9.02246 19.1179 8.94356 18.8889 8.94356C18.6598 8.94356 18.4967 9.02246 18.3894 9.1856C18.2818 9.35007 18.2269 9.5845 18.2269 9.88282C18.2269 10.1808 18.2818 10.4169 18.39 10.5827C18.4967 10.7477 18.6598 10.8276 18.8889 10.8276C19.1179 10.8276 19.2823 10.7474 19.3909 10.5827C19.5002 10.4169 19.5561 10.1808 19.5561 9.88282C19.5561 9.5845 19.5008 9.35007 19.3909 9.1856ZM24.3011 10.7477L24.4275 11.097C24.4439 11.1398 24.4068 11.1584 24.4068 11.1584C24.2117 11.2341 23.941 11.2881 23.6775 11.2881C23.2306 11.2881 22.8884 11.1596 22.6601 10.9056C22.433 10.6523 22.3172 10.308 22.3172 9.88092C22.3172 9.68318 22.346 9.49609 22.4019 9.32668C22.4578 9.15575 22.5416 9.00497 22.6523 8.87948C22.6808 8.84735 22.711 8.81674 22.743 8.78784C22.7749 8.75894 22.8084 8.73175 22.8432 8.70646C22.8781 8.68136 22.9143 8.65798 22.9517 8.63668C22.989 8.6152 23.0276 8.59599 23.0671 8.57888C23.2316 8.50549 23.425 8.4686 23.641 8.4686C23.7866 8.4686 23.9163 8.47754 24.0275 8.49408C24.1461 8.51233 24.3045 8.55511 24.3713 8.58116C24.3834 8.58573 24.4173 8.60227 24.4036 8.64201C24.3549 8.77909 24.3216 8.86865 24.2766 8.99356C24.2568 9.0468 24.2167 9.02912 24.2167 9.02912C24.0473 8.97588 23.8847 8.95154 23.6725 8.95154C23.4175 8.95154 23.2259 9.03634 23.101 9.20233C22.9745 9.36984 22.9038 9.58906 22.9029 9.88092C22.9019 10.2009 22.9821 10.438 23.1244 10.5846C23.2662 10.731 23.4641 10.805 23.7136 10.805C23.8146 10.805 23.91 10.7983 23.9959 10.785C24.0807 10.7715 24.1604 10.7451 24.2353 10.7158C24.2353 10.7158 24.2838 10.6977 24.3011 10.7477ZM26.9883 9.98321C26.9839 10.0279 26.9379 10.0285 26.9379 10.0285L25.1945 10.0271C25.2054 10.292 25.2689 10.4795 25.3972 10.6067C25.5231 10.7314 25.7231 10.8112 25.9941 10.8116C26.4078 10.8126 26.5846 10.7293 26.7099 10.6829C26.7099 10.6829 26.7576 10.6658 26.7757 10.7131L26.8892 11.0326C26.9122 11.0862 26.8938 11.105 26.8744 11.1158C26.7652 11.1759 26.5004 11.2885 25.9963 11.2898C25.7518 11.2908 25.5389 11.2558 25.3636 11.1877C25.3221 11.1725 25.2814 11.1546 25.2421 11.1347C25.2027 11.1147 25.1643 11.0925 25.1274 11.0679C25.0905 11.0436 25.0552 11.017 25.0213 10.9885C24.9875 10.9599 24.9554 10.9295 24.9249 10.8974C24.896 10.8658 24.8688 10.8325 24.8436 10.7979C24.8183 10.7633 24.7949 10.7274 24.7736 10.6901C24.7523 10.6529 24.7333 10.6145 24.7162 10.5751C24.6992 10.5357 24.6844 10.4954 24.6721 10.4544C24.6586 10.4093 24.6468 10.3639 24.6367 10.3178C24.6266 10.272 24.6182 10.2256 24.6118 10.1791C24.6051 10.1327 24.6004 10.0859 24.5973 10.0389C24.5943 9.99196 24.593 9.945 24.5933 9.89803C24.5933 9.70067 24.6186 9.5132 24.6698 9.34189C24.7207 9.16925 24.8 9.01695 24.9055 8.88899C24.9329 8.85648 24.9618 8.82548 24.9926 8.7962C25.0232 8.76692 25.0556 8.73935 25.0894 8.71369C25.1231 8.68783 25.1582 8.66406 25.1947 8.64239C25.2311 8.62052 25.2687 8.60075 25.3073 8.58306C25.4672 8.50777 25.6653 8.47088 25.883 8.47088C26.0697 8.47088 26.2401 8.511 26.3819 8.57223C26.4911 8.619 26.601 8.70342 26.7135 8.82453C26.7846 8.90078 26.8928 9.06791 26.9366 9.23256C27.0487 9.62538 26.9902 9.96439 26.9883 9.98321ZM26.4464 9.59667C26.4335 9.43696 26.4023 9.29341 26.3306 9.1856C26.2213 9.02246 26.0707 8.93272 25.842 8.93272C25.613 8.93272 25.4505 9.02246 25.3429 9.1856C25.2725 9.29341 25.2271 9.43087 25.2023 9.59667H26.4464ZM13.0239 9.98321C13.0193 10.0279 12.9733 10.0285 12.9733 10.0285L11.2294 10.0271C11.2406 10.292 11.3037 10.4795 11.4324 10.6067C11.5585 10.7314 11.7581 10.8112 12.0289 10.8116C12.4428 10.8126 12.6202 10.7293 12.7451 10.6829C12.7451 10.6829 12.7928 10.6658 12.8107 10.7131L12.9246 11.0326C12.9476 11.0862 12.9292 11.105 12.91 11.1158C12.8001 11.1759 12.535 11.2885 12.0315 11.2898C11.7868 11.2908 11.5739 11.2558 11.3988 11.1877C11.3573 11.1725 11.3168 11.1546 11.2773 11.1347C11.2379 11.1145 11.1995 11.0923 11.1626 11.0679C11.1257 11.0434 11.0902 11.017 11.0563 10.9885C11.0225 10.9599 10.9904 10.9295 10.9599 10.8974C10.931 10.8658 10.9039 10.8325 10.8788 10.7979C10.8535 10.7633 10.8303 10.7272 10.809 10.6899C10.7877 10.6529 10.7687 10.6145 10.7518 10.5751C10.7348 10.5357 10.72 10.4954 10.7076 10.4544C10.694 10.4093 10.6822 10.3639 10.6721 10.3178C10.662 10.272 10.6535 10.2256 10.647 10.1792C10.6403 10.1327 10.6354 10.0859 10.6323 10.0389C10.6291 9.99196 10.6278 9.945 10.6284 9.89803C10.6284 9.70067 10.654 9.5132 10.7046 9.34189C10.7164 9.30063 10.7303 9.26013 10.7462 9.2202C10.7622 9.18047 10.7801 9.14149 10.7999 9.10346C10.8196 9.06543 10.8415 9.02855 10.8649 8.99261C10.8885 8.95687 10.9139 8.92226 10.9409 8.88899C10.9681 8.85648 10.9972 8.82548 11.0278 8.7962C11.0586 8.76692 11.0908 8.73935 11.1246 8.71369C11.1583 8.68802 11.1934 8.66425 11.2297 8.64239C11.2663 8.62052 11.3037 8.60075 11.3423 8.58306C11.5028 8.50777 11.7009 8.47088 11.918 8.47088C11.9608 8.47088 12.0036 8.47298 12.0462 8.47716C12.0888 8.48134 12.131 8.48781 12.173 8.49617C12.2148 8.50473 12.2563 8.51538 12.2972 8.52811C12.338 8.54066 12.3782 8.55549 12.4175 8.57223C12.5267 8.619 12.6366 8.70342 12.7487 8.82453C12.8198 8.90078 12.9282 9.06791 12.9716 9.23256C13.0834 9.62538 13.0258 9.96439 13.0239 9.98321ZM12.4816 9.59667C12.4685 9.43696 12.4373 9.29341 12.3658 9.1856C12.2572 9.02246 12.1059 8.93272 11.8773 8.93272C11.6482 8.93272 11.4855 9.02246 11.3784 9.1856C11.3073 9.29341 11.2623 9.43087 11.237 9.59667H12.4816ZM8.44998 9.54742V9.47365C8.44998 9.24112 8.4015 9.1316 8.30643 9.0584C8.20908 8.98406 8.06363 8.94546 7.8754 8.94546C7.8754 8.94546 7.45102 8.94033 7.11543 9.12247C7.10003 9.1316 7.0871 9.13692 7.0871 9.13692C7.0871 9.13692 7.04508 9.15175 7.02987 9.10859L6.90647 8.77719C6.88746 8.72947 6.92188 8.70779 6.92188 8.70779C7.07893 8.58534 7.45919 8.51138 7.45919 8.51138C7.49779 8.50473 7.53658 8.49864 7.57537 8.49351C7.61415 8.48838 7.65313 8.48381 7.69211 8.4802C7.73109 8.47678 7.77025 8.47393 7.80942 8.47183C7.8484 8.46993 7.88757 8.46879 7.92673 8.46841C8.27487 8.46841 8.54429 8.54922 8.72758 8.70931C8.91125 8.87017 9.00461 9.12932 9.00461 9.4786L9.00556 11.0731C9.00556 11.0731 9.00917 11.1191 8.96544 11.1295C8.96544 11.1295 8.90136 11.1474 8.84375 11.1609C8.78557 11.1742 8.57566 11.217 8.40416 11.2461C8.36043 11.2533 8.31651 11.2598 8.27259 11.2653C8.22848 11.2708 8.18437 11.2754 8.14026 11.279C8.09595 11.2828 8.05184 11.2854 8.00754 11.2873C7.96324 11.2891 7.91875 11.29 7.87445 11.29C7.70504 11.29 7.5497 11.2742 7.4128 11.243C7.38105 11.2364 7.34968 11.2282 7.31869 11.2183C7.28769 11.2084 7.25727 11.197 7.22761 11.1841C7.19776 11.1712 7.16867 11.1567 7.14034 11.1409C7.11201 11.1252 7.08444 11.1079 7.05782 11.089C7.03367 11.0715 7.01067 11.0525 6.9888 11.0322C6.96694 11.0116 6.9464 10.99 6.92739 10.967C6.90818 10.944 6.8905 10.9198 6.87434 10.8947C6.85818 10.8696 6.84373 10.8434 6.8308 10.8166C6.77718 10.7071 6.75018 10.5732 6.75018 10.4186C6.75018 10.2669 6.78213 10.1317 6.84373 10.0167C6.90552 9.90222 6.99032 9.80525 7.09699 9.72919C7.12437 9.70999 7.1527 9.69174 7.18179 9.675C7.21088 9.65827 7.24073 9.64268 7.27115 9.62861C7.30176 9.61454 7.33276 9.60161 7.36432 9.59039C7.39588 9.57899 7.42801 9.5691 7.46053 9.56054C7.59647 9.52442 7.74097 9.5056 7.89023 9.5056C7.99975 9.5056 8.0912 9.50788 8.16231 9.51358C8.16231 9.51358 8.29997 9.52575 8.44998 9.54742ZM7.97978 10.8398C8.22905 10.8247 8.45017 10.7774 8.45017 10.7774V9.98473C8.45017 9.98473 8.22715 9.94823 7.97674 9.94462C7.62176 9.94043 7.47041 10.0709 7.47136 10.0707C7.36679 10.145 7.31583 10.2551 7.31583 10.4078C7.31583 10.5053 7.33333 10.5818 7.3685 10.635C7.39056 10.6702 7.40006 10.6833 7.46851 10.7382C7.46756 10.7379 7.6248 10.8616 7.97978 10.8398ZM22.0948 8.98101C22.0836 9.01125 22.0651 9.03197 22.0313 9.02836C22.0313 9.02836 21.9313 9.00535 21.8398 9.00535C21.7771 9.00535 21.6871 9.01334 21.6061 9.03825C21.586 9.04452 21.5662 9.05193 21.547 9.06049C21.5276 9.06905 21.5088 9.07893 21.4907 9.08977C21.4727 9.10061 21.4552 9.11259 21.4386 9.12571C21.4219 9.13864 21.4059 9.15252 21.3911 9.16754C21.3272 9.22895 21.2755 9.31546 21.238 9.42403C21.1998 9.53316 21.1802 9.70695 21.1802 9.88111V11.1795C21.1802 11.1866 21.1789 11.1934 21.1762 11.1999C21.1736 11.2062 21.1698 11.2121 21.1648 11.217C21.1599 11.2219 21.1542 11.2257 21.1477 11.2284C21.1413 11.2311 21.1344 11.2326 21.1276 11.2326H20.6699C20.6629 11.2326 20.6558 11.2313 20.6494 11.2288C20.6429 11.2261 20.637 11.2223 20.6319 11.2174C20.6269 11.2124 20.623 11.2067 20.6203 11.2003C20.6174 11.1938 20.6159 11.187 20.6159 11.1799V8.58021C20.6159 8.55093 20.6372 8.52754 20.6665 8.52754H21.1131C21.1426 8.52754 21.1637 8.55093 21.1637 8.58021V8.79259C21.2304 8.70323 21.3502 8.62413 21.4586 8.57546C21.5672 8.52621 21.6885 8.49009 21.9079 8.50321C22.0222 8.51005 22.1705 8.54142 22.2005 8.55283C22.2062 8.55511 22.2115 8.55873 22.2161 8.5631C22.2207 8.56747 22.2241 8.5728 22.2265 8.57869C22.229 8.58439 22.2302 8.59067 22.2302 8.59694C22.2302 8.60322 22.2288 8.60949 22.2264 8.61539C22.21 8.66311 22.1254 8.90173 22.0948 8.98101ZM17.9584 7.47116L17.8246 7.83717C17.8133 7.86493 17.8061 7.88128 17.7493 7.86417C17.7304 7.85827 17.7114 7.85314 17.6922 7.84857C17.673 7.8442 17.6536 7.8404 17.6342 7.83736C17.6148 7.83431 17.5953 7.83203 17.5757 7.83051C17.5559 7.82899 17.5363 7.82804 17.5165 7.82804C17.4475 7.82804 17.385 7.83698 17.3296 7.85523C17.3159 7.85979 17.3024 7.86493 17.2893 7.87101C17.2762 7.87709 17.2635 7.88394 17.2511 7.89154C17.2389 7.89896 17.227 7.90733 17.2157 7.91645C17.2045 7.92539 17.1937 7.93509 17.1836 7.94535C17.1701 7.95847 17.1574 7.97216 17.1454 7.98661C17.1334 8.00106 17.1224 8.01608 17.1121 8.03167C17.1019 8.04726 17.0924 8.06362 17.084 8.08016C17.0754 8.09689 17.0678 8.114 17.0612 8.13149C16.9971 8.31573 16.9724 8.51214 16.9691 8.5245H17.5264C17.5736 8.5245 17.5882 8.54637 17.5837 8.58078L17.5186 8.94318C17.508 8.99585 17.4603 8.99394 17.4603 8.99394H16.8859L16.4934 11.2157C16.4849 11.2655 16.4754 11.3151 16.4647 11.3645C16.4541 11.4138 16.4425 11.463 16.4295 11.5119C16.4168 11.5608 16.4029 11.6092 16.3881 11.6575C16.3731 11.7056 16.3571 11.7536 16.34 11.8011C16.2786 11.9619 16.2151 12.0794 16.113 12.1914C16.0913 12.2165 16.0681 12.2401 16.0436 12.2622C16.019 12.2842 15.993 12.3048 15.966 12.3238C15.9388 12.3426 15.9105 12.3599 15.8812 12.3751C15.8521 12.3905 15.8219 12.4042 15.7909 12.4158C15.6701 12.4603 15.5234 12.4829 15.3631 12.4829C15.2868 12.4829 15.2045 12.4812 15.1075 12.4582C15.094 12.4551 15.0805 12.4519 15.067 12.4483C15.0537 12.4449 15.0404 12.4411 15.0271 12.4373C15.0138 12.4335 15.0005 12.4293 14.9874 12.4249C14.9741 12.4207 14.9609 12.4162 14.948 12.4116C14.9265 12.404 14.909 12.3766 14.9216 12.3418C14.9336 12.3072 15.0368 12.0247 15.0507 11.9876C15.0684 11.9429 15.1138 11.96 15.1138 11.96C15.1446 11.9732 15.1665 11.9817 15.2075 11.9899C15.2494 11.9981 15.3053 12.0053 15.3477 12.0053C15.4237 12.0053 15.4928 11.9962 15.553 11.9758C15.6255 11.9524 15.6682 11.91 15.7122 11.8534C15.7584 11.7939 15.7958 11.7132 15.8342 11.6051C15.8728 11.4955 15.908 11.3508 15.9382 11.1755L16.3292 8.99413H15.9441C15.8981 8.99413 15.8823 8.97246 15.8877 8.93766L15.9521 8.57527C15.9624 8.5226 16.0112 8.5245 16.0112 8.5245H16.4065L16.4278 8.40681C16.4872 8.05696 16.6045 7.79077 16.7782 7.61623C16.953 7.44036 17.2013 7.35156 17.5165 7.35156C17.6067 7.35156 17.6863 7.35746 17.7538 7.36963C17.82 7.38198 17.8702 7.39358 17.9263 7.41069C17.9384 7.41564 17.9715 7.4318 17.9584 7.47116ZM10.0865 11.2326H9.62425C9.59459 11.2326 9.57444 11.2088 9.57444 11.1799V7.45937C9.57444 7.43066 9.59497 7.40708 9.62387 7.40708H10.0865C10.1161 7.40708 10.1365 7.43066 10.1365 7.45975V11.1795C10.1365 11.2092 10.1161 11.2326 10.0865 11.2326Z" fill="var(--fill-0, white)"/>
</g>
</svg>
