<svg preserveAspectRatio="none" width="100%" height="100%" overflow="visible" style="display: block;" viewBox="0 0 13.4977 12.7784" fill="none" xmlns="http://www.w3.org/2000/svg">
<g id="XMLID_221_">
<path id="XMLID_222_" d="M1.25791 11.5225C2.09523 12.3599 3.19473 12.7785 4.2946 12.7784C5.39426 12.7783 6.49421 12.3597 7.33137 11.5225L12.6007 6.25318C13.7967 5.05712 13.7967 3.11105 12.6006 1.91503C12.0213 1.33562 11.251 1.01656 10.4316 1.01656C9.61225 1.01656 8.84192 1.33562 8.26252 1.91503L3.42693 6.75054C2.70932 7.46815 2.70932 8.63579 3.42693 9.35347C4.14461 10.0711 5.31229 10.071 6.0299 9.35339L9.21404 6.16926C9.4536 5.92966 9.4536 5.54122 9.21404 5.30162C8.97448 5.06203 8.586 5.06203 8.34641 5.30162L5.16227 8.48576C4.92308 8.72503 4.53383 8.72499 4.29456 8.4858C4.05537 8.24657 4.05537 7.85732 4.29456 7.61813L9.13015 2.78266C9.47781 2.43504 9.93999 2.24358 10.4316 2.24358C10.9232 2.24358 11.3854 2.43504 11.733 2.78266C12.4506 3.50031 12.4507 4.66795 11.7331 5.38559L6.46374 10.6549C5.26763 11.8509 3.32152 11.8508 2.12554 10.6549C1.54614 10.0755 1.22703 9.30517 1.22703 8.4858C1.22703 7.66643 1.54614 6.89607 2.12554 6.31666L7.39481 1.04731C7.63436 0.807717 7.63436 0.41924 7.39481 0.179683C7.15525 -0.0598738 6.76677 -0.0599147 6.52718 0.179683L1.25791 5.44903C0.446761 6.26018 0 7.33865 0 8.4858C0 9.63295 0.446761 10.7114 1.25791 11.5225Z" fill="var(--fill-0, black)"/>
</g>
</svg>
