<svg preserveAspectRatio="none" width="100%" height="100%" overflow="visible" style="display: block;" viewBox="0 0 8.22026 7.78217" fill="none" xmlns="http://www.w3.org/2000/svg">
<g id="XMLID_221_">
<path id="XMLID_222_" d="M0.766081 7.01736C1.27602 7.5273 1.94563 7.78224 2.61546 7.78217C3.28517 7.78212 3.95505 7.52717 4.46489 7.01736L7.67399 3.80826C8.40238 3.07985 8.40233 1.89467 7.67394 1.16627C7.32112 0.813411 6.85198 0.619095 6.35298 0.619095C5.85397 0.619095 5.38484 0.813411 5.03197 1.16627L2.08704 4.11116C1.65001 4.54819 1.65001 5.2593 2.08704 5.69638C2.52412 6.13341 3.23525 6.13338 3.67228 5.69633L5.61146 3.75715C5.75735 3.61123 5.75735 3.37467 5.61146 3.22875C5.46557 3.08283 5.22898 3.08283 5.08306 3.22875L3.14388 5.16793C2.99821 5.31365 2.76115 5.31362 2.61544 5.16795C2.46977 5.02226 2.46977 4.7852 2.61544 4.63953L5.56037 1.69467C5.7721 1.48297 6.05357 1.36637 6.35298 1.36637C6.65239 1.36637 6.93384 1.48297 7.14554 1.69467C7.58257 2.13173 7.58262 2.84283 7.14559 3.27989L3.93649 6.48894C3.20805 7.21733 2.02285 7.2173 1.29448 6.48894C0.941616 6.1361 0.747274 5.66696 0.747274 5.16795C0.747274 4.66895 0.941616 4.19979 1.29448 3.84692L4.50352 0.637827C4.64942 0.491909 4.64942 0.255322 4.50352 0.109429C4.35763 -0.0364639 4.12104 -0.0364888 3.97513 0.109429L0.766081 3.31852C0.272083 3.81252 0 4.46933 0 5.16795C0 5.86658 0.272083 6.52339 0.766081 7.01736Z" fill="var(--fill-0, black)"/>
</g>
</svg>
