<svg preserveAspectRatio="none" width="100%" height="100%" overflow="visible" style="display: block;" viewBox="0 0 24.8921 24.8921" fill="none" xmlns="http://www.w3.org/2000/svg">
<g id="SVG" clip-path="url(#clip0_2877_47034)">
<path id="Vector" d="M1.69719 21.7823H5.6573V12.1648L0 7.92188V20.0851C0 21.0242 0.760906 21.7823 1.69719 21.7823Z" fill="var(--fill-0, #4285F4)"/>
<path id="Vector_2" d="M19.2344 21.7823H23.1945C24.1336 21.7823 24.8917 21.0213 24.8917 20.0851V7.92188L19.2344 12.1648" fill="var(--fill-0, #34A853)"/>
<path id="Vector_3" d="M19.2344 4.81138V12.1659L24.8917 7.92289V5.65997C24.8917 3.56112 22.4958 2.3646 20.8184 3.62335" fill="var(--fill-0, #FBBC04)"/>
<path id="Vector_4" d="M5.65625 12.167V4.8125L12.445 9.90407L19.2338 4.8125V12.167L12.445 17.2586" fill="var(--fill-0, #EA4335)"/>
<path id="Vector_5" d="M-0.000173455 5.66011V7.92303L5.65712 12.166V4.81152L4.07308 3.62348C2.39286 2.36474 -0.000173455 3.56125 -0.000173455 5.66011Z" fill="var(--fill-0, #C5221F)"/>
</g>
<defs>
<clipPath id="clip0_2877_47034">
<rect width="24.8921" height="24.8921" fill="white"/>
</clipPath>
</defs>
</svg>
