<svg preserveAspectRatio="none" width="100%" height="100%" overflow="visible" style="display: block;" viewBox="0 0 24.8921 24.8921" fill="none" xmlns="http://www.w3.org/2000/svg">
<g id="Group">
<path id="Vector" fill-rule="evenodd" clip-rule="evenodd" d="M2.76579 24.8921H22.1263C23.6538 24.8921 24.8921 23.6538 24.8921 22.1263V2.76579C24.8921 1.23829 23.6538 0 22.1263 0H2.76579C1.23829 0 0 1.23829 0 2.76579V22.1263C0 23.6538 1.23829 24.8921 2.76579 24.8921Z" fill="var(--fill-0, #007EBB)"/>
<path id="Vector_2" fill-rule="evenodd" clip-rule="evenodd" d="M21.4347 21.4308H17.7408V15.1393C17.7408 13.4144 17.0854 12.4504 15.7201 12.4504C14.2348 12.4504 13.4588 13.4536 13.4588 15.1393V21.4308H9.89902V9.44567H13.4588V11.0601C13.4588 11.0601 14.5292 9.07951 17.0725 9.07951C19.6147 9.07951 21.4347 10.6319 21.4347 13.8425V21.4308ZM5.65215 7.87632C4.4396 7.87632 3.45703 6.88604 3.45703 5.66472C3.45703 4.4434 4.4396 3.45312 5.65215 3.45312C6.8647 3.45312 7.84669 4.4434 7.84669 5.66472C7.84669 6.88604 6.8647 7.87632 5.65215 7.87632ZM3.81401 21.4308H7.52599V9.44567H3.81401V21.4308Z" fill="var(--fill-0, white)"/>
</g>
</svg>
