<svg preserveAspectRatio="none" width="100%" height="100%" overflow="visible" style="display: block;" viewBox="0 0 24.8921 24.8921" fill="none" xmlns="http://www.w3.org/2000/svg">
<g id="SVG" clip-path="url(#clip0_2877_47063)">
<path id="Vector" d="M17.3639 9.55469H23.7936C24.401 9.55469 24.8935 10.0471 24.8935 10.6546V16.5112C24.8935 18.7437 23.0837 20.5535 20.8511 20.5535H20.832C18.5995 20.5538 16.7894 18.7443 16.7891 16.5117C16.7891 16.5115 16.7891 16.5114 16.7891 16.5111V10.1295C16.7891 9.81205 17.0464 9.55469 17.3639 9.55469Z" fill="var(--fill-0, #5059C9)"/>
<path id="Vector_2" d="M21.7066 8.39748C23.1452 8.39748 24.3115 7.23118 24.3115 5.79249C24.3115 4.35379 23.1452 3.1875 21.7066 3.1875C20.2679 3.1875 19.1016 4.35379 19.1016 5.79249C19.1016 7.23118 20.2679 8.39748 21.7066 8.39748Z" fill="var(--fill-0, #5059C9)"/>
<path id="Vector_3" d="M13.6026 8.39271C15.6807 8.39271 17.3654 6.70807 17.3654 4.62995C17.3654 2.55183 15.6807 0.867188 13.6026 0.867188C11.5245 0.867188 9.83984 2.55183 9.83984 4.62995C9.83984 6.70807 11.5245 8.39271 13.6026 8.39271Z" fill="var(--fill-0, #7B83EB)"/>
<path id="Vector_4" d="M18.6215 9.55469H8.00821C7.40799 9.56954 6.93319 10.0677 6.94712 10.6679V17.3477C6.8633 20.9496 9.713 23.9387 13.3149 24.0268C16.9167 23.9387 19.7664 20.9496 19.6826 17.3477V10.6679C19.6965 10.0677 19.2217 9.56954 18.6215 9.55469Z" fill="var(--fill-0, #7B83EB)"/>
<path id="Vector_5" opacity="0.1" d="M13.8923 9.55469V18.9153C13.8894 19.3445 13.6293 19.7302 13.2323 19.8936C13.1059 19.9471 12.9701 19.9746 12.8329 19.9746H7.45504C7.37979 19.7836 7.31032 19.5926 7.25242 19.3958C7.04979 18.7315 6.94639 18.041 6.94561 17.3465V10.6661C6.9317 10.0669 7.40572 9.56954 8.00497 9.55469H13.8923Z" fill="var(--fill-0, black)"/>
<path id="Vector_6" opacity="0.2" d="M13.3134 9.55469V19.4942C13.3134 19.6314 13.2858 19.7672 13.2323 19.8936C13.0689 20.2905 12.6833 20.5507 12.254 20.5535H7.72712C7.6287 20.3625 7.53609 20.1715 7.45504 19.9746C7.37399 19.7778 7.31032 19.5926 7.25242 19.3958C7.04979 18.7315 6.94639 18.041 6.94561 17.3465V10.6661C6.9317 10.0669 7.40572 9.56954 8.00497 9.55469H13.3134Z" fill="var(--fill-0, black)"/>
<path id="Vector_7" opacity="0.2" d="M13.3134 9.55469V18.3364C13.309 18.9196 12.8372 19.3913 12.254 19.3958H7.25242C7.04979 18.7315 6.94639 18.041 6.94561 17.3465V10.6661C6.9317 10.0669 7.40572 9.56954 8.00497 9.55469H13.3134Z" fill="var(--fill-0, black)"/>
<path id="Vector_8" opacity="0.2" d="M12.7345 9.55469V18.3364C12.7301 18.9196 12.2583 19.3913 11.6751 19.3958H7.25242C7.04979 18.7315 6.94639 18.041 6.94561 17.3465V10.6661C6.9317 10.0669 7.40572 9.56954 8.00497 9.55469H12.7345Z" fill="var(--fill-0, black)"/>
<path id="Vector_9" opacity="0.1" d="M13.8933 6.55935V8.38284C13.7949 8.38863 13.7023 8.39442 13.6039 8.39442C13.5055 8.39442 13.4128 8.38864 13.3144 8.38284C13.119 8.36988 12.9252 8.33887 12.7355 8.29022C11.5633 8.01262 10.5948 7.1905 10.1306 6.07888C10.0507 5.89221 9.98866 5.69837 9.94531 5.5H12.834C13.4181 5.50221 13.8911 5.9752 13.8933 6.55935Z" fill="var(--fill-0, black)"/>
<path id="Vector_10" opacity="0.2" d="M13.3167 7.13748V8.38208C13.1213 8.36912 12.9275 8.33812 12.7378 8.28947C11.5656 8.01186 10.5971 7.18974 10.1328 6.07812H12.2573C12.8415 6.08034 13.3145 6.55333 13.3167 7.13748Z" fill="var(--fill-0, black)"/>
<path id="Vector_11" opacity="0.2" d="M13.3167 7.13748V8.38208C13.1213 8.36912 12.9275 8.33812 12.7378 8.28947C11.5656 8.01186 10.5971 7.18974 10.1328 6.07812H12.2573C12.8415 6.08034 13.3145 6.55333 13.3167 7.13748Z" fill="var(--fill-0, black)"/>
<path id="Vector_12" opacity="0.2" d="M12.7378 7.13749V8.28947C11.5656 8.01186 10.5971 7.18974 10.1328 6.07812H11.6784C12.2626 6.08035 12.7356 6.55334 12.7378 7.13749Z" fill="var(--fill-0, black)"/>
<path id="Vector_13" d="M1.06109 6.07812H11.6744C12.2604 6.07812 12.7355 6.5532 12.7355 7.13922V17.7525C12.7355 18.3385 12.2604 18.8136 11.6744 18.8136H1.06109C0.475063 18.8136 0 18.3385 0 17.7525V7.13922C0 6.5532 0.475074 6.07812 1.06109 6.07812Z" fill="url(#paint0_linear_2877_47063)"/>
<path id="Vector_14" d="M9.16322 10.1207H7.04159V15.898H5.6899V10.1207H3.57812V9H9.16322V10.1207Z" fill="var(--fill-0, white)"/>
</g>
<defs>
<linearGradient id="paint0_linear_2877_47063" x1="2.21241" y1="5.249" x2="10.5231" y2="19.6427" gradientUnits="userSpaceOnUse">
<stop stop-color="#5A62C3"/>
<stop offset="0.5" stop-color="#4D55BD"/>
<stop offset="1" stop-color="#3940AB"/>
</linearGradient>
<clipPath id="clip0_2877_47063">
<rect width="24.8921" height="24.8921" fill="white"/>
</clipPath>
</defs>
</svg>
