<svg preserveAspectRatio="none" width="100%" height="100%" overflow="visible" style="display: block;" viewBox="0 0 29.5513 29.5513" fill="none" xmlns="http://www.w3.org/2000/svg">
<g id="SVG">
<g id="Vector" filter="url(#filter0_f_2877_47027)">
<path d="M9.2097 23.3047L9.58592 23.5276C11.1661 24.4654 12.9778 24.9615 14.8255 24.9623H14.8293C20.5034 24.9623 25.1211 20.3456 25.1234 14.6713C25.1244 11.9215 24.0547 9.33577 22.1111 7.39067C21.1578 6.43141 20.0238 5.67075 18.7745 5.15273C17.5253 4.63471 16.1858 4.36961 14.8334 4.37279C9.15499 4.37279 4.5371 8.989 4.53508 14.663C4.53228 16.6005 5.07789 18.4993 6.10883 20.1397L6.35375 20.5289L5.31362 24.3262L9.2097 23.3047ZM2.33984 27.268L4.09708 20.8521C3.01335 18.9745 2.4432 16.8444 2.44387 14.6622C2.44674 7.83524 8.00241 2.28125 14.8295 2.28125C18.1425 2.28293 21.2521 3.5722 23.5908 5.91254C25.9294 8.25288 27.2162 11.3637 27.215 14.6721C27.212 21.4985 21.6554 27.0535 14.8293 27.0535H14.824C12.7513 27.0527 10.7146 26.5327 8.90552 25.5463L2.33984 27.268Z" fill="var(--fill-0, #B3B3B3)"/>
</g>
<path id="Vector_2" d="M2.21094 27.143L3.96817 20.7271C2.88257 18.845 2.31234 16.7099 2.31497 14.5372C2.31783 7.71024 7.87351 2.15625 14.7006 2.15625C18.0136 2.15793 21.1232 3.4472 23.4619 5.78754C25.8005 8.12788 27.0873 11.2387 27.0861 14.5471C27.083 21.3735 21.5265 26.9285 14.7004 26.9285H14.695C12.6224 26.9277 10.5857 26.4077 8.77662 25.4213L2.21094 27.143Z" fill="var(--fill-0, white)"/>
<g id="Vector_3">
</g>
<path id="Vector_4" d="M14.7046 4.24222C9.02617 4.24222 4.40828 8.85842 4.40626 14.5324C4.40346 16.47 4.94907 18.3687 5.98001 20.0092L6.22494 20.3985L5.1848 24.1958L9.08105 23.1742L9.45727 23.397C11.0374 24.3348 12.8492 24.8307 14.6968 24.8318H14.7007C20.3747 24.8318 24.9926 20.215 24.9948 14.5407C24.9991 13.1882 24.735 11.8484 24.218 10.5986C23.7009 9.34891 22.9411 8.21416 21.9825 7.2601C21.0292 6.30081 19.8951 5.54014 18.6458 5.02212C17.3966 4.5041 16.057 4.23902 14.7046 4.24222Z" fill="url(#paint0_linear_2877_47027)"/>
<path id="Vector_5" fill-rule="evenodd" clip-rule="evenodd" d="M11.6042 9.36218C11.3723 8.84691 11.1282 8.83647 10.9079 8.82755L10.3146 8.82031C10.1083 8.82031 9.77295 8.89775 9.48948 9.20748C9.206 9.51721 8.40625 10.2658 8.40625 11.7884C8.40625 13.3109 9.51523 14.7822 9.66976 14.9889C9.82429 15.1956 11.8106 18.4197 14.9563 19.6601C17.5703 20.691 18.1023 20.486 18.6699 20.4345C19.2375 20.383 20.5008 19.6859 20.7586 18.9632C21.0163 18.2406 21.0164 17.6215 20.9392 17.492C20.8619 17.3626 20.6555 17.2856 20.3458 17.1308C20.0361 16.9759 18.5148 16.2273 18.2312 16.124C17.9476 16.0206 17.7413 15.9693 17.5348 16.279C17.3283 16.5887 16.7359 17.2855 16.5553 17.492C16.3747 17.6986 16.1944 17.7245 15.8846 17.5698C15.5749 17.4151 14.5784 17.0882 13.396 16.0339C12.476 15.2136 11.8551 14.2006 11.6743 13.891C11.4935 13.5815 11.6551 13.4138 11.8103 13.2596C11.9492 13.1209 12.1197 12.8982 12.2747 12.7176C12.4298 12.5369 12.4808 12.4078 12.5838 12.2016C12.6868 11.9954 12.6355 11.8143 12.558 11.6596C12.4806 11.5049 11.8793 9.97424 11.6042 9.36218Z" fill="var(--fill-0, white)"/>
</g>
<defs>
<filter id="filter0_f_2877_47027" x="1.15107" y="1.09248" width="27.2527" height="27.3643" filterUnits="userSpaceOnUse" color-interpolation-filters="sRGB">
<feFlood flood-opacity="0" result="BackgroundImageFix"/>
<feBlend mode="normal" in="SourceGraphic" in2="BackgroundImageFix" result="shape"/>
<feGaussianBlur stdDeviation="0.594385" result="effect1_foregroundBlur_2877_47027"/>
</filter>
<linearGradient id="paint0_linear_2877_47027" x1="14.4909" y1="5.47778" x2="14.5953" y2="23.0728" gradientUnits="userSpaceOnUse">
<stop stop-color="#57D163"/>
<stop offset="1" stop-color="#23B33A"/>
</linearGradient>
</defs>
</svg>
