<svg preserveAspectRatio="none" width="100%" height="100%" overflow="visible" style="display: block;" viewBox="0 0 29.4339 24.2194" fill="none" xmlns="http://www.w3.org/2000/svg">
<g id="Group">
<path id="Vector" d="M16.6523 12.1063L19.5217 15.3862L23.3806 17.852L24.0518 12.127L23.3806 6.53125L19.4479 8.69723L16.6523 12.1063Z" fill="var(--fill-0, #00832D)"/>
<path id="Vector_2" d="M0 17.3227V22.2012C0 23.3151 0.904094 24.2194 2.01825 24.2194H6.89673L7.90693 20.5335L6.89673 17.3227L3.54977 16.3125L0 17.3227Z" fill="var(--fill-0, #0066DA)"/>
<path id="Vector_3" d="M6.89673 0L0 6.89673L3.54998 7.90458L6.89673 6.89673L7.88857 3.72973L6.89673 0Z" fill="var(--fill-0, #E94235)"/>
<path id="Vector_4" d="M0 17.3264H6.89673V6.89844H0V17.3264Z" fill="var(--fill-0, #2684FC)"/>
<path id="Vector_5" d="M27.7845 2.91907L23.3789 6.53352V17.854L27.8029 21.4826C28.4651 22.0013 29.4339 21.5285 29.4339 20.6867V3.6987C29.4339 2.84755 28.442 2.37704 27.7845 2.91907Z" fill="var(--fill-0, #00AC47)"/>
<path id="Vector_6" d="M16.6528 12.1094V17.3222H6.89844V24.2189H21.3629C22.477 24.2189 23.3811 23.3146 23.3811 22.2006V17.855L16.6528 12.1094Z" fill="var(--fill-0, #00AC47)"/>
<path id="Vector_7" d="M21.3629 0H6.89844V6.89673H16.6528V12.1095L23.3811 6.53445V2.01825C23.3811 0.904094 22.477 0 21.3629 0Z" fill="var(--fill-0, #FFBA00)"/>
</g>
</svg>
