<svg preserveAspectRatio="none" width="100%" height="100%" overflow="visible" style="display: block;" viewBox="0 0 15.8114 15.8114" fill="none" xmlns="http://www.w3.org/2000/svg">
<g id="happy-01">
<path id="Vector" d="M7.90448 14.4965C11.543 14.4965 14.4925 11.5469 14.4925 7.90838C14.4925 4.26989 11.543 1.32031 7.90448 1.32031C4.26599 1.32031 1.31641 4.26989 1.31641 7.90838C1.31641 11.5469 4.26599 14.4965 7.90448 14.4965Z" stroke="var(--stroke-0, #141B34)" stroke-width="0.98821" stroke-linecap="round" stroke-linejoin="round"/>
<path id="Vector_2" d="M5.26953 9.88281C5.87044 10.6829 6.82715 11.2004 7.90476 11.2004C8.98237 11.2004 9.93909 10.6829 10.54 9.88281" stroke="var(--stroke-0, #141B34)" stroke-width="0.98821" stroke-linecap="round" stroke-linejoin="round"/>
<path id="Vector_3" d="M4.28125 5.80048C4.50659 5.48045 4.86536 5.27344 5.26946 5.27344C5.67356 5.27344 6.03233 5.48045 6.25767 5.80048M9.5517 5.80048C9.77702 5.48045 10.1358 5.27344 10.5399 5.27344C10.944 5.27344 11.3028 5.48045 11.5281 5.80048" stroke="var(--stroke-0, #141B34)" stroke-width="0.98821" stroke-linecap="round" stroke-linejoin="round"/>
</g>
</svg>
