<svg preserveAspectRatio="none" width="100%" height="100%" overflow="visible" style="display: block;" viewBox="0 0 12.3982 12.3982" fill="none" xmlns="http://www.w3.org/2000/svg">
<g id="happy-01">
<path id="Vector" d="M6.19718 11.3631C9.05024 11.3631 11.3631 9.05024 11.3631 6.19718C11.3631 3.34411 9.05024 1.03125 6.19718 1.03125C3.34411 1.03125 1.03125 3.34411 1.03125 6.19718C1.03125 9.05024 3.34411 11.3631 6.19718 11.3631Z" stroke="var(--stroke-0, #141B34)" stroke-width="0.774889" stroke-linecap="round" stroke-linejoin="round"/>
<path id="Vector_2" d="M4.13281 7.74219C4.60401 8.36954 5.35419 8.77537 6.19918 8.77537C7.04417 8.77537 7.79437 8.36954 8.26555 7.74219" stroke="var(--stroke-0, #141B34)" stroke-width="0.774889" stroke-linecap="round" stroke-linejoin="round"/>
<path id="Vector_3" d="M3.35938 4.54609C3.53608 4.29514 3.8174 4.13281 4.13426 4.13281C4.45113 4.13281 4.73245 4.29514 4.90915 4.54609M7.49212 4.54609C7.66879 4.29514 7.95013 4.13281 8.26701 4.13281C8.58388 4.13281 8.86522 4.29514 9.0419 4.54609" stroke="var(--stroke-0, #141B34)" stroke-width="0.774889" stroke-linecap="round" stroke-linejoin="round"/>
</g>
</svg>
