<svg preserveAspectRatio="none" width="100%" height="100%" overflow="visible" style="display: block;" viewBox="0 0 14.2241 14.2241" fill="none" xmlns="http://www.w3.org/2000/svg">
<g id="iconspace_Application_25px">
<g id="Path">
</g>
<path id="Shape" fill-rule="evenodd" clip-rule="evenodd" d="M2.49383 1.18534H5.57263C6.29529 1.18534 6.88112 1.77117 6.88112 2.49383V5.57263C6.88112 6.29529 6.29529 6.88112 5.57263 6.88112H2.49383C1.77117 6.88112 1.18534 6.29529 1.18534 5.57263V2.49383C1.18534 1.77117 1.77117 1.18534 2.49383 1.18534ZM2.49383 2.26292C2.3663 2.26292 2.26292 2.3663 2.26292 2.49383V5.57263C2.26292 5.70016 2.3663 5.80354 2.49383 5.80354H5.57263C5.70016 5.80354 5.80354 5.70016 5.80354 5.57263V2.49383C5.80354 2.3663 5.70016 2.26292 5.57263 2.26292H2.49383ZM8.65143 7.34294H11.7302C12.4529 7.34294 13.0387 7.92877 13.0387 8.65143V11.7302C13.0387 12.4529 12.4529 13.0387 11.7302 13.0387H8.65143C7.92877 13.0387 7.34294 12.4529 7.34294 11.7302V8.65143C7.34294 7.92877 7.92877 7.34294 8.65143 7.34294ZM8.65143 8.42052C8.5239 8.42052 8.42052 8.5239 8.42052 8.65143V11.7302C8.42052 11.8578 8.5239 11.9611 8.65143 11.9611H11.7302C11.8578 11.9611 11.9611 11.8578 11.9611 11.7302V8.65143C11.9611 8.5239 11.8578 8.42052 11.7302 8.42052H8.65143ZM8.65143 1.18534H11.7302C12.4529 1.18534 13.0387 1.77117 13.0387 2.49383V5.57263C13.0387 6.29529 12.4529 6.88112 11.7302 6.88112H8.65143C7.92877 6.88112 7.34294 6.29529 7.34294 5.57263V2.49383C7.34294 1.77117 7.92877 1.18534 8.65143 1.18534ZM8.65143 2.26292C8.5239 2.26292 8.42052 2.3663 8.42052 2.49383V5.57263C8.42052 5.70016 8.5239 5.80354 8.65143 5.80354H11.7302C11.8578 5.80354 11.9611 5.70016 11.9611 5.57263V2.49383C11.9611 2.3663 11.8578 2.26292 11.7302 2.26292H8.65143ZM2.49383 7.34294H5.57263C6.29529 7.34294 6.88112 7.92877 6.88112 8.65143V11.7302C6.88112 12.4529 6.29529 13.0387 5.57263 13.0387H2.49383C1.77117 13.0387 1.18534 12.4529 1.18534 11.7302V8.65143C1.18534 7.92877 1.77117 7.34294 2.49383 7.34294ZM2.49383 8.42052C2.3663 8.42052 2.26292 8.5239 2.26292 8.65143V11.7302C2.26292 11.8578 2.3663 11.9611 2.49383 11.9611H5.57263C5.70016 11.9611 5.80354 11.8578 5.80354 11.7302V8.65143C5.80354 8.5239 5.70016 8.42052 5.57263 8.42052H2.49383Z" fill="var(--fill-0, #92929D)"/>
</g>
</svg>
