<svg preserveAspectRatio="none" width="100%" height="100%" overflow="visible" style="display: block;" viewBox="0 0 14.2241 14.2241" fill="none" xmlns="http://www.w3.org/2000/svg">
<g id="iconspace_Modern Building 1_25px">
<g id="Path">
</g>
<g id="Combined Shape">
<path fill-rule="evenodd" clip-rule="evenodd" d="M7.11203 13.0387V10.0895C7.11203 9.64526 6.75019 9.28515 6.30384 9.28515H4.68747C4.24113 9.28515 3.87929 9.64526 3.87929 10.0895V13.0387H1.59883C1.04751 13.0387 1.04751 11.9663 1.59883 11.9663H2.26292V2.04612C2.26292 1.89805 2.38353 1.77801 2.53231 1.77801H8.459C8.60779 1.77801 8.7284 1.89805 8.7284 2.04612V11.9663H9.26719V4.99535H11.153C11.3017 4.99535 11.4224 5.11539 11.4224 5.26347V6.60403H10.6142C10.255 6.60403 10.255 7.14025 10.6142 7.14025H11.4224V8.74893H10.6142C10.255 8.74893 10.255 9.28515 10.6142 9.28515H11.4224V10.8938H10.6142C10.255 10.8938 10.255 11.43 10.6142 11.43H11.4224V11.9663H12.6252C13.1766 11.9663 13.1766 13.0387 12.6252 13.0387H7.11203ZM6.84263 6.0678C7.20183 6.0678 7.20183 5.53158 6.84263 5.53158H4.14868C3.78949 5.53158 3.78949 6.0678 4.14868 6.0678H6.84263ZM6.84263 3.38668C7.20183 3.38668 7.20183 3.92291 6.84263 3.92291H4.14868C3.78949 3.92291 3.78949 3.38668 4.14868 3.38668H6.84263ZM6.84263 8.2127C7.20183 8.2127 7.20183 7.67648 6.84263 7.67648H4.14868C3.78949 7.67648 3.78949 8.2127 4.14868 8.2127H6.84263Z" fill="var(--fill-0, #92929D)"/>
<path d="M6.57324 10.0895V13.0387H4.41808V10.0895C4.41808 9.94141 4.53869 9.82137 4.68747 9.82137H6.30384C6.45263 9.82137 6.57324 9.94141 6.57324 10.0895Z" fill="var(--fill-0, #92929D)"/>
</g>
</g>
</svg>
