<svg preserveAspectRatio="none" width="100%" height="100%" overflow="visible" style="display: block;" viewBox="0 0 10.668 10.668" fill="none" xmlns="http://www.w3.org/2000/svg">
<path id="Path" fill-rule="evenodd" clip-rule="evenodd" d="M5.92669 4.74135H10.0754C10.4027 4.74135 10.668 5.0067 10.668 5.33402C10.668 5.66134 10.4027 5.92669 10.0754 5.92669H5.92669V10.0754C5.92669 10.4027 5.66134 10.668 5.33402 10.668C5.0067 10.668 4.74135 10.4027 4.74135 10.0754V5.92669H0.592669C0.265347 5.92669 0 5.66134 0 5.33402C0 5.0067 0.265347 4.74135 0.592669 4.74135H4.74135V0.592669C4.74135 0.265347 5.0067 0 5.33402 0C5.66134 0 5.92669 0.265347 5.92669 0.592669V4.74135Z" fill="var(--fill-0, #92929D)"/>
</svg>
