<svg preserveAspectRatio="none" width="100%" height="100%" overflow="visible" style="display: block;" viewBox="0 0 13.0387 13.0387" fill="none" xmlns="http://www.w3.org/2000/svg">
<path id="Shape" fill-rule="evenodd" clip-rule="evenodd" d="M6.51936 3.55601C5.53739 3.55601 4.74135 2.75997 4.74135 1.77801C4.74135 0.796041 5.53739 0 6.51936 0C7.50133 0 8.29737 0.796041 8.29737 1.77801C8.29737 2.75997 7.50133 3.55601 6.51936 3.55601ZM6.51936 2.37068C6.84668 2.37068 7.11203 2.10533 7.11203 1.77801C7.11203 1.45069 6.84668 1.18534 6.51936 1.18534C6.19204 1.18534 5.92669 1.45069 5.92669 1.77801C5.92669 2.10533 6.19204 2.37068 6.51936 2.37068ZM5.92669 3.55601H7.11203C8.094 3.55601 8.89004 4.35206 8.89004 5.33402V5.92669C8.89004 6.90866 8.094 7.7047 7.11203 7.7047H5.92669C4.94472 7.7047 4.14868 6.90866 4.14868 5.92669V5.33402C4.14868 4.35206 4.94472 3.55601 5.92669 3.55601ZM5.92669 4.74135C5.59937 4.74135 5.33402 5.0067 5.33402 5.33402V5.92669C5.33402 6.25401 5.59937 6.51936 5.92669 6.51936H7.11203C7.43935 6.51936 7.7047 6.25401 7.7047 5.92669V5.33402C7.7047 5.0067 7.43935 4.74135 7.11203 4.74135H5.92669ZM10.668 8.89004C9.68608 8.89004 8.89004 8.094 8.89004 7.11203C8.89004 6.13006 9.68608 5.33402 10.668 5.33402C11.65 5.33402 12.4461 6.13006 12.4461 7.11203C12.4461 8.094 11.65 8.89004 10.668 8.89004ZM10.668 7.7047C10.9954 7.7047 11.2607 7.43935 11.2607 7.11203C11.2607 6.78471 10.9954 6.51936 10.668 6.51936C10.3407 6.51936 10.0754 6.78471 10.0754 7.11203C10.0754 7.43935 10.3407 7.7047 10.668 7.7047ZM10.0754 8.89004H11.2607C12.2427 8.89004 13.0387 9.68608 13.0387 10.668V11.2607C13.0387 12.2427 12.2427 13.0387 11.2607 13.0387H10.0754C9.09341 13.0387 8.29737 12.2427 8.29737 11.2607V10.668C8.29737 9.68608 9.09341 8.89004 10.0754 8.89004ZM10.0754 10.0754C9.74805 10.0754 9.48271 10.3407 9.48271 10.668V11.2607C9.48271 11.588 9.74805 11.8534 10.0754 11.8534H11.2607C11.588 11.8534 11.8534 11.588 11.8534 11.2607V10.668C11.8534 10.3407 11.588 10.0754 11.2607 10.0754H10.0754ZM2.37068 8.89004C1.38871 8.89004 0.592669 8.094 0.592669 7.11203C0.592669 6.13006 1.38871 5.33402 2.37068 5.33402C3.35264 5.33402 4.14868 6.13006 4.14868 7.11203C4.14868 8.094 3.35264 8.89004 2.37068 8.89004ZM2.37068 7.7047C2.698 7.7047 2.96335 7.43935 2.96335 7.11203C2.96335 6.78471 2.698 6.51936 2.37068 6.51936C2.04335 6.51936 1.77801 6.78471 1.77801 7.11203C1.77801 7.43935 2.04335 7.7047 2.37068 7.7047ZM1.77801 8.89004H2.96335C3.94531 8.89004 4.74135 9.68608 4.74135 10.668V11.2607C4.74135 12.2427 3.94531 13.0387 2.96335 13.0387H1.77801C0.796041 13.0387 0 12.2427 0 11.2607V10.668C0 9.68608 0.796041 8.89004 1.77801 8.89004ZM1.77801 10.0754C1.45069 10.0754 1.18534 10.3407 1.18534 10.668V11.2607C1.18534 11.588 1.45069 11.8534 1.77801 11.8534H2.96335C3.29067 11.8534 3.55601 11.588 3.55601 11.2607V10.668C3.55601 10.3407 3.29067 10.0754 2.96335 10.0754H1.77801Z" fill="var(--fill-0, #92929D)"/>
</svg>
