<svg preserveAspectRatio="none" width="100%" height="100%" overflow="visible" style="display: block;" viewBox="0 0 14.2241 14.2241" fill="none" xmlns="http://www.w3.org/2000/svg">
<g id="Working at">
<g id="Rectangle 24">
</g>
<path id="Combined Shape" fill-rule="evenodd" clip-rule="evenodd" d="M10.0754 3.55601H11.8534C12.8353 3.55601 13.6314 4.35206 13.6314 5.33402V11.2607C13.6314 12.2427 12.8353 13.0387 11.8534 13.0387H2.37068C1.38871 13.0387 0.592669 12.2427 0.592669 11.2607V5.33402C0.592669 4.35206 1.38871 3.55601 2.37068 3.55601H4.14868C4.14868 2.57405 4.94472 1.77801 5.92669 1.77801H8.29737C9.27933 1.77801 10.0754 2.57405 10.0754 3.55601ZM3.85235 4.74135V11.8534H10.3717V4.74135H3.85235ZM11.557 4.74135V11.8534H11.8534C12.1807 11.8534 12.4461 11.588 12.4461 11.2607V5.33402C12.4461 5.0067 12.1807 4.74135 11.8534 4.74135H11.557ZM2.37068 4.74135H2.66701V11.8534H2.37068C2.04335 11.8534 1.77801 11.588 1.77801 11.2607V5.33402C1.77801 5.0067 2.04335 4.74135 2.37068 4.74135ZM8.89004 3.55601C8.89004 3.22869 8.62469 2.96335 8.29737 2.96335H5.92669C5.59937 2.96335 5.33402 3.22869 5.33402 3.55601H8.89004Z" fill="var(--fill-0, #92929D)"/>
</g>
</svg>
