<svg preserveAspectRatio="none" width="100%" height="100%" overflow="visible" style="display: block;" viewBox="0 0 31.875 31.875" fill="none" xmlns="http://www.w3.org/2000/svg">
<g id="instagram" clip-path="url(#clip0_2877_47664)">
<rect id="Rectangle 1430113524" x="2.48047" y="2.36719" width="26.9185" height="27.1457" rx="3.98437" fill="url(#paint0_linear_2877_47664)"/>
<path id="Vector" d="M15.9375 2.87174C20.1929 2.87174 20.697 2.88792 22.3775 2.9645C23.9314 3.03547 24.7753 3.29508 25.337 3.51335C26.0808 3.80246 26.6118 4.14786 27.1695 4.70555C27.7271 5.26323 28.0725 5.79415 28.3617 6.53799C28.5799 7.09966 28.8395 7.9436 28.9105 9.49738C28.9871 11.178 29.0033 11.6821 29.0033 15.9375C29.0033 20.1929 28.9871 20.6971 28.9105 22.3776C28.8395 23.9315 28.5799 24.7753 28.3617 25.337C28.0725 26.0808 27.7271 26.6119 27.1695 27.1696C26.6118 27.7273 26.0808 28.0727 25.337 28.3617C24.7753 28.5799 23.9314 28.8397 22.3775 28.9105C20.6972 28.9872 20.1932 29.0034 15.9375 29.0034C11.6818 29.0034 11.1777 28.9872 9.49738 28.9105C7.94347 28.8395 7.09966 28.5799 6.53799 28.3617C5.79415 28.0727 5.26311 27.7273 4.70542 27.1696C4.14773 26.6118 3.80234 26.0808 3.51335 25.337C3.29508 24.7755 3.03535 23.9315 2.9645 22.3776C2.8878 20.6971 2.87161 20.1931 2.87161 15.9375C2.87161 11.6819 2.8878 11.178 2.9645 9.4975C3.03547 7.9436 3.29508 7.09966 3.51335 6.53799C3.80234 5.79415 4.14773 5.26323 4.70542 4.70555C5.26323 4.14773 5.79415 3.80246 6.53799 3.51335C7.09953 3.29508 7.94347 3.03547 9.49738 2.9645C11.1779 2.88792 11.6819 2.87174 15.9375 2.87174ZM15.9375 0C11.6091 0 11.0664 0.0183032 9.36652 0.095874C7.67005 0.17332 6.51146 0.442764 5.49781 0.836719C4.44968 1.244 3.56091 1.78898 2.67489 2.67501C1.78886 3.56103 1.244 4.4498 0.836719 5.49781C0.442639 6.51159 0.17332 7.67017 0.095874 9.36652C0.0183032 11.0664 0 11.6091 0 15.9375C0 20.2659 0.0183032 20.8086 0.095874 22.5085C0.17332 24.205 0.442639 25.3635 0.836719 26.3772C1.24387 27.4252 1.78886 28.3141 2.67489 29.2001C3.56091 30.0861 4.44968 30.631 5.49781 31.0383C6.51159 31.4324 7.67005 31.7017 9.36639 31.7791C11.0664 31.8567 11.6091 31.875 15.9375 31.875C20.2659 31.875 20.8086 31.8567 22.5085 31.7791C24.2048 31.7017 25.3634 31.4324 26.3771 31.0383C27.4252 30.6311 28.314 30.0861 29.2 29.2001C30.086 28.3141 30.631 27.4253 31.0383 26.3772C31.4322 25.3634 31.7017 24.205 31.7791 22.5086C31.8567 20.8086 31.875 20.2659 31.875 15.9375C31.875 11.6091 31.8567 11.0664 31.7791 9.36652C31.7017 7.67017 31.4322 6.51159 31.0383 5.49794C30.631 4.4498 30.086 3.56103 29.2 2.67501C28.314 1.78898 27.4252 1.24387 26.3772 0.836719C25.3634 0.442764 24.2048 0.17332 22.5085 0.095874C20.8086 0.0183032 20.2659 0 15.9375 0ZM15.9375 7.75334C11.4175 7.75334 7.75334 11.4177 7.75334 15.9375C7.75334 20.4573 11.4175 24.1217 15.9375 24.1217C20.4574 24.1217 24.1217 20.4575 24.1217 15.9375C24.1217 11.4176 20.4574 7.75334 15.9375 7.75334ZM15.9375 21.25C13.0035 21.25 10.625 18.8715 10.625 15.9375C10.625 13.0035 13.0035 10.625 15.9375 10.625C18.8715 10.625 21.25 13.0035 21.25 15.9375C21.25 18.8715 18.8715 21.25 15.9375 21.25ZM26.3574 7.42999C26.3574 8.48635 25.5012 9.34249 24.4449 9.34249C23.3885 9.34249 22.5324 8.48635 22.5324 7.42999C22.5324 6.37363 23.3887 5.51749 24.4449 5.51749C25.5011 5.51749 26.3574 6.37375 26.3574 7.42999Z" fill="var(--fill-0, white)"/>
</g>
<defs>
<linearGradient id="paint0_linear_2877_47664" x1="15.9397" y1="2.36719" x2="15.9397" y2="29.5128" gradientUnits="userSpaceOnUse">
<stop stop-color="#5342D6"/>
<stop offset="0.533654" stop-color="#EF2044"/>
<stop offset="1" stop-color="#FEC053"/>
</linearGradient>
<clipPath id="clip0_2877_47664">
<rect width="31.875" height="31.875" fill="white"/>
</clipPath>
</defs>
</svg>
