<svg preserveAspectRatio="none" width="100%" height="100%" overflow="visible" style="display: block;" viewBox="0 0 16 16" fill="none" xmlns="http://www.w3.org/2000/svg">
<g id="instagram">
<path id="Vector" d="M2 8C2 5.17157 2 3.75736 2.87868 2.87868C3.75736 2 5.17157 2 8 2C10.8284 2 12.2427 2 13.1213 2.87868C14 3.75736 14 5.17157 14 8C14 10.8284 14 12.2427 13.1213 13.1213C12.2427 14 10.8284 14 8 14C5.17157 14 3.75736 14 2.87868 13.1213C2 12.2427 2 10.8284 2 8Z" stroke="var(--stroke-0, white)" stroke-linecap="round" stroke-linejoin="round"/>
<path id="Vector_2" d="M10.6654 7.99479C10.6654 9.46753 9.47143 10.6615 7.9987 10.6615C6.52594 10.6615 5.33203 9.46753 5.33203 7.99479C5.33203 6.52203 6.52594 5.32812 7.9987 5.32812C9.47143 5.32812 10.6654 6.52203 10.6654 7.99479Z" stroke="var(--stroke-0, white)" stroke-linecap="round" stroke-linejoin="round"/>
<path id="Vector_3" d="M11.582 4.49479H11.4987M11.6654 4.49479C11.6654 4.58685 11.5907 4.66146 11.4987 4.66146C11.4066 4.66146 11.332 4.58685 11.332 4.49479C11.332 4.40275 11.4066 4.32812 11.4987 4.32812C11.5907 4.32812 11.6654 4.40275 11.6654 4.49479Z" stroke="var(--stroke-0, white)" stroke-linecap="round" stroke-linejoin="round"/>
</g>
</svg>
