<svg preserveAspectRatio="none" width="100%" height="100%" overflow="visible" style="display: block;" viewBox="0 0 31.8603 22.291" fill="none" xmlns="http://www.w3.org/2000/svg">
<g id="Layer">
<path id="Layer_2" fill-rule="evenodd" clip-rule="evenodd" d="M13.2584 2.43108C14.2856 1.36143 15.7167 0.69733 17.2986 0.69733C19.4017 0.69733 21.2369 1.86967 22.2139 3.61006C22.4318 3.51281 22.6545 3.42723 22.8812 3.35333C23.1082 3.27942 23.3385 3.21761 23.5719 3.16807C23.8053 3.11853 24.0411 3.08128 24.2783 3.05651C24.5155 3.03175 24.7539 3.01946 24.9923 3.01966C28.7857 3.01966 31.8603 6.12027 31.8603 9.94559C31.8603 13.7709 28.7857 16.8715 24.9923 16.8715C24.5286 16.8715 24.0763 16.8252 23.639 16.737C22.7787 18.2706 21.1382 19.3072 19.2563 19.3072C18.4685 19.3072 17.7231 19.126 17.06 18.8018C16.1875 20.8533 14.1549 22.291 11.7867 22.291C9.32036 22.291 7.21772 20.7307 6.41105 18.543C6.32124 18.562 6.23103 18.5785 6.14042 18.5928C6.0498 18.6071 5.95879 18.619 5.86757 18.6284C5.77635 18.6379 5.68473 18.6451 5.59311 18.6498C5.50149 18.6546 5.40987 18.657 5.31804 18.6568C2.38094 18.6572 1.24615e-05 16.2525 1.24615e-05 13.2862C-0.00099436 12.8181 0.0590122 12.3519 0.178623 11.8994C0.298233 11.447 0.47644 11.012 0.708614 10.6055C0.940988 10.1991 1.22531 9.82477 1.55455 9.49192C1.88378 9.15906 2.25509 8.87071 2.65903 8.6339C2.57506 8.4408 2.50116 8.24346 2.43773 8.0427C2.3741 7.84194 2.32074 7.63816 2.27805 7.43196C2.23536 7.22576 2.20334 7.01735 2.182 6.80793C2.16065 6.59851 2.14998 6.38789 2.15038 6.17746C2.15038 2.76554 4.92075 4.99733e-06 8.33831 4.99733e-06C8.81272 -0.000599096 9.28573 0.0535679 9.74786 0.161096C10.2098 0.268826 10.658 0.429314 11.0833 0.639538C11.5086 0.849561 11.9083 1.10811 12.2744 1.40956C12.6407 1.7112 12.9707 2.05392 13.2584 2.43108Z" fill="var(--fill-0, #00A1E0)"/>
<path id="Layer_3" fill-rule="evenodd" clip-rule="evenodd" d="M4.61291 11.558L4.74178 11.2004C4.76232 11.1392 4.80863 11.1593 4.82756 11.1708C4.86341 11.192 4.88918 11.2113 4.93549 11.2383C5.31527 11.4783 5.66725 11.4807 5.777 11.4807C6.06132 11.4807 6.23772 11.3303 6.23772 11.1273V11.1169C6.23772 10.896 5.96588 10.8124 5.65195 10.7163L5.58228 10.694C5.15116 10.5714 4.69023 10.3942 4.69023 9.84866V9.83758C4.69023 9.31988 5.10806 8.95883 5.70591 8.95883L5.77156 8.95802C6.12274 8.95802 6.46204 9.06012 6.7081 9.20912C6.73046 9.22322 6.752 9.24879 6.73952 9.28303L6.60702 9.64065C6.58366 9.70166 6.52003 9.66119 6.52003 9.66119C6.456 9.62796 6.39035 9.59836 6.32289 9.57259C6.25564 9.54681 6.18697 9.52507 6.1171 9.50714C6.04743 9.48922 5.97655 9.47533 5.90526 9.46546C5.83378 9.4558 5.76189 9.44996 5.69001 9.44855C5.43629 9.44855 5.27318 9.58286 5.27318 9.76549V9.77697C5.27318 9.98981 5.55268 10.0806 5.87667 10.1861L5.93245 10.2037C6.36216 10.3394 6.82067 10.5275 6.82067 11.0448V11.0554C6.82067 11.6146 6.41431 11.9618 5.76109 11.9618C5.44011 11.9618 5.13303 11.9122 4.80843 11.7399C4.74702 11.7044 4.68641 11.6738 4.6264 11.6301C4.62016 11.6211 4.59277 11.6104 4.61251 11.558H4.61291ZM14.3094 11.2004C14.3283 11.1418 14.3831 11.1636 14.3948 11.1708C14.4304 11.1928 14.4568 11.2113 14.5029 11.2383C14.8833 11.4783 15.2347 11.4807 15.3454 11.4807C15.6287 11.4807 15.8053 11.3303 15.8053 11.1273V11.1169C15.8053 10.896 15.5339 10.8124 15.22 10.7163L15.1503 10.694C14.7186 10.5714 14.2577 10.3942 14.2577 9.84866V9.83758C14.2577 9.31988 14.6757 8.95883 15.2737 8.95883L15.3388 8.95802C15.69 8.95802 16.0299 9.06012 16.2761 9.20912C16.2977 9.22322 16.3196 9.24879 16.3075 9.28303C16.2953 9.31464 16.1865 9.60722 16.175 9.64065C16.1511 9.70166 16.0881 9.66119 16.0881 9.66119C16.024 9.62796 15.9582 9.59836 15.8909 9.57259C15.8237 9.54681 15.7548 9.52507 15.6851 9.50714C15.6153 9.48922 15.5444 9.47533 15.4731 9.46546C15.4016 9.4558 15.3297 9.44996 15.2576 9.44855C15.0039 9.44855 14.8408 9.58286 14.8408 9.76549V9.77697C14.8408 9.98981 15.1199 10.0806 15.4443 10.1861L15.5001 10.2037C15.9298 10.3394 16.3879 10.5275 16.3879 11.0448V11.0554C16.3879 11.6146 15.9821 11.9618 15.3287 11.9618C15.0073 11.9618 14.7005 11.9122 14.3761 11.7399C14.3146 11.7044 14.254 11.6738 14.1938 11.6301C14.1876 11.6211 14.16 11.6104 14.1801 11.558L14.3094 11.2004ZM21.2573 9.87625C21.3108 10.0559 21.3374 10.2534 21.3374 10.462C21.3374 10.671 21.3108 10.8678 21.2573 11.0476C21.245 11.0907 21.2305 11.1332 21.214 11.1748C21.1973 11.2165 21.1787 11.2574 21.1578 11.2973C21.1371 11.3369 21.1143 11.3758 21.0895 11.4133C21.0648 11.4507 21.0382 11.4868 21.0098 11.5216C20.9814 11.5552 20.951 11.5872 20.919 11.6176C20.8868 11.6478 20.8531 11.6764 20.8179 11.703C20.7825 11.7294 20.7458 11.754 20.7078 11.7763C20.6697 11.7989 20.6306 11.819 20.5904 11.8371C20.423 11.9136 20.2265 11.9521 20.0056 11.9521C19.7847 11.9521 19.5874 11.9136 19.4208 11.8371C19.3806 11.819 19.3413 11.7989 19.3032 11.7763C19.2654 11.754 19.2285 11.7294 19.1933 11.703C19.1581 11.6764 19.1242 11.6478 19.0922 11.6176C19.0602 11.5872 19.0298 11.5552 19.0014 11.5216C18.973 11.4868 18.9462 11.4507 18.9217 11.4133C18.8969 11.3758 18.8741 11.3371 18.8532 11.2973C18.8325 11.2576 18.8137 11.2167 18.797 11.175C18.7805 11.1336 18.766 11.0911 18.7535 11.0478C18.7398 11.0003 18.7279 10.9523 18.7177 10.904C18.7076 10.8555 18.6991 10.8068 18.6923 10.7578C18.6857 10.7089 18.6808 10.6596 18.6776 10.6102C18.6744 10.5609 18.673 10.5116 18.6734 10.462C18.6734 10.253 18.7004 10.0559 18.7535 9.87625C18.8073 9.69502 18.8904 9.53554 19.001 9.40243C19.0296 9.36861 19.06 9.33639 19.092 9.30598C19.1242 9.27537 19.1579 9.24678 19.1933 9.22C19.2285 9.19322 19.2652 9.16845 19.3032 9.1457C19.3413 9.12314 19.3806 9.1024 19.4208 9.08408C19.5878 9.00615 19.7839 8.96668 20.0056 8.96668C20.2271 8.96668 20.4234 9.00615 20.5904 9.08408C20.7569 9.1618 20.8982 9.26873 21.0098 9.40243C21.1206 9.53554 21.2043 9.69502 21.2573 9.87625ZM20.5372 9.72361C20.4222 9.55084 20.248 9.46727 20.0056 9.46727C19.763 9.46727 19.5902 9.55084 19.4766 9.72361C19.3626 9.89779 19.3045 10.1461 19.3045 10.462C19.3045 10.7776 19.3626 11.0276 19.4772 11.2032C19.5902 11.378 19.763 11.4626 20.0056 11.4626C20.248 11.4626 20.4222 11.3776 20.5372 11.2032C20.653 11.0276 20.7122 10.7776 20.7122 10.462C20.7122 10.1461 20.6536 9.89779 20.5372 9.72361ZM25.7374 11.378L25.8713 11.7479C25.8887 11.7932 25.8494 11.813 25.8494 11.813C25.6428 11.8931 25.3561 11.9503 25.077 11.9503C24.6038 11.9503 24.2413 11.8142 23.9995 11.5452C23.759 11.2769 23.6364 10.9123 23.6364 10.46C23.6364 10.2506 23.6668 10.0524 23.726 9.87302C23.7852 9.692 23.874 9.53231 23.9912 9.39941C24.0214 9.36538 24.0534 9.33296 24.0873 9.30236C24.1211 9.27175 24.1565 9.24295 24.1934 9.21617C24.2304 9.18959 24.2687 9.16482 24.3084 9.14227C24.3478 9.11952 24.3887 9.09918 24.4306 9.08106C24.6048 9.00333 24.8095 8.96427 25.0383 8.96427C25.1925 8.96427 25.3299 8.97373 25.4477 8.99125C25.5733 9.01058 25.7411 9.05589 25.8117 9.08347C25.8246 9.08831 25.8605 9.10583 25.846 9.14791C25.7944 9.29309 25.7592 9.38794 25.7115 9.52023C25.6905 9.57661 25.648 9.55789 25.648 9.55789C25.4686 9.50151 25.2964 9.47573 25.0717 9.47573C24.8017 9.47573 24.5987 9.56554 24.4664 9.74133C24.3325 9.91873 24.2576 10.1509 24.2566 10.46C24.2556 10.7989 24.3406 11.05 24.4912 11.2052C24.6414 11.3603 24.851 11.4386 25.1152 11.4386C25.2221 11.4386 25.3232 11.4316 25.4142 11.4175C25.5041 11.4032 25.5884 11.3752 25.6678 11.3442C25.6678 11.3442 25.7191 11.3251 25.7374 11.378ZM28.5833 10.5683C28.5787 10.6157 28.53 10.6163 28.53 10.6163L26.6836 10.6148C26.6951 10.8953 26.7624 11.0939 26.8983 11.2286C27.0316 11.3607 27.2434 11.4453 27.5304 11.4457C27.9686 11.4467 28.1558 11.3585 28.2885 11.3094C28.2885 11.3094 28.3391 11.2912 28.3582 11.3414L28.4784 11.6797C28.5028 11.7364 28.4832 11.7564 28.4627 11.7679C28.3471 11.8315 28.0666 11.9507 27.5328 11.9521C27.2738 11.9531 27.0483 11.9161 26.8627 11.844C26.8188 11.8279 26.7757 11.8089 26.734 11.7878C26.6923 11.7667 26.6516 11.7431 26.6126 11.7171C26.5735 11.6913 26.536 11.6632 26.5002 11.6329C26.4644 11.6027 26.4303 11.5705 26.3981 11.5365C26.3675 11.5031 26.3387 11.4678 26.3119 11.4312C26.2851 11.3945 26.2604 11.3565 26.2378 11.317C26.2153 11.2775 26.1951 11.2369 26.177 11.1952C26.1591 11.1535 26.1434 11.1108 26.1303 11.0673C26.116 11.0196 26.1035 10.9715 26.0928 10.9227C26.0822 10.8742 26.0733 10.8251 26.0665 10.7757C26.0594 10.7266 26.0544 10.6771 26.0512 10.6273C26.0479 10.5776 26.0465 10.5279 26.0469 10.4781C26.0469 10.2691 26.0737 10.0706 26.1279 9.88913C26.1818 9.70629 26.2658 9.545 26.3776 9.40948C26.4066 9.37505 26.4372 9.34223 26.4698 9.31122C26.5022 9.28021 26.5364 9.25101 26.5723 9.22382C26.6079 9.19644 26.6452 9.17127 26.6838 9.14831C26.7223 9.12516 26.7622 9.10421 26.8031 9.08549C26.9724 9.00575 27.1822 8.96668 27.4128 8.96668C27.6105 8.96668 27.7909 9.00917 27.9412 9.07401C28.0567 9.12355 28.1731 9.21295 28.2923 9.34122C28.3677 9.42197 28.4822 9.59897 28.5285 9.77335C28.6474 10.1894 28.5853 10.5484 28.5833 10.5683ZM28.0094 10.159C27.9957 9.98981 27.9627 9.83778 27.8868 9.72361C27.771 9.55084 27.6115 9.4558 27.3693 9.4558C27.1269 9.4558 26.9547 9.55084 26.8407 9.72361C26.7662 9.83778 26.7181 9.98337 26.6919 10.159H28.0094ZM13.7941 10.5683C13.7893 10.6157 13.7406 10.6163 13.7406 10.6163L11.8936 10.6148C11.9055 10.8953 11.9724 11.0939 12.1087 11.2286C12.2422 11.3607 12.4536 11.4453 12.7404 11.4457C13.1787 11.4467 13.3666 11.3585 13.4989 11.3094C13.4989 11.3094 13.5495 11.2912 13.5684 11.3414L13.689 11.6797C13.7134 11.7364 13.6938 11.7564 13.6735 11.7679C13.5571 11.8315 13.2764 11.9507 12.7432 11.9521C12.484 11.9531 12.2585 11.9161 12.0731 11.844C12.0292 11.8279 11.9863 11.8089 11.9444 11.7878C11.9027 11.7665 11.862 11.7429 11.823 11.7171C11.7839 11.6911 11.7462 11.6632 11.7104 11.6329C11.6746 11.6027 11.6405 11.5705 11.6083 11.5365C11.5777 11.5031 11.5489 11.4678 11.5223 11.4312C11.4955 11.3945 11.471 11.3563 11.4484 11.3168C11.4259 11.2775 11.4057 11.2369 11.3878 11.1952C11.3699 11.1535 11.3542 11.1108 11.3411 11.0673C11.3266 11.0196 11.3141 10.9715 11.3034 10.9227C11.2928 10.8742 11.2837 10.8251 11.2769 10.7759C11.2698 10.7266 11.2646 10.6771 11.2614 10.6273C11.2579 10.5776 11.2565 10.5279 11.2571 10.4781C11.2571 10.2691 11.2843 10.0706 11.3379 9.88913C11.3504 9.84544 11.3651 9.80255 11.382 9.76026C11.3989 9.71817 11.4178 9.67689 11.4388 9.63662C11.4597 9.59635 11.4829 9.55728 11.5076 9.51923C11.5326 9.48137 11.5596 9.44472 11.5882 9.40948C11.617 9.37505 11.6478 9.34223 11.6802 9.31122C11.7128 9.28021 11.7468 9.25101 11.7827 9.22382C11.8183 9.19664 11.8556 9.17147 11.894 9.14831C11.9327 9.12516 11.9724 9.10421 12.0132 9.08549C12.1832 9.00575 12.393 8.96668 12.623 8.96668C12.6683 8.96668 12.7136 8.9689 12.7587 8.97333C12.8038 8.97776 12.8485 8.9846 12.893 8.99346C12.9373 9.00253 12.9812 9.0138 13.0245 9.02729C13.0678 9.04058 13.1103 9.05629 13.152 9.07401C13.2675 9.12355 13.3839 9.21295 13.5027 9.34122C13.5781 9.42197 13.6928 9.59897 13.7387 9.77335C13.8571 10.1894 13.7961 10.5484 13.7941 10.5683ZM13.2198 10.159C13.2059 9.98981 13.1729 9.83778 13.0972 9.72361C12.9822 9.55084 12.8219 9.4558 12.5799 9.4558C12.3372 9.4558 12.1649 9.55084 12.0515 9.72361C11.9762 9.83778 11.9285 9.98337 11.9017 10.159H13.2198ZM8.95009 10.1068V10.0287C8.95009 9.78241 8.89875 9.66642 8.79806 9.5889C8.69497 9.51016 8.54092 9.46929 8.34157 9.46929C8.34157 9.46929 7.89213 9.46385 7.53672 9.65676C7.52041 9.66642 7.50672 9.67206 7.50672 9.67206C7.50672 9.67206 7.46221 9.68777 7.4461 9.64206L7.31542 9.29108C7.29528 9.24054 7.33173 9.21758 7.33173 9.21758C7.49806 9.0879 7.90078 9.00957 7.90078 9.00957C7.94166 9.00252 7.98274 8.99608 8.02382 8.99064C8.0649 8.98521 8.10618 8.98038 8.14746 8.97655C8.18874 8.97292 8.23022 8.9699 8.2717 8.96769C8.31298 8.96568 8.35446 8.96447 8.39594 8.96406C8.76464 8.96406 9.04997 9.04964 9.24409 9.21919C9.4386 9.38955 9.53747 9.66401 9.53747 10.0339L9.53848 11.7226C9.53848 11.7226 9.54231 11.7713 9.49599 11.7824C9.49599 11.7824 9.42813 11.8013 9.36712 11.8156C9.3055 11.8297 9.0832 11.875 8.90157 11.9058C8.85525 11.9134 8.80874 11.9203 8.76222 11.9261C8.7155 11.932 8.66879 11.9368 8.62207 11.9406C8.57515 11.9447 8.52844 11.9475 8.48152 11.9495C8.4346 11.9513 8.38748 11.9523 8.34056 11.9523C8.16115 11.9523 7.99663 11.9356 7.85165 11.9026C7.81802 11.8955 7.7848 11.8869 7.75198 11.8764C7.71915 11.8659 7.68694 11.8538 7.65552 11.8402C7.62391 11.8265 7.5931 11.8112 7.5631 11.7944C7.53309 11.7777 7.5039 11.7594 7.4757 11.7395C7.45013 11.7209 7.42577 11.7008 7.40261 11.6793C7.37945 11.6575 7.35771 11.6346 7.33757 11.6102C7.31723 11.5858 7.2985 11.5603 7.28139 11.5337C7.26427 11.5071 7.24897 11.4793 7.23528 11.4509C7.17849 11.3349 7.1499 11.1932 7.1499 11.0295C7.1499 10.8688 7.18373 10.7256 7.24897 10.6038C7.31441 10.4826 7.40422 10.3799 7.51719 10.2993C7.54618 10.279 7.57619 10.2596 7.60699 10.2419C7.6378 10.2242 7.66942 10.2077 7.70164 10.1928C7.73406 10.1779 7.76688 10.1642 7.8003 10.1523C7.83373 10.1402 7.86776 10.1298 7.90219 10.1207C8.04617 10.0824 8.19921 10.0625 8.35728 10.0625C8.47326 10.0625 8.57012 10.0649 8.64543 10.071C8.64543 10.071 8.79122 10.0839 8.95009 10.1068ZM8.45212 11.4755C8.71611 11.4596 8.9503 11.4094 8.9503 11.4094V10.5699C8.9503 10.5699 8.7141 10.5313 8.4489 10.5275C8.07295 10.523 7.91267 10.6612 7.91367 10.661C7.80292 10.7397 7.74896 10.8563 7.74896 11.018C7.74896 11.1213 7.76748 11.2022 7.80473 11.2586C7.82809 11.2959 7.83816 11.3098 7.91065 11.368C7.90965 11.3675 8.07617 11.4986 8.45212 11.4755ZM23.4008 9.50694C23.3889 9.53896 23.3694 9.56091 23.3335 9.55708C23.3335 9.55708 23.2276 9.53272 23.1308 9.53272C23.0643 9.53272 22.9691 9.54117 22.8833 9.56755C22.862 9.5742 22.841 9.58205 22.8207 9.59111C22.8001 9.60017 22.7802 9.61065 22.7611 9.62212C22.7419 9.6336 22.7234 9.64629 22.7059 9.66018C22.6882 9.67387 22.6713 9.68857 22.6556 9.70448C22.5879 9.76952 22.5331 9.86114 22.4935 9.97612C22.453 10.0917 22.4322 10.2758 22.4322 10.4602V11.8353C22.4322 11.8428 22.4308 11.85 22.428 11.8569C22.4252 11.8635 22.4212 11.8698 22.4159 11.875C22.4107 11.8802 22.4047 11.8843 22.3978 11.8871C22.391 11.8899 22.3837 11.8915 22.3765 11.8915H21.8918C21.8843 11.8915 21.8769 11.8901 21.87 11.8875C21.8632 11.8847 21.8569 11.8806 21.8515 11.8754C21.8463 11.8702 21.842 11.8641 21.8392 11.8573C21.8362 11.8504 21.8346 11.8432 21.8346 11.8357V9.08247C21.8346 9.05146 21.8571 9.02669 21.8882 9.02669H22.3612C22.3924 9.02669 22.4147 9.05146 22.4147 9.08247V9.30739C22.4854 9.21275 22.6123 9.12898 22.727 9.07743C22.842 9.02528 22.9705 8.98702 23.2029 9.00091C23.3239 9.00816 23.4809 9.04139 23.5128 9.05347C23.5188 9.05589 23.5244 9.05971 23.5293 9.06434C23.5341 9.06898 23.5377 9.07461 23.5403 9.08086C23.543 9.0869 23.5442 9.09354 23.5442 9.10019C23.5442 9.10683 23.5428 9.11348 23.5401 9.11972C23.5228 9.17026 23.4332 9.42297 23.4008 9.50694ZM19.0201 7.90791L18.8784 8.29553C18.8665 8.32493 18.8588 8.34225 18.7986 8.32413C18.7787 8.31789 18.7586 8.31245 18.7382 8.30762C18.7179 8.30299 18.6973 8.29896 18.6768 8.29574C18.6563 8.29251 18.6355 8.2901 18.6148 8.28849C18.5938 8.28688 18.5731 8.28587 18.5522 8.28587C18.4791 8.28587 18.4128 8.29533 18.3542 8.31466C18.3397 8.3195 18.3254 8.32493 18.3115 8.33138C18.2976 8.33782 18.2841 8.34507 18.271 8.35313C18.2582 8.36098 18.2455 8.36984 18.2336 8.3795C18.2217 8.38897 18.2102 8.39924 18.1996 8.41011C18.1853 8.42401 18.1718 8.4385 18.1591 8.45381C18.1464 8.46911 18.1347 8.48502 18.1239 8.50153C18.113 8.51804 18.1029 8.53536 18.094 8.55288C18.085 8.5706 18.0769 8.58872 18.0699 8.60725C18.002 8.80237 17.9758 9.01038 17.9724 9.02347H18.5626C18.6126 9.02347 18.6281 9.04662 18.6232 9.08307L18.5544 9.46687C18.5431 9.52265 18.4925 9.52064 18.4925 9.52064H17.8842L17.4686 11.8736C17.4595 11.9263 17.4495 11.9789 17.4382 12.0312C17.4269 12.0834 17.4146 12.1356 17.401 12.1873C17.3875 12.2391 17.3728 12.2904 17.3571 12.3415C17.3411 12.3925 17.3242 12.4432 17.3061 12.4936C17.2411 12.6639 17.1738 12.7884 17.0657 12.907C17.0427 12.9336 17.0182 12.9585 16.9922 12.9819C16.9662 13.0052 16.9386 13.027 16.91 13.0471C16.8812 13.0671 16.8512 13.0854 16.8202 13.1015C16.7894 13.1178 16.7574 13.1323 16.7246 13.1446C16.5967 13.1917 16.4412 13.2157 16.2715 13.2157C16.1908 13.2157 16.1036 13.2139 16.0009 13.1895C15.9866 13.1863 15.9723 13.1828 15.958 13.179C15.9439 13.1754 15.9298 13.1714 15.9157 13.1673C15.9016 13.1633 15.8875 13.1589 15.8736 13.1543C15.8595 13.1498 15.8456 13.145 15.8319 13.1402C15.8092 13.1321 15.7906 13.1031 15.8039 13.0663C15.8166 13.0296 15.926 12.7304 15.9407 12.6911C15.9594 12.6438 16.0075 12.6619 16.0075 12.6619C16.0401 12.6758 16.0633 12.6849 16.1068 12.6935C16.1511 12.7022 16.2103 12.7098 16.2552 12.7098C16.3357 12.7098 16.4088 12.7002 16.4727 12.6786C16.5494 12.6539 16.5947 12.609 16.6412 12.549C16.6901 12.4859 16.7298 12.4005 16.7705 12.286C16.8114 12.17 16.8486 12.0167 16.8806 11.8311L17.2946 9.52084H16.8869C16.8381 9.52084 16.8214 9.49788 16.8271 9.46103L16.8953 9.07723C16.9062 9.02145 16.958 9.02347 16.958 9.02347H17.3766L17.3991 8.89882C17.462 8.52831 17.5862 8.2464 17.7703 8.06155C17.9553 7.87529 18.2183 7.78125 18.5522 7.78125C18.6476 7.78125 18.732 7.78749 18.8035 7.80038C18.8735 7.81347 18.9267 7.82575 18.9861 7.84387C18.999 7.84911 19.034 7.86623 19.0201 7.90791ZM10.6832 11.8915H10.1937C10.1623 11.8915 10.141 11.8663 10.141 11.8357V7.89542C10.141 7.86502 10.1627 7.84005 10.1933 7.84005H10.6832C10.7147 7.84005 10.7362 7.86502 10.7362 7.89583V11.8353C10.7362 11.8667 10.7147 11.8915 10.6832 11.8915Z" fill="var(--fill-0, white)"/>
</g>
</svg>
