<svg preserveAspectRatio="none" width="100%" height="100%" overflow="visible" style="display: block;" viewBox="0 0 93.9946 28.8355" fill="none" xmlns="http://www.w3.org/2000/svg">
<g id="Frame 2147237099" opacity="0.2">
<g id="Vector 3496" filter="url(#filter0_f_2877_47582)">
<path d="M35.3088 5.23656C35.1358 5.25952 34.9627 5.28248 34.7897 5.30544C34.8692 5.87583 34.8169 6.4758 34.6846 7.05745C30.3159 17.5477 17.4365 20.5506 7.06326 23.2047C6.46648 23.3386 5.85765 23.4701 5.23656 23.5989C5.85936 23.4786 6.47004 23.3557 7.06881 23.2303C17.4924 20.6656 30.3825 18.0911 35.1688 7.17146C35.3197 6.54663 35.39 5.89111 35.3088 5.23656Z" fill="var(--stroke-0, black)"/>
</g>
<g id="Vector 3497" filter="url(#filter1_f_2877_47582)">
<path d="M61.0067 5.271C60.8322 5.271 60.6576 5.271 60.4831 5.271C60.4198 5.98307 59.8789 6.80872 59.3814 7.49976C48.4639 19.5175 30.9344 22.0593 15.2568 23.433C14.3767 23.4952 13.4807 23.5506 12.5686 23.5989C13.4811 23.5593 14.3777 23.5126 15.2585 23.4591C30.9677 22.2105 48.4763 19.9639 59.7808 7.79635C60.3057 7.04995 60.8838 6.32984 61.0067 5.271Z" fill="var(--stroke-0, black)"/>
</g>
<g id="Vector 3498" filter="url(#filter2_f_2877_47582)">
<path d="M88.7581 5.271C88.5835 5.271 88.409 5.271 88.2344 5.271C88.1092 6.10687 87.2757 7.03158 86.5622 7.77343C71.2099 20.2108 50.2768 21.9822 31.0334 23.4386C29.9585 23.4985 28.8648 23.552 27.7522 23.5989C28.8652 23.5608 29.9593 23.5159 31.0348 23.4648C50.3138 22.1381 71.1813 20.6418 86.9152 8.12398C87.6619 7.3137 88.5272 6.57305 88.7581 5.271Z" fill="var(--stroke-0, black)"/>
</g>
</g>
<defs>
<filter id="filter0_f_2877_47582" x="0" y="1.86265e-08" width="40.5795" height="28.8355" filterUnits="userSpaceOnUse" color-interpolation-filters="sRGB">
<feFlood flood-opacity="0" result="BackgroundImageFix"/>
<feBlend mode="normal" in="SourceGraphic" in2="BackgroundImageFix" result="shape"/>
<feGaussianBlur stdDeviation="2.61828" result="effect1_foregroundBlur_2877_47582"/>
</filter>
<filter id="filter1_f_2877_47582" x="7.33203" y="0.0344405" width="58.9113" height="28.8011" filterUnits="userSpaceOnUse" color-interpolation-filters="sRGB">
<feFlood flood-opacity="0" result="BackgroundImageFix"/>
<feBlend mode="normal" in="SourceGraphic" in2="BackgroundImageFix" result="shape"/>
<feGaussianBlur stdDeviation="2.61828" result="effect1_foregroundBlur_2877_47582"/>
</filter>
<filter id="filter2_f_2877_47582" x="22.5156" y="0.0344405" width="71.479" height="28.8011" filterUnits="userSpaceOnUse" color-interpolation-filters="sRGB">
<feFlood flood-opacity="0" result="BackgroundImageFix"/>
<feBlend mode="normal" in="SourceGraphic" in2="BackgroundImageFix" result="shape"/>
<feGaussianBlur stdDeviation="2.61828" result="effect1_foregroundBlur_2877_47582"/>
</filter>
</defs>
</svg>
