<svg preserveAspectRatio="none" width="100%" height="100%" overflow="visible" style="display: block;" viewBox="0 0 31.875 31.875" fill="none" xmlns="http://www.w3.org/2000/svg">
<g id="Group">
<path id="Vector" fill-rule="evenodd" clip-rule="evenodd" d="M3.54167 31.875H28.3333C30.2893 31.875 31.875 30.2893 31.875 28.3333V3.54167C31.875 1.58566 30.2893 0 28.3333 0H3.54167C1.58566 0 0 1.58566 0 3.54167V28.3333C0 30.2893 1.58566 31.875 3.54167 31.875Z" fill="var(--fill-0, #007EBB)"/>
<path id="Vector_2" fill-rule="evenodd" clip-rule="evenodd" d="M27.4466 27.4505H22.7166V19.3942C22.7166 17.1853 21.8773 15.951 20.129 15.951C18.227 15.951 17.2334 17.2355 17.2334 19.3942V27.4505H12.6749V12.1033H17.2334V14.1706C17.2334 14.1706 18.604 11.6344 21.8608 11.6344C25.1161 11.6344 27.4466 13.6223 27.4466 17.7336V27.4505ZM7.23669 10.0937C5.68398 10.0937 4.42578 8.82563 4.42578 7.2617C4.42578 5.69776 5.68398 4.42969 7.23669 4.42969C8.7894 4.42969 10.0469 5.69776 10.0469 7.2617C10.0469 8.82563 8.7894 10.0937 7.23669 10.0937ZM4.8829 27.4505H9.63619V12.1033H4.8829V27.4505Z" fill="var(--fill-0, white)"/>
</g>
</svg>
