<svg preserveAspectRatio="none" width="100%" height="100%" overflow="visible" style="display: block;" viewBox="0 0 31.875 31.875" fill="none" xmlns="http://www.w3.org/2000/svg">
<g id="SVG" clip-path="url(#clip0_2877_47621)">
<path id="Vector" d="M2.1733 27.8892H7.24432V15.5739L0 10.1406V25.7159C0 26.9185 0.974361 27.8892 2.1733 27.8892Z" fill="var(--fill-0, #4285F4)"/>
<path id="Vector_2" d="M24.6289 27.8892H29.6999C30.9025 27.8892 31.8732 26.9148 31.8732 25.7159V10.1406L24.6289 15.5739" fill="var(--fill-0, #34A853)"/>
<path id="Vector_3" d="M24.6289 6.15602V15.5736L31.8732 10.1404V7.24267C31.8732 4.55503 28.8053 3.02286 26.6573 4.63472" fill="var(--fill-0, #FBBC04)"/>
<path id="Vector_4" d="M7.23828 15.5739V6.15625L15.9315 12.6761L24.6246 6.15625V15.5739L15.9315 22.0937" fill="var(--fill-0, #EA4335)"/>
<path id="Vector_5" d="M0 7.24267V10.1404L7.24432 15.5736V6.15602L5.21591 4.63472C3.06435 3.02286 0 4.55503 0 7.24267Z" fill="var(--fill-0, #C5221F)"/>
</g>
<defs>
<clipPath id="clip0_2877_47621">
<rect width="31.875" height="31.875" fill="white"/>
</clipPath>
</defs>
</svg>
