<svg preserveAspectRatio="none" width="100%" height="100%" overflow="visible" style="display: block;" viewBox="0 0 31.875 31.875" fill="none" xmlns="http://www.w3.org/2000/svg">
<g id="SVG" clip-path="url(#clip0_2877_47638)">
<path id="Vector" d="M22.2322 12.2344H30.4656C31.2434 12.2344 31.874 12.8649 31.874 13.6428V21.1423C31.874 24.0011 29.5565 26.3187 26.6977 26.3187H26.6732C23.8144 26.3191 21.4965 24.0019 21.4961 21.1431C21.4961 21.1428 21.4961 21.1426 21.4961 21.1423V12.9705C21.4961 12.5639 21.8257 12.2344 22.2322 12.2344Z" fill="var(--fill-0, #5059C9)"/>
<path id="Vector_2" d="M27.8006 10.7496C29.6429 10.7496 31.1364 9.25617 31.1364 7.41388C31.1364 5.57159 29.6429 4.07812 27.8006 4.07812C25.9583 4.07812 24.4648 5.57159 24.4648 7.41388C24.4648 9.25617 25.9583 10.7496 27.8006 10.7496Z" fill="var(--fill-0, #5059C9)"/>
<path id="Vector_3" d="M17.4199 10.746C20.081 10.746 22.2382 8.58878 22.2382 5.92769C22.2382 3.26661 20.081 1.10938 17.4199 1.10938C14.7588 1.10938 12.6016 3.26661 12.6016 5.92769C12.6016 8.58878 14.7588 10.746 17.4199 10.746Z" fill="var(--fill-0, #7B83EB)"/>
<path id="Vector_4" d="M23.8462 12.2344H10.2556C9.48701 12.2534 8.87901 12.8912 8.89684 13.6599V22.2135C8.78951 26.8259 12.4386 30.6535 17.0509 30.7664C21.6632 30.6535 25.3123 26.8259 25.205 22.2135V13.6599C25.2228 12.8912 24.6148 12.2534 23.8462 12.2344Z" fill="var(--fill-0, #7B83EB)"/>
<path id="Vector_5" opacity="0.1" d="M17.7903 12.2344V24.2209C17.7866 24.7705 17.4535 25.2643 16.9452 25.4736C16.7834 25.5421 16.6095 25.5774 16.4337 25.5774H9.54725C9.45089 25.3328 9.36193 25.0882 9.2878 24.8361C9.02832 23.9855 8.89591 23.1013 8.89491 22.212V13.6576C8.87709 12.8902 9.48409 12.2534 10.2515 12.2344H17.7903Z" fill="var(--fill-0, black)"/>
<path id="Vector_6" opacity="0.2" d="M17.049 12.2344V24.9621C17.049 25.1379 17.0137 25.3118 16.9452 25.4736C16.7359 25.9819 16.2421 26.315 15.6925 26.3187H9.89565C9.76963 26.0741 9.65103 25.8294 9.54725 25.5774C9.44346 25.3254 9.36193 25.0882 9.2878 24.8361C9.02832 23.9855 8.89591 23.1013 8.89491 22.212V13.6576C8.87709 12.8902 9.48409 12.2534 10.2515 12.2344H17.049Z" fill="var(--fill-0, black)"/>
<path id="Vector_7" opacity="0.2" d="M17.049 12.2344V23.4796C17.0433 24.2264 16.4393 24.8305 15.6924 24.8361H9.2878C9.02832 23.9855 8.89591 23.1013 8.89491 22.212V13.6576C8.87709 12.8902 9.48409 12.2534 10.2515 12.2344H17.049Z" fill="var(--fill-0, black)"/>
<path id="Vector_8" opacity="0.2" d="M16.3077 12.2344V23.4796C16.3021 24.2264 15.698 24.8305 14.9512 24.8361H9.2878C9.02832 23.9855 8.89591 23.1013 8.89491 22.212V13.6576C8.87709 12.8902 9.48409 12.2534 10.2515 12.2344H16.3077Z" fill="var(--fill-0, black)"/>
<path id="Vector_9" opacity="0.1" d="M17.7899 8.39559V10.7306C17.6639 10.738 17.5453 10.7454 17.4193 10.7454C17.2932 10.7454 17.1746 10.738 17.0486 10.7306C16.7984 10.714 16.5503 10.6743 16.3073 10.612C14.8062 10.2565 13.5661 9.20379 12.9716 7.78034C12.8693 7.54129 12.7899 7.29308 12.7344 7.03906H16.4334C17.1814 7.04189 17.7871 7.64756 17.7899 8.39559Z" fill="var(--fill-0, black)"/>
<path id="Vector_10" opacity="0.2" d="M17.0497 9.13778V10.7315C16.7995 10.7149 16.5513 10.6752 16.3084 10.6129C14.8073 10.2574 13.5672 9.20471 12.9727 7.78125H15.6931C16.4412 7.78408 17.0468 8.38977 17.0497 9.13778Z" fill="var(--fill-0, black)"/>
<path id="Vector_11" opacity="0.2" d="M17.0497 9.13778V10.7315C16.7995 10.7149 16.5513 10.6752 16.3084 10.6129C14.8073 10.2574 13.5672 9.20471 12.9727 7.78125H15.6931C16.4412 7.78408 17.0468 8.38977 17.0497 9.13778Z" fill="var(--fill-0, black)"/>
<path id="Vector_12" opacity="0.2" d="M16.3084 9.13779V10.6129C14.8073 10.2574 13.5672 9.20471 12.9727 7.78125H14.9519C15.6999 7.7841 16.3056 8.38978 16.3084 9.13779Z" fill="var(--fill-0, black)"/>
<path id="Vector_13" d="M1.35876 7.78125H14.9494C15.6998 7.78125 16.3081 8.38959 16.3081 9.14001V22.7306C16.3081 23.481 15.6998 24.0894 14.9494 24.0894H1.35876C0.60833 24.0894 0 23.481 0 22.7306V9.14001C0 8.38959 0.608345 7.78125 1.35876 7.78125Z" fill="url(#paint0_linear_2877_47638)"/>
<path id="Vector_14" d="M11.73 12.9585H9.01319V20.3565H7.28231V12.9585H4.57812V11.5234H11.73V12.9585Z" fill="var(--fill-0, white)"/>
</g>
<defs>
<linearGradient id="paint0_linear_2877_47638" x1="2.83305" y1="6.71954" x2="13.4751" y2="25.1511" gradientUnits="userSpaceOnUse">
<stop stop-color="#5A62C3"/>
<stop offset="0.5" stop-color="#4D55BD"/>
<stop offset="1" stop-color="#3940AB"/>
</linearGradient>
<clipPath id="clip0_2877_47638">
<rect width="31.875" height="31.875" fill="white"/>
</clipPath>
</defs>
</svg>
