<svg preserveAspectRatio="none" width="100%" height="100%" overflow="visible" style="display: block;" viewBox="0 0 31.875 31.875" fill="none" xmlns="http://www.w3.org/2000/svg">
<g id="SVG" clip-path="url(#clip0_2877_47630)">
<path id="Vector" d="M24.0877 10.4875V6.6912C25.0795 6.2277 25.7688 5.22216 25.7688 4.06146V3.97308C25.7688 2.37246 24.4628 1.05857 22.8602 1.05857H22.7718C21.1634 1.05857 19.8573 2.37246 19.8573 3.97308V4.06146C19.8573 5.22216 20.5467 6.2277 21.5385 6.6912V10.4875C20.0616 10.7153 18.7182 11.3261 17.6086 12.2138L7.20946 4.11252C7.27623 3.84935 7.3273 3.57636 7.3273 3.29748C7.3273 1.47689 5.85826 0 4.04356 0C2.22887 0 0.753938 1.46904 0.753938 3.28373C0.746082 5.10432 2.21512 6.58122 4.03571 6.58122C4.62489 6.58122 5.1748 6.41231 5.65204 6.13933L15.8843 14.1091C15.0162 15.4229 14.5016 17.002 14.5016 18.6988C14.5016 20.4683 15.0672 22.1141 16.0158 23.4653L12.901 26.5802C12.6516 26.5055 12.4022 26.4545 12.1311 26.4545C10.6385 26.4545 9.42677 27.6662 9.42677 29.1569C9.42677 30.6475 10.6385 31.8613 12.1311 31.8613C13.6218 31.8613 14.8335 30.6475 14.8335 29.1569C14.8335 28.8859 14.7825 28.6286 14.7 28.387L17.7854 25.3016C19.1817 26.374 20.9218 27.0122 22.817 27.0122C27.4009 27.0122 31.1245 23.2886 31.1245 18.6988C31.1245 14.5352 28.0686 11.1042 24.0877 10.4875ZM22.817 22.9586C20.4583 22.9586 18.5572 21.0497 18.5572 18.6988C18.5572 16.3421 20.4583 14.4311 22.817 14.4311C25.1679 14.4311 27.0768 16.3421 27.0768 18.6988C27.0768 21.0497 25.1679 22.9586 22.817 22.9586Z" fill="var(--fill-0, #FF5C35)"/>
</g>
<defs>
<clipPath id="clip0_2877_47630">
<rect width="31.875" height="31.875" fill="white"/>
</clipPath>
</defs>
</svg>
