<svg preserveAspectRatio="none" width="100%" height="100%" overflow="visible" style="display: block;" viewBox="0 0 31.875 31.875" fill="none" xmlns="http://www.w3.org/2000/svg">
<g id="SVG">
<g id="Vector" filter="url(#filter0_f_2877_47687)">
<path d="M9.9335 25.1376L10.3393 25.378C12.0437 26.3895 13.9979 26.9246 15.9909 26.9255H15.995C22.1152 26.9255 27.0961 21.9458 27.0986 15.8252C27.0997 12.8593 25.9458 10.0702 23.8494 7.97214C22.8212 6.93744 21.5979 6.11697 20.2505 5.55821C18.903 4.99946 17.4581 4.71352 15.9994 4.71695C9.87449 4.71695 4.89347 9.69614 4.89129 15.8163C4.88828 17.9062 5.47679 19.9542 6.58879 21.7237L6.85298 22.1435L5.73106 26.2394L9.9335 25.1376ZM2.52344 29.4125L4.41885 22.4921C3.2499 20.4669 2.63492 18.1693 2.63565 15.8154C2.63873 8.45166 8.63128 2.46094 15.9952 2.46094C19.5687 2.46275 22.9228 3.8534 25.4454 6.37777C27.9679 8.90214 29.3559 12.2576 29.3546 15.8261C29.3513 23.1893 23.3579 29.1812 15.995 29.1812H15.9892C13.7536 29.1803 11.5567 28.6194 9.6054 27.5554L2.52344 29.4125Z" fill="var(--fill-0, #B3B3B3)"/>
</g>
<path id="Vector_2" d="M2.38281 29.2797L4.27822 22.3593C3.10726 20.3292 2.49219 18.0262 2.49502 15.6826C2.49811 8.31885 8.49065 2.32812 15.8546 2.32812C19.4281 2.32994 22.7822 3.72059 25.3048 6.24496C27.8273 8.76932 29.2152 12.1247 29.214 15.6933C29.2107 23.0565 23.2173 29.0483 15.8544 29.0483H15.8486C13.6129 29.0474 11.4161 28.4866 9.46477 27.4226L2.38281 29.2797Z" fill="var(--fill-0, white)"/>
<g id="Vector_3">
</g>
<path id="Vector_4" d="M15.8581 4.57816C9.7332 4.57816 4.75219 9.55735 4.75001 15.6775C4.747 17.7674 5.33551 19.8155 6.44751 21.5849L6.7117 22.0049L5.58977 26.1008L9.7924 24.9988L10.1982 25.2392C11.9026 26.2507 13.8568 26.7856 15.8498 26.7867H15.8539C21.9741 26.7867 26.9551 21.807 26.9575 15.6864C26.9621 14.2276 26.6773 12.7824 26.1196 11.4344C25.5619 10.0864 24.7423 8.86243 23.7083 7.83334C22.68 6.79863 21.4568 5.97814 20.1093 5.41939C18.7618 4.86063 17.3168 4.5747 15.8581 4.57816Z" fill="url(#paint0_linear_2877_47687)"/>
<path id="Vector_5" fill-rule="evenodd" clip-rule="evenodd" d="M12.5159 10.0923C12.2657 9.5365 12.0024 9.52524 11.7647 9.51562L11.1249 9.50781C10.9023 9.50781 10.5406 9.59133 10.2348 9.92542C9.92905 10.2595 9.06641 11.067 9.06641 12.7093C9.06641 14.3516 10.2626 15.9385 10.4293 16.1614C10.596 16.3844 12.7385 19.862 16.1315 21.2C18.9511 22.312 19.5248 22.0908 20.1371 22.0352C20.7494 21.9797 22.112 21.2278 22.39 20.4483C22.668 19.6688 22.6682 19.001 22.5848 18.8614C22.5015 18.7218 22.2789 18.6388 21.9448 18.4717C21.6107 18.3047 19.9699 17.4973 19.6639 17.3858C19.358 17.2743 19.1356 17.2189 18.9128 17.553C18.69 17.8871 18.051 18.6386 17.8562 18.8614C17.6614 19.0842 17.4669 19.1121 17.1328 18.9453C16.7988 18.7784 15.7239 18.4258 14.4485 17.2886C13.4562 16.4038 12.7864 15.3112 12.5914 14.9773C12.3964 14.6433 12.5707 14.4625 12.7381 14.2962C12.8879 14.1466 13.0718 13.9063 13.2391 13.7115C13.4063 13.5167 13.4613 13.3774 13.5724 13.155C13.6836 12.9326 13.6282 12.7372 13.5447 12.5704C13.4611 12.4035 12.8126 10.7525 12.5159 10.0923Z" fill="var(--fill-0, white)"/>
</g>
<defs>
<filter id="filter0_f_2877_47687" x="1.24119" y="1.17869" width="29.3957" height="29.516" filterUnits="userSpaceOnUse" color-interpolation-filters="sRGB">
<feFlood flood-opacity="0" result="BackgroundImageFix"/>
<feBlend mode="normal" in="SourceGraphic" in2="BackgroundImageFix" result="shape"/>
<feGaussianBlur stdDeviation="0.641124" result="effect1_foregroundBlur_2877_47687"/>
</filter>
<linearGradient id="paint0_linear_2877_47687" x1="15.6277" y1="5.91088" x2="15.7403" y2="24.8895" gradientUnits="userSpaceOnUse">
<stop stop-color="#57D163"/>
<stop offset="1" stop-color="#23B33A"/>
</linearGradient>
</defs>
</svg>
