<svg preserveAspectRatio="none" width="100%" height="100%" overflow="visible" style="display: block;" viewBox="0 0 15.1181 15.1181" fill="none" xmlns="http://www.w3.org/2000/svg">
<g id="invoice-02">
<path id="Vector" d="M2.51953 11.7434V5.07152C2.51953 3.27372 2.51953 2.37482 3.07303 1.81632C3.62653 1.25781 4.51737 1.25781 6.29906 1.25781H8.81874C10.6004 1.25781 11.4912 1.25781 12.0448 1.81632C12.5983 2.37482 12.5983 3.27372 12.5983 5.07152V11.7434C12.5983 12.6956 12.5983 13.1717 12.3072 13.3591C11.8317 13.6654 11.0966 13.0231 10.7268 12.79C10.4213 12.5973 10.2686 12.501 10.0991 12.4954C9.91588 12.4894 9.76041 12.5818 9.43033 12.79L8.22662 13.5491C7.90189 13.7538 7.73956 13.8562 7.5589 13.8562C7.37824 13.8562 7.21591 13.7538 6.89118 13.5491L5.68749 12.79C5.38199 12.5973 5.22924 12.501 5.05971 12.4954C4.87652 12.4894 4.72106 12.5818 4.39095 12.79C4.02123 13.0231 3.28606 13.6654 2.81052 13.3591C2.51953 13.1717 2.51953 12.6956 2.51953 11.7434Z" stroke="var(--stroke-0, black)" stroke-width="0.944882" stroke-linecap="round" stroke-linejoin="round"/>
<path id="Vector_2" d="M10.0784 3.78125H5.03906" stroke="var(--stroke-0, black)" stroke-width="0.944882" stroke-linecap="round" stroke-linejoin="round"/>
<path id="Vector_3" d="M6.29891 6.29688H5.03906" stroke="var(--stroke-0, black)" stroke-width="0.944882" stroke-linecap="round" stroke-linejoin="round"/>
<path id="Vector_4" d="M9.13238 6.22306C8.61056 6.22306 8.1875 6.5932 8.1875 7.04983C8.1875 7.50646 8.61056 7.8766 9.13238 7.8766C9.65421 7.8766 10.0773 8.24674 10.0773 8.70337C10.0773 9.16 9.65421 9.53014 9.13238 9.53014M9.13238 6.22306C9.54378 6.22306 9.89377 6.4531 10.0235 6.77424M9.13238 6.22306V5.67188M9.13238 9.53014C8.72098 9.53014 8.371 9.3001 8.2413 8.97896M9.13238 9.53014V10.0813" stroke="var(--stroke-0, black)" stroke-width="0.944882" stroke-linecap="round"/>
</g>
</svg>
