<svg preserveAspectRatio="none" width="100%" height="100%" overflow="visible" style="display: block;" viewBox="0 0 16 16" fill="none" xmlns="http://www.w3.org/2000/svg">
<g id="linkedin-02">
<path id="Vector" d="M2.9987 6.32812H2.66536C2.03682 6.32812 1.72256 6.32812 1.52729 6.52338C1.33203 6.71866 1.33203 7.03292 1.33203 7.66146V13.3281C1.33203 13.9567 1.33203 14.2709 1.52729 14.4662C1.72256 14.6615 2.03682 14.6615 2.66536 14.6615H2.9987C3.62724 14.6615 3.9415 14.6615 4.13677 14.4662C4.33203 14.2709 4.33203 13.9567 4.33203 13.3281V7.66146C4.33203 7.03292 4.33203 6.71866 4.13677 6.52338C3.9415 6.32812 3.62724 6.32812 2.9987 6.32812Z" stroke="var(--stroke-0, white)"/>
<path id="Vector_2" d="M4.33203 2.82813C4.33203 3.65655 3.66046 4.32813 2.83203 4.32813C2.0036 4.32813 1.33203 3.65655 1.33203 2.82813C1.33203 1.9997 2.0036 1.32812 2.83203 1.32812C3.66046 1.32812 4.33203 1.9997 4.33203 2.82813Z" stroke="var(--stroke-0, white)"/>
<path id="Vector_3" d="M8.21603 6.32812H7.66536C7.03683 6.32812 6.72256 6.32812 6.52729 6.52338C6.33203 6.71866 6.33203 7.03292 6.33203 7.66146V13.3281C6.33203 13.9567 6.33203 14.2709 6.52729 14.4662C6.72256 14.6615 7.03683 14.6615 7.66536 14.6615H7.9987C8.62723 14.6615 8.9415 14.6615 9.13676 14.4662C9.33203 14.2709 9.33203 13.9567 9.33203 13.3281L9.3321 10.9949C9.3321 9.89032 9.6841 8.99486 10.724 8.99486C11.2438 8.99486 11.6654 9.44259 11.6654 9.99486V12.9949C11.6654 13.6234 11.6654 13.9377 11.8606 14.1329C12.0558 14.3282 12.3702 14.3282 12.9987 14.3282H13.3312C13.9596 14.3282 14.2738 14.3282 14.469 14.133C14.6643 13.9378 14.6644 13.6236 14.6645 12.9952L14.6654 9.32826C14.6654 7.67146 13.0896 6.32829 11.5299 6.32829C10.642 6.32829 9.84983 6.76352 9.3321 7.44412C9.33203 7.02406 9.33203 6.81406 9.24083 6.65812C9.18303 6.55936 9.10076 6.47715 9.00203 6.41937C8.8461 6.32813 8.6361 6.32812 8.21603 6.32812Z" stroke="var(--stroke-0, white)" stroke-linejoin="round"/>
</g>
</svg>
