<svg preserveAspectRatio="none" width="100%" height="100%" overflow="visible" style="display: block;" viewBox="0 0 20 20" fill="none" xmlns="http://www.w3.org/2000/svg">
<g id="mail-send-01">
<path id="Vector" d="M18.3346 10.4141C18.3346 10.0046 18.3302 9.17842 18.3215 8.76776C18.2671 6.21311 18.2398 4.93581 17.2972 3.98961C16.3546 3.04342 15.0427 3.01046 12.419 2.94454C10.8019 2.90391 9.20072 2.90391 7.58365 2.94453C4.95991 3.01045 3.64804 3.04341 2.70543 3.98961C1.76282 4.9358 1.73559 6.2131 1.6811 8.76767C1.66359 9.58909 1.66359 10.4057 1.68111 11.2271C1.73559 13.7817 1.76283 15.059 2.70544 16.0052C3.64804 16.9514 4.95991 16.9843 7.58366 17.0503C8.25263 17.0671 8.91889 17.0769 9.58464 17.0798" stroke="var(--stroke-0, #F4F4F4)" stroke-width="1.25" stroke-linecap="round" stroke-linejoin="round"/>
<path id="Vector_2" d="M1.66797 5L7.42882 8.27052C9.53355 9.46542 10.4691 9.46542 12.5738 8.27052L18.3346 5" stroke="var(--stroke-0, #F4F4F4)" stroke-width="1.25" stroke-linejoin="round"/>
<path id="Vector_3" d="M18.3346 14.5833H11.668M18.3346 14.5833C18.3346 13.9998 16.6727 12.9096 16.2513 12.5M18.3346 14.5833C18.3346 15.1668 16.6727 16.2571 16.2513 16.6667" stroke="var(--stroke-0, #F4F4F4)" stroke-width="1.25" stroke-linecap="round" stroke-linejoin="round"/>
</g>
</svg>
