<svg preserveAspectRatio="none" width="100%" height="100%" overflow="visible" style="display: block;" viewBox="0 0 40.5 40.5" fill="none" xmlns="http://www.w3.org/2000/svg">
<g id="meta-logo-facebook_svgrepo.com">
<path id="Vector" d="M6.32812 24.6797C6.32812 18.8578 9.23906 12.7828 12.6562 12.7828C14.5547 12.7828 16.0734 13.9219 18.4781 17.3391C16.2 20.8828 14.8078 23.0344 14.8078 23.0344C11.7703 27.8438 10.7578 28.8562 9.1125 28.8562C7.46719 28.9828 6.32812 27.4641 6.32812 24.6797ZM26.1984 22.5281L24.0469 18.9844C23.5406 18.0984 22.9078 17.2125 22.4016 16.4531C24.3 13.5422 25.8187 12.0234 27.7172 12.0234C31.5141 12.0234 34.5516 17.7188 34.5516 24.8063C34.5516 27.4641 33.6656 28.9828 31.8938 28.9828C30.1219 28.9828 29.4891 27.8437 26.1984 22.5281ZM20.7562 13.9219C17.9719 10.2516 15.5672 8.85938 12.7828 8.85938C6.96094 8.85938 2.53125 16.5797 2.53125 24.6797C2.53125 29.7422 4.93594 32.9062 8.98594 32.9062C11.8969 32.9062 13.9219 31.5141 17.7188 24.9328C17.7188 24.9328 19.2375 22.1484 20.3766 20.25C20.7563 20.8828 21.1359 21.5156 21.5156 22.275L23.2875 25.3125C26.7047 31.1344 28.6031 33.0328 32.0203 33.0328C35.9437 33.0328 38.0953 29.7422 38.0953 24.5531C37.9688 15.9469 33.4125 8.85938 27.9703 8.85938C25.0594 8.85938 22.7812 11.1375 20.7562 13.9219Z" fill="url(#paint0_linear_2877_47635)"/>
</g>
<defs>
<linearGradient id="paint0_linear_2877_47635" x1="20.3133" y1="8.85937" x2="20.3133" y2="33.0328" gradientUnits="userSpaceOnUse">
<stop stop-color="#5998FF"/>
<stop offset="1" stop-color="#0056E5"/>
</linearGradient>
</defs>
</svg>
