<svg preserveAspectRatio="none" width="100%" height="100%" overflow="visible" style="display: block;" viewBox="0 0 20 20" fill="none" xmlns="http://www.w3.org/2000/svg">
<g id="more-horizontal">
<path id="Vector" d="M9.9974 11.4557C10.8028 11.4557 11.4557 10.8028 11.4557 9.9974C11.4557 9.19198 10.8028 8.53906 9.9974 8.53906C9.19198 8.53906 8.53906 9.19198 8.53906 9.9974C8.53906 10.8028 9.19198 11.4557 9.9974 11.4557Z" fill="var(--fill-0, #404040)"/>
<path id="Vector_2" d="M14.9974 11.4557C15.8028 11.4557 16.4557 10.8028 16.4557 9.9974C16.4557 9.19198 15.8028 8.53906 14.9974 8.53906C14.192 8.53906 13.5391 9.19198 13.5391 9.9974C13.5391 10.8028 14.192 11.4557 14.9974 11.4557Z" fill="var(--fill-0, #404040)"/>
<path id="Vector_3" d="M4.9974 11.4557C5.80281 11.4557 6.45573 10.8028 6.45573 9.9974C6.45573 9.19198 5.80281 8.53906 4.9974 8.53906C4.19198 8.53906 3.53906 9.19198 3.53906 9.9974C3.53906 10.8028 4.19198 11.4557 4.9974 11.4557Z" fill="var(--fill-0, #404040)"/>
</g>
</svg>
