<svg preserveAspectRatio="none" width="100%" height="100%" overflow="visible" style="display: block;" viewBox="0 0 24.8921 17.7801" fill="none" xmlns="http://www.w3.org/2000/svg">
<g id="US">
<rect id="Mask" width="24.8921" height="17.7801" rx="1.77801" fill="var(--fill-0, white)"/>
<mask id="mask0_2877_47110" style="mask-type:luminance" maskUnits="userSpaceOnUse" x="0" y="0" width="25" height="18">
<rect id="Mask_2" width="24.8921" height="17.7801" rx="1.77801" fill="var(--fill-0, white)"/>
</mask>
<g mask="url(#mask0_2877_47110)">
<path id="Rectangle 511" d="M24.8927 17.7794H0.000143033V16.5939H24.8927V17.7794ZM24.8927 15.4122H0.000143033V14.2267H24.8927V15.4122ZM24.8927 13.0372H0.000143033V11.8517H24.8927V13.0372ZM24.8927 10.67H0.000143033V9.4845H24.8927V10.67ZM24.8927 8.29505H0.000143033V7.1095H24.8927V8.29505ZM24.8927 5.92786H0.000143033V4.74231H24.8927V5.92786ZM24.8927 3.56067H0.000143033V2.37513H24.8927V3.56067ZM24.8927 1.18567H0.000143033V0.000125919H24.8927V1.18567Z" fill="var(--fill-0, #D02F44)"/>
<rect id="Rectangle 511_2" width="10.668" height="8.29737" fill="var(--fill-0, #46467F)"/>
<g id="Oval 43" filter="url(#filter0_d_2877_47110)">
<path d="M1.78027 5.92969C2.10755 5.92974 2.37305 6.19517 2.37305 6.52246C2.37299 6.8497 2.10751 7.11518 1.78027 7.11523C1.45299 7.11523 1.18756 6.84974 1.1875 6.52246C1.1875 6.19514 1.45295 5.92969 1.78027 5.92969ZM4.15137 5.92969C4.47864 5.92974 4.74414 6.19517 4.74414 6.52246C4.74408 6.8497 4.47861 7.11518 4.15137 7.11523C3.82408 7.11523 3.55865 6.84974 3.55859 6.52246C3.55859 6.19514 3.82405 5.92969 4.15137 5.92969ZM6.52246 5.92969C6.84974 5.92974 7.11523 6.19517 7.11523 6.52246C7.11518 6.8497 6.8497 7.11518 6.52246 7.11523C6.19517 7.11523 5.92974 6.84974 5.92969 6.52246C5.92969 6.19514 6.19514 5.92969 6.52246 5.92969ZM8.89355 5.92969C9.22083 5.92974 9.48633 6.19517 9.48633 6.52246C9.48627 6.8497 9.22079 7.11518 8.89355 7.11523C8.56627 7.11523 8.30084 6.84974 8.30078 6.52246C8.30078 6.19514 8.56623 5.92969 8.89355 5.92969ZM2.96387 4.74219C3.29114 4.74224 3.55664 5.00767 3.55664 5.33496C3.55658 5.6622 3.29111 5.92768 2.96387 5.92773C2.63658 5.92773 2.37115 5.66224 2.37109 5.33496C2.37109 5.00764 2.63655 4.74219 2.96387 4.74219ZM5.33496 4.74219C5.66224 4.74224 5.92773 5.00767 5.92773 5.33496C5.92768 5.6622 5.6622 5.92768 5.33496 5.92773C5.00767 5.92773 4.74224 5.66224 4.74219 5.33496C4.74219 5.00764 5.00764 4.74219 5.33496 4.74219ZM7.70605 4.74219C8.03333 4.74224 8.29883 5.00767 8.29883 5.33496C8.29877 5.6622 8.03329 5.92768 7.70605 5.92773C7.37877 5.92773 7.11334 5.66224 7.11328 5.33496C7.11328 5.00764 7.37873 4.74219 7.70605 4.74219ZM1.78027 3.5625C2.10755 3.56256 2.37305 3.82799 2.37305 4.15527C2.37299 4.48251 2.10751 4.74799 1.78027 4.74805C1.45299 4.74805 1.18756 4.48255 1.1875 4.15527C1.1875 3.82795 1.45295 3.5625 1.78027 3.5625ZM4.15137 3.5625C4.47864 3.56256 4.74414 3.82799 4.74414 4.15527C4.74408 4.48251 4.47861 4.74799 4.15137 4.74805C3.82408 4.74805 3.55865 4.48255 3.55859 4.15527C3.55859 3.82795 3.82405 3.5625 4.15137 3.5625ZM6.52246 3.5625C6.84974 3.56256 7.11523 3.82799 7.11523 4.15527C7.11518 4.48251 6.8497 4.74799 6.52246 4.74805C6.19517 4.74805 5.92974 4.48255 5.92969 4.15527C5.92969 3.82795 6.19514 3.5625 6.52246 3.5625ZM8.89355 3.5625C9.22083 3.56256 9.48633 3.82799 9.48633 4.15527C9.48627 4.48251 9.22079 4.74799 8.89355 4.74805C8.56627 4.74805 8.30084 4.48255 8.30078 4.15527C8.30078 3.82795 8.56623 3.5625 8.89355 3.5625ZM2.96387 2.375C3.29114 2.37506 3.55664 2.64049 3.55664 2.96777C3.55658 3.29501 3.29111 3.56049 2.96387 3.56055C2.63658 3.56055 2.37115 3.29505 2.37109 2.96777C2.37109 2.64045 2.63655 2.375 2.96387 2.375ZM5.33496 2.375C5.66224 2.37506 5.92773 2.64049 5.92773 2.96777C5.92768 3.29501 5.6622 3.56049 5.33496 3.56055C5.00767 3.56055 4.74224 3.29505 4.74219 2.96777C4.74219 2.64045 5.00764 2.375 5.33496 2.375ZM7.70605 2.375C8.03333 2.37506 8.29883 2.64049 8.29883 2.96777C8.29877 3.29501 8.03329 3.56049 7.70605 3.56055C7.37877 3.56055 7.11334 3.29505 7.11328 2.96777C7.11328 2.64045 7.37873 2.375 7.70605 2.375ZM1.78027 1.1875C2.10755 1.18756 2.37305 1.45299 2.37305 1.78027C2.37299 2.10751 2.10751 2.37299 1.78027 2.37305C1.45299 2.37305 1.18756 2.10755 1.1875 1.78027C1.1875 1.45295 1.45295 1.1875 1.78027 1.1875ZM4.15137 1.1875C4.47864 1.18756 4.74414 1.45299 4.74414 1.78027C4.74408 2.10751 4.47861 2.37299 4.15137 2.37305C3.82408 2.37305 3.55865 2.10755 3.55859 1.78027C3.55859 1.45295 3.82405 1.1875 4.15137 1.1875ZM6.52246 1.1875C6.84974 1.18756 7.11523 1.45299 7.11523 1.78027C7.11518 2.10751 6.8497 2.37299 6.52246 2.37305C6.19517 2.37305 5.92974 2.10755 5.92969 1.78027C5.92969 1.45295 6.19514 1.1875 6.52246 1.1875ZM8.89355 1.1875C9.22083 1.18756 9.48633 1.45299 9.48633 1.78027C9.48627 2.10751 9.22079 2.37299 8.89355 2.37305C8.56627 2.37305 8.30084 2.10755 8.30078 1.78027C8.30078 1.45295 8.56623 1.1875 8.89355 1.1875Z" fill="url(#paint0_linear_2877_47110)"/>
</g>
</g>
</g>
<defs>
<filter id="filter0_d_2877_47110" x="1.1875" y="1.1875" width="8.29883" height="6.81674" filterUnits="userSpaceOnUse" color-interpolation-filters="sRGB">
<feFlood flood-opacity="0" result="BackgroundImageFix"/>
<feColorMatrix in="SourceAlpha" type="matrix" values="0 0 0 0 0 0 0 0 0 0 0 0 0 0 0 0 0 0 127 0" result="hardAlpha"/>
<feOffset dy="0.889004"/>
<feColorMatrix type="matrix" values="0 0 0 0 0 0 0 0 0 0 0 0 0 0 0 0 0 0 0.06 0"/>
<feBlend mode="normal" in2="BackgroundImageFix" result="effect1_dropShadow_2877_47110"/>
<feBlend mode="normal" in="SourceGraphic" in2="effect1_dropShadow_2877_47110" result="shape"/>
</filter>
<linearGradient id="paint0_linear_2877_47110" x1="1.1875" y1="1.1875" x2="1.1875" y2="7.11523" gradientUnits="userSpaceOnUse">
<stop stop-color="white"/>
<stop offset="1" stop-color="#F0F0F0"/>
</linearGradient>
</defs>
</svg>
