<svg preserveAspectRatio="none" width="100%" height="100%" overflow="visible" style="display: block;" viewBox="0 0 11.4564 11.4564" fill="none" xmlns="http://www.w3.org/2000/svg">
<g id="SVG" clip-path="url(#clip0_2877_46739)">
<g id="Vector" filter="url(#filter0_f_2877_46739)">
<path d="M3.56954 9.03316L3.7154 9.11956C4.32798 9.48312 5.03037 9.67544 5.74665 9.67577H5.74815C7.94784 9.67577 9.73803 7.88597 9.73895 5.68615C9.73934 4.62014 9.32462 3.61769 8.57113 2.86362C8.20157 2.49174 7.76192 2.19685 7.27762 1.99602C6.79332 1.7952 6.274 1.69243 5.74972 1.69366C3.54833 1.69366 1.75808 3.48326 1.75729 5.68295C1.75621 6.43408 1.96773 7.17018 2.3674 7.80616L2.46235 7.95704L2.05912 9.42915L3.56954 9.03316ZM0.90625 10.5696L1.58749 8.08233C1.16735 7.35443 0.946319 6.52864 0.94658 5.68262C0.94769 3.03597 3.1015 0.882812 5.74822 0.882812C7.03258 0.883465 8.23812 1.38329 9.14476 2.29058C10.0514 3.19788 10.5502 4.40387 10.5498 5.68647C10.5486 8.33293 8.39448 10.4865 5.74815 10.4865H5.74607C4.94253 10.4862 4.15296 10.2846 3.45162 9.90215L0.90625 10.5696Z" fill="var(--fill-0, #B3B3B3)"/>
</g>
<path id="Vector_2" d="M0.859375 10.5227L1.54062 8.03546C1.11975 7.3058 0.898688 6.47808 0.899705 5.63575C0.900815 2.9891 3.05463 0.835938 5.70134 0.835938C6.98571 0.83659 8.19124 1.33641 9.09789 2.24371C10.0045 3.15101 10.5034 4.357 10.5029 5.6396C10.5017 8.28605 8.3476 10.4396 5.70128 10.4396H5.69919C4.89565 10.4393 4.10608 10.2377 3.40474 9.85527L0.859375 10.5227Z" fill="var(--fill-0, white)"/>
<g id="Vector_3">
</g>
<path id="Vector_4" d="M5.69946 1.64845C3.49807 1.64845 1.70782 3.43805 1.70704 5.63774C1.70595 6.38887 1.91747 7.12497 2.31714 7.76095L2.4121 7.91189L2.00886 9.38401L3.51935 8.98795L3.6652 9.07435C4.27779 9.43791 4.98017 9.63017 5.69646 9.63056H5.69796C7.89765 9.63056 9.6879 7.84076 9.68875 5.64094C9.69041 5.11662 9.58805 4.59718 9.3876 4.11269C9.18714 3.6282 8.89257 3.18829 8.52094 2.81841C8.15137 2.44652 7.71171 2.15163 7.2274 1.9508C6.74309 1.74997 6.22375 1.64721 5.69946 1.64845Z" fill="url(#paint0_linear_2877_46739)"/>
<path id="Vector_5" fill-rule="evenodd" clip-rule="evenodd" d="M4.49761 3.63194C4.40768 3.43219 4.31305 3.42814 4.22763 3.42468L3.99766 3.42188C3.91765 3.42188 3.78765 3.45189 3.67776 3.57197C3.56786 3.69205 3.25781 3.98226 3.25781 4.57252C3.25781 5.16279 3.68774 5.73316 3.74765 5.8133C3.80756 5.89344 4.57761 7.14334 5.79711 7.62424C6.81052 8.02389 7.01674 7.9444 7.23679 7.92443C7.45685 7.90446 7.94662 7.63422 8.04653 7.35407C8.14644 7.07391 8.14651 6.83389 8.11655 6.7837C8.0866 6.73352 8.00659 6.70369 7.88651 6.64365C7.76644 6.58362 7.17669 6.29341 7.06673 6.25334C6.95677 6.21327 6.87682 6.19337 6.79675 6.31344C6.71668 6.43352 6.48703 6.70363 6.41701 6.7837C6.34699 6.86377 6.27709 6.87382 6.15702 6.81385C6.03694 6.75388 5.6506 6.62714 5.19222 6.21843C4.83558 5.90042 4.59484 5.50769 4.52475 5.38768C4.45467 5.26767 4.51731 5.20267 4.57748 5.14289C4.63132 5.08912 4.69743 5.00278 4.75753 4.93276C4.81764 4.86273 4.83741 4.81268 4.87735 4.73274C4.91729 4.65279 4.89738 4.58257 4.86736 4.5226C4.83735 4.46263 4.60424 3.86923 4.49761 3.63194Z" fill="var(--fill-0, white)"/>
</g>
<defs>
<filter id="filter0_f_2877_46739" x="0.44539" y="0.421952" width="10.5653" height="10.6085" filterUnits="userSpaceOnUse" color-interpolation-filters="sRGB">
<feFlood flood-opacity="0" result="BackgroundImageFix"/>
<feBlend mode="normal" in="SourceGraphic" in2="BackgroundImageFix" result="shape"/>
<feGaussianBlur stdDeviation="0.23043" result="effect1_foregroundBlur_2877_46739"/>
</filter>
<linearGradient id="paint0_linear_2877_46739" x1="5.61665" y1="2.12745" x2="5.65711" y2="8.94866" gradientUnits="userSpaceOnUse">
<stop stop-color="#57D163"/>
<stop offset="1" stop-color="#23B33A"/>
</linearGradient>
<clipPath id="clip0_2877_46739">
<rect width="11.4564" height="11.4564" fill="white"/>
</clipPath>
</defs>
</svg>
