<svg preserveAspectRatio="none" width="100%" height="100%" overflow="visible" style="display: block;" viewBox="0 0 20 20" fill="none" xmlns="http://www.w3.org/2000/svg">
<g id="whatsapp">
<path id="Vector" d="M9.9974 18.3307C14.5997 18.3307 18.3307 14.5997 18.3307 9.9974C18.3307 5.39502 14.5997 1.66406 9.9974 1.66406C5.39502 1.66406 1.66406 5.39502 1.66406 9.9974C1.66406 11.1465 1.89662 12.2412 2.31725 13.2371C2.54971 13.7875 2.66595 14.0627 2.68034 14.2707C2.69473 14.4787 2.63351 14.7075 2.51108 15.1651L1.66406 18.3307L4.8297 17.4837C5.2873 17.3613 5.5161 17.3001 5.72408 17.3145C5.93207 17.3288 6.20727 17.4451 6.75769 17.6776C7.7536 18.0981 8.84831 18.3307 9.9974 18.3307Z" stroke="var(--stroke-0, #404040)" stroke-width="1.25" stroke-linejoin="round"/>
<path id="Vector_2" d="M7.1594 10.317L7.88518 9.4156C8.19107 9.03569 8.56919 8.68202 8.59885 8.17615C8.60627 8.04839 8.51644 7.47475 8.3366 6.32749C8.26595 5.87661 7.84499 5.83594 7.48037 5.83594C7.00522 5.83594 6.76765 5.83594 6.53173 5.9437C6.23355 6.0799 5.92743 6.46286 5.86025 6.78371C5.8071 7.03757 5.8466 7.2125 5.9256 7.56235C6.26113 9.04827 7.04828 10.5158 8.26884 11.7364C9.48944 12.9569 10.9569 13.7441 12.4429 14.0796C12.7927 14.1586 12.9676 14.1981 13.2215 14.1449C13.5424 14.0778 13.9253 13.7717 14.0615 13.4734C14.1693 13.2375 14.1693 13 14.1693 12.5249C14.1693 12.1602 14.1286 11.7393 13.6777 11.6686C12.5304 11.4888 11.9569 11.3989 11.829 11.4064C11.3232 11.436 10.9695 11.8141 10.5896 12.12L9.68819 12.8458" stroke="var(--stroke-0, #404040)" stroke-width="1.25"/>
</g>
</svg>
