<svg preserveAspectRatio="none" width="100%" height="100%" overflow="visible" style="display: block;" viewBox="0 0 21.3361 21.3361" fill="none" xmlns="http://www.w3.org/2000/svg">
<path id="Shape" d="M6.83789 0.444336H14.498C16.8396 0.444336 17.619 0.688207 18.3975 1.10449C19.1892 1.52794 19.808 2.14671 20.2314 2.93848C20.6478 3.71695 20.8916 4.49623 20.8916 6.83789V14.498C20.8916 16.8396 20.6478 17.619 20.2314 18.3975C19.808 19.1892 19.1892 19.808 18.3975 20.2314C17.619 20.6478 16.8396 20.8916 14.498 20.8916H6.83789C4.49623 20.8916 3.71695 20.6478 2.93848 20.2314C2.14671 19.808 1.52794 19.1892 1.10449 18.3975C0.688207 17.619 0.444336 16.8396 0.444336 14.498V6.83789C0.444337 4.49626 0.68817 3.71694 1.10449 2.93848C1.52794 2.14669 2.14669 1.52794 2.93848 1.10449C3.71694 0.68817 4.49626 0.444337 6.83789 0.444336Z" stroke="var(--stroke-0, #E2E2EA)" stroke-width="0.889004"/>
</svg>
